%TF.GenerationSoftware,KiCad,Pcbnew,(5.1.6)-1*%
%TF.CreationDate,2021-02-05T10:54:59+01:00*%
%TF.ProjectId,DIY_Blackpill,4449595f-426c-4616-936b-70696c6c2e6b,rev?*%
%TF.SameCoordinates,Original*%
%TF.FileFunction,Soldermask,Bot*%
%TF.FilePolarity,Negative*%
%FSLAX46Y46*%
G04 Gerber Fmt 4.6, Leading zero omitted, Abs format (unit mm)*
G04 Created by KiCad (PCBNEW (5.1.6)-1) date 2021-02-05 10:54:59*
%MOMM*%
%LPD*%
G01*
G04 APERTURE LIST*
%ADD10O,1.720000X1.720000*%
%ADD11R,1.720000X1.720000*%
%ADD12O,1.470000X2.020000*%
%ADD13O,1.170000X1.820000*%
%ADD14O,0.820000X0.820000*%
%ADD15C,1.520000*%
G04 APERTURE END LIST*
D10*
%TO.C,J1*%
X53340000Y-96180000D03*
X53340000Y-93640000D03*
X53340000Y-91100000D03*
X53340000Y-88560000D03*
X53340000Y-86020000D03*
X53340000Y-83480000D03*
X53340000Y-80940000D03*
X53340000Y-78400000D03*
X53340000Y-75860000D03*
X53340000Y-73320000D03*
X53340000Y-70780000D03*
X53340000Y-68240000D03*
X53340000Y-65700000D03*
X53340000Y-63160000D03*
X53340000Y-60620000D03*
X53340000Y-58080000D03*
X53340000Y-55540000D03*
X53340000Y-53000000D03*
X53340000Y-50460000D03*
D11*
X53340000Y-47920000D03*
%TD*%
D10*
%TO.C,J4*%
X67310000Y-60452000D03*
X67310000Y-62992000D03*
X64770000Y-60452000D03*
X64770000Y-62992000D03*
X62230000Y-60452000D03*
D11*
X62230000Y-62992000D03*
%TD*%
%TO.C,J2*%
X76200000Y-47920000D03*
D10*
X76200000Y-50460000D03*
X76200000Y-53000000D03*
X76200000Y-55540000D03*
X76200000Y-58080000D03*
X76200000Y-60620000D03*
X76200000Y-63160000D03*
X76200000Y-65700000D03*
X76200000Y-68240000D03*
X76200000Y-70780000D03*
X76200000Y-73320000D03*
X76200000Y-75860000D03*
X76200000Y-78400000D03*
X76200000Y-80940000D03*
X76200000Y-83480000D03*
X76200000Y-86020000D03*
X76200000Y-88560000D03*
X76200000Y-91100000D03*
X76200000Y-93640000D03*
X76200000Y-96180000D03*
%TD*%
D12*
%TO.C,J3*%
X69257000Y-41220000D03*
X61807000Y-41220000D03*
D13*
X69407000Y-37420000D03*
X61657000Y-37420000D03*
D14*
X68032000Y-40170000D03*
X63032000Y-40170000D03*
%TD*%
D11*
%TO.C,J5*%
X68580000Y-96180000D03*
D10*
X66040000Y-96180000D03*
X63500000Y-96180000D03*
X60960000Y-96180000D03*
%TD*%
D15*
%TO.C,Y1*%
X67110000Y-91440000D03*
X62230000Y-91440000D03*
%TD*%
M02*
