%TF.GenerationSoftware,KiCad,Pcbnew,(5.1.6)-1*%
%TF.CreationDate,2021-02-04T14:06:32+01:00*%
%TF.ProjectId,DIY_Blackpill,4449595f-426c-4616-936b-70696c6c2e6b,rev?*%
%TF.SameCoordinates,Original*%
%TF.FileFunction,Legend,Bot*%
%TF.FilePolarity,Positive*%
%FSLAX46Y46*%
G04 Gerber Fmt 4.6, Leading zero omitted, Abs format (unit mm)*
G04 Created by KiCad (PCBNEW (5.1.6)-1) date 2021-02-04 14:06:32*
%MOMM*%
%LPD*%
G01*
G04 APERTURE LIST*
%ADD10C,0.300000*%
G04 APERTURE END LIST*
D10*
X63128857Y-50778285D02*
X63128857Y-50278285D01*
X63914571Y-50278285D02*
X62414571Y-50278285D01*
X62414571Y-50992571D01*
X63914571Y-51564000D02*
X62914571Y-51564000D01*
X62414571Y-51564000D02*
X62486000Y-51492571D01*
X62557428Y-51564000D01*
X62486000Y-51635428D01*
X62414571Y-51564000D01*
X62557428Y-51564000D01*
X63914571Y-52278285D02*
X62914571Y-52278285D01*
X63200285Y-52278285D02*
X63057428Y-52349714D01*
X62986000Y-52421142D01*
X62914571Y-52564000D01*
X62914571Y-52706857D01*
X63843142Y-53135428D02*
X63914571Y-53278285D01*
X63914571Y-53564000D01*
X63843142Y-53706857D01*
X63700285Y-53778285D01*
X63628857Y-53778285D01*
X63486000Y-53706857D01*
X63414571Y-53564000D01*
X63414571Y-53349714D01*
X63343142Y-53206857D01*
X63200285Y-53135428D01*
X63128857Y-53135428D01*
X62986000Y-53206857D01*
X62914571Y-53349714D01*
X62914571Y-53564000D01*
X62986000Y-53706857D01*
X62914571Y-54206857D02*
X62914571Y-54778285D01*
X62414571Y-54421142D02*
X63700285Y-54421142D01*
X63843142Y-54492571D01*
X63914571Y-54635428D01*
X63914571Y-54778285D01*
X63914571Y-57064000D02*
X63128857Y-57064000D01*
X62986000Y-56992571D01*
X62914571Y-56849714D01*
X62914571Y-56564000D01*
X62986000Y-56421142D01*
X63843142Y-57064000D02*
X63914571Y-56921142D01*
X63914571Y-56564000D01*
X63843142Y-56421142D01*
X63700285Y-56349714D01*
X63557428Y-56349714D01*
X63414571Y-56421142D01*
X63343142Y-56564000D01*
X63343142Y-56921142D01*
X63271714Y-57064000D01*
X62914571Y-57564000D02*
X62914571Y-58135428D01*
X62414571Y-57778285D02*
X63700285Y-57778285D01*
X63843142Y-57849714D01*
X63914571Y-57992571D01*
X63914571Y-58135428D01*
X62914571Y-58421142D02*
X62914571Y-58992571D01*
X62414571Y-58635428D02*
X63700285Y-58635428D01*
X63843142Y-58706857D01*
X63914571Y-58849714D01*
X63914571Y-58992571D01*
X63843142Y-60064000D02*
X63914571Y-59921142D01*
X63914571Y-59635428D01*
X63843142Y-59492571D01*
X63700285Y-59421142D01*
X63128857Y-59421142D01*
X62986000Y-59492571D01*
X62914571Y-59635428D01*
X62914571Y-59921142D01*
X62986000Y-60064000D01*
X63128857Y-60135428D01*
X63271714Y-60135428D01*
X63414571Y-59421142D01*
X63914571Y-60778285D02*
X62914571Y-60778285D01*
X63057428Y-60778285D02*
X62986000Y-60849714D01*
X62914571Y-60992571D01*
X62914571Y-61206857D01*
X62986000Y-61349714D01*
X63128857Y-61421142D01*
X63914571Y-61421142D01*
X63128857Y-61421142D02*
X62986000Y-61492571D01*
X62914571Y-61635428D01*
X62914571Y-61849714D01*
X62986000Y-61992571D01*
X63128857Y-62064000D01*
X63914571Y-62064000D01*
X62914571Y-62778285D02*
X64414571Y-62778285D01*
X62986000Y-62778285D02*
X62914571Y-62921142D01*
X62914571Y-63206857D01*
X62986000Y-63349714D01*
X63057428Y-63421142D01*
X63200285Y-63492571D01*
X63628857Y-63492571D01*
X63771714Y-63421142D01*
X63843142Y-63349714D01*
X63914571Y-63206857D01*
X63914571Y-62921142D01*
X63843142Y-62778285D01*
X62914571Y-63921142D02*
X62914571Y-64492571D01*
X62414571Y-64135428D02*
X63700285Y-64135428D01*
X63843142Y-64206857D01*
X63914571Y-64349714D01*
X63914571Y-64492571D01*
X63914571Y-66778285D02*
X63128857Y-66778285D01*
X62986000Y-66706857D01*
X62914571Y-66564000D01*
X62914571Y-66278285D01*
X62986000Y-66135428D01*
X63843142Y-66778285D02*
X63914571Y-66635428D01*
X63914571Y-66278285D01*
X63843142Y-66135428D01*
X63700285Y-66064000D01*
X63557428Y-66064000D01*
X63414571Y-66135428D01*
X63343142Y-66278285D01*
X63343142Y-66635428D01*
X63271714Y-66778285D01*
X62914571Y-67278285D02*
X62914571Y-67849714D01*
X62414571Y-67492571D02*
X63700285Y-67492571D01*
X63843142Y-67564000D01*
X63914571Y-67706857D01*
X63914571Y-67849714D01*
X63914571Y-69492571D02*
X62414571Y-69492571D01*
X62414571Y-70064000D01*
X62486000Y-70206857D01*
X62557428Y-70278285D01*
X62700285Y-70349714D01*
X62914571Y-70349714D01*
X63057428Y-70278285D01*
X63128857Y-70206857D01*
X63200285Y-70064000D01*
X63200285Y-69492571D01*
X63771714Y-71849714D02*
X63843142Y-71778285D01*
X63914571Y-71564000D01*
X63914571Y-71421142D01*
X63843142Y-71206857D01*
X63700285Y-71064000D01*
X63557428Y-70992571D01*
X63271714Y-70921142D01*
X63057428Y-70921142D01*
X62771714Y-70992571D01*
X62628857Y-71064000D01*
X62486000Y-71206857D01*
X62414571Y-71421142D01*
X62414571Y-71564000D01*
X62486000Y-71778285D01*
X62557428Y-71849714D01*
X63128857Y-72992571D02*
X63200285Y-73206857D01*
X63271714Y-73278285D01*
X63414571Y-73349714D01*
X63628857Y-73349714D01*
X63771714Y-73278285D01*
X63843142Y-73206857D01*
X63914571Y-73064000D01*
X63914571Y-72492571D01*
X62414571Y-72492571D01*
X62414571Y-72992571D01*
X62486000Y-73135428D01*
X62557428Y-73206857D01*
X62700285Y-73278285D01*
X62843142Y-73278285D01*
X62986000Y-73206857D01*
X63057428Y-73135428D01*
X63128857Y-72992571D01*
X63128857Y-72492571D01*
X62914571Y-74992571D02*
X63914571Y-75278285D01*
X63200285Y-75564000D01*
X63914571Y-75849714D01*
X62914571Y-76135428D01*
X63914571Y-76706857D02*
X62914571Y-76706857D01*
X62414571Y-76706857D02*
X62486000Y-76635428D01*
X62557428Y-76706857D01*
X62486000Y-76778285D01*
X62414571Y-76706857D01*
X62557428Y-76706857D01*
X62914571Y-77206857D02*
X62914571Y-77778285D01*
X62414571Y-77421142D02*
X63700285Y-77421142D01*
X63843142Y-77492571D01*
X63914571Y-77635428D01*
X63914571Y-77778285D01*
X63914571Y-78278285D02*
X62414571Y-78278285D01*
X63914571Y-78921142D02*
X63128857Y-78921142D01*
X62986000Y-78849714D01*
X62914571Y-78706857D01*
X62914571Y-78492571D01*
X62986000Y-78349714D01*
X63057428Y-78278285D01*
X63914571Y-80778285D02*
X62414571Y-80778285D01*
X63486000Y-81278285D01*
X62414571Y-81778285D01*
X63914571Y-81778285D01*
X63771714Y-83349714D02*
X63843142Y-83278285D01*
X63914571Y-83064000D01*
X63914571Y-82921142D01*
X63843142Y-82706857D01*
X63700285Y-82564000D01*
X63557428Y-82492571D01*
X63271714Y-82421142D01*
X63057428Y-82421142D01*
X62771714Y-82492571D01*
X62628857Y-82564000D01*
X62486000Y-82706857D01*
X62414571Y-82921142D01*
X62414571Y-83064000D01*
X62486000Y-83278285D01*
X62557428Y-83349714D01*
X62414571Y-83992571D02*
X63628857Y-83992571D01*
X63771714Y-84064000D01*
X63843142Y-84135428D01*
X63914571Y-84278285D01*
X63914571Y-84564000D01*
X63843142Y-84706857D01*
X63771714Y-84778285D01*
X63628857Y-84849714D01*
X62414571Y-84849714D01*
X65678857Y-55849714D02*
X65750285Y-56064000D01*
X65821714Y-56135428D01*
X65964571Y-56206857D01*
X66178857Y-56206857D01*
X66321714Y-56135428D01*
X66393142Y-56064000D01*
X66464571Y-55921142D01*
X66464571Y-55349714D01*
X64964571Y-55349714D01*
X64964571Y-55849714D01*
X65036000Y-55992571D01*
X65107428Y-56064000D01*
X65250285Y-56135428D01*
X65393142Y-56135428D01*
X65536000Y-56064000D01*
X65607428Y-55992571D01*
X65678857Y-55849714D01*
X65678857Y-55349714D01*
X65464571Y-56706857D02*
X66464571Y-57064000D01*
X65464571Y-57421142D02*
X66464571Y-57064000D01*
X66821714Y-56921142D01*
X66893142Y-56849714D01*
X66964571Y-56706857D01*
X66321714Y-57992571D02*
X66393142Y-58064000D01*
X66464571Y-57992571D01*
X66393142Y-57921142D01*
X66321714Y-57992571D01*
X66464571Y-57992571D01*
X65536000Y-57992571D02*
X65607428Y-58064000D01*
X65678857Y-57992571D01*
X65607428Y-57921142D01*
X65536000Y-57992571D01*
X65678857Y-57992571D01*
X66464571Y-59849714D02*
X64964571Y-59849714D01*
X64964571Y-60206857D01*
X65036000Y-60421142D01*
X65178857Y-60564000D01*
X65321714Y-60635428D01*
X65607428Y-60706857D01*
X65821714Y-60706857D01*
X66107428Y-60635428D01*
X66250285Y-60564000D01*
X66393142Y-60421142D01*
X66464571Y-60206857D01*
X66464571Y-59849714D01*
X66464571Y-61349714D02*
X65464571Y-61349714D01*
X64964571Y-61349714D02*
X65036000Y-61278285D01*
X65107428Y-61349714D01*
X65036000Y-61421142D01*
X64964571Y-61349714D01*
X65107428Y-61349714D01*
X66464571Y-62064000D02*
X65464571Y-62064000D01*
X65750285Y-62064000D02*
X65607428Y-62135428D01*
X65536000Y-62206857D01*
X65464571Y-62349714D01*
X65464571Y-62492571D01*
X66464571Y-62992571D02*
X64964571Y-62992571D01*
X65893142Y-63135428D02*
X66464571Y-63564000D01*
X65464571Y-63564000D02*
X66036000Y-62992571D01*
X65464571Y-65206857D02*
X66464571Y-65564000D01*
X65464571Y-65921142D01*
X66464571Y-67135428D02*
X65678857Y-67135428D01*
X65536000Y-67064000D01*
X65464571Y-66921142D01*
X65464571Y-66635428D01*
X65536000Y-66492571D01*
X66393142Y-67135428D02*
X66464571Y-66992571D01*
X66464571Y-66635428D01*
X66393142Y-66492571D01*
X66250285Y-66421142D01*
X66107428Y-66421142D01*
X65964571Y-66492571D01*
X65893142Y-66635428D01*
X65893142Y-66992571D01*
X65821714Y-67135428D01*
X65464571Y-67849714D02*
X66464571Y-67849714D01*
X65607428Y-67849714D02*
X65536000Y-67921142D01*
X65464571Y-68064000D01*
X65464571Y-68278285D01*
X65536000Y-68421142D01*
X65678857Y-68492571D01*
X66464571Y-68492571D01*
X65036000Y-71135428D02*
X64964571Y-70992571D01*
X64964571Y-70778285D01*
X65036000Y-70564000D01*
X65178857Y-70421142D01*
X65321714Y-70349714D01*
X65607428Y-70278285D01*
X65821714Y-70278285D01*
X66107428Y-70349714D01*
X66250285Y-70421142D01*
X66393142Y-70564000D01*
X66464571Y-70778285D01*
X66464571Y-70921142D01*
X66393142Y-71135428D01*
X66321714Y-71206857D01*
X65821714Y-71206857D01*
X65821714Y-70921142D01*
X66464571Y-71849714D02*
X65464571Y-71849714D01*
X65750285Y-71849714D02*
X65607428Y-71921142D01*
X65536000Y-71992571D01*
X65464571Y-72135428D01*
X65464571Y-72278285D01*
X65464571Y-73421142D02*
X66464571Y-73421142D01*
X65464571Y-72778285D02*
X66250285Y-72778285D01*
X66393142Y-72849714D01*
X66464571Y-72992571D01*
X66464571Y-73206857D01*
X66393142Y-73349714D01*
X66321714Y-73421142D01*
X65464571Y-74135428D02*
X66464571Y-74135428D01*
X65607428Y-74135428D02*
X65536000Y-74206857D01*
X65464571Y-74349714D01*
X65464571Y-74564000D01*
X65536000Y-74706857D01*
X65678857Y-74778285D01*
X66464571Y-74778285D01*
X66393142Y-75421142D02*
X66464571Y-75564000D01*
X66464571Y-75849714D01*
X66393142Y-75992571D01*
X66250285Y-76064000D01*
X66178857Y-76064000D01*
X66036000Y-75992571D01*
X65964571Y-75849714D01*
X65964571Y-75635428D01*
X65893142Y-75492571D01*
X65750285Y-75421142D01*
X65678857Y-75421142D01*
X65536000Y-75492571D01*
X65464571Y-75635428D01*
X65464571Y-75849714D01*
X65536000Y-75992571D01*
X65464571Y-76564000D02*
X66464571Y-76921142D01*
X65464571Y-77278285D01*
X66393142Y-78421142D02*
X66464571Y-78278285D01*
X66464571Y-77992571D01*
X66393142Y-77849714D01*
X66250285Y-77778285D01*
X65678857Y-77778285D01*
X65536000Y-77849714D01*
X65464571Y-77992571D01*
X65464571Y-78278285D01*
X65536000Y-78421142D01*
X65678857Y-78492571D01*
X65821714Y-78492571D01*
X65964571Y-77778285D01*
X65464571Y-79135428D02*
X66464571Y-79135428D01*
X65607428Y-79135428D02*
X65536000Y-79206857D01*
X65464571Y-79349714D01*
X65464571Y-79564000D01*
X65536000Y-79706857D01*
X65678857Y-79778285D01*
X66464571Y-79778285D01*
X69014571Y-56921142D02*
X67514571Y-56921142D01*
X67514571Y-57278285D01*
X67586000Y-57492571D01*
X67728857Y-57635428D01*
X67871714Y-57706857D01*
X68157428Y-57778285D01*
X68371714Y-57778285D01*
X68657428Y-57706857D01*
X68800285Y-57635428D01*
X68943142Y-57492571D01*
X69014571Y-57278285D01*
X69014571Y-56921142D01*
X69014571Y-59064000D02*
X68228857Y-59064000D01*
X68086000Y-58992571D01*
X68014571Y-58849714D01*
X68014571Y-58564000D01*
X68086000Y-58421142D01*
X68943142Y-59064000D02*
X69014571Y-58921142D01*
X69014571Y-58564000D01*
X68943142Y-58421142D01*
X68800285Y-58349714D01*
X68657428Y-58349714D01*
X68514571Y-58421142D01*
X68443142Y-58564000D01*
X68443142Y-58921142D01*
X68371714Y-59064000D01*
X68014571Y-59564000D02*
X68014571Y-60135428D01*
X67514571Y-59778285D02*
X68800285Y-59778285D01*
X68943142Y-59849714D01*
X69014571Y-59992571D01*
X69014571Y-60135428D01*
X68943142Y-61206857D02*
X69014571Y-61064000D01*
X69014571Y-60778285D01*
X68943142Y-60635428D01*
X68800285Y-60564000D01*
X68228857Y-60564000D01*
X68086000Y-60635428D01*
X68014571Y-60778285D01*
X68014571Y-61064000D01*
X68086000Y-61206857D01*
X68228857Y-61278285D01*
X68371714Y-61278285D01*
X68514571Y-60564000D01*
X68871714Y-61921142D02*
X68943142Y-61992571D01*
X69014571Y-61921142D01*
X68943142Y-61849714D01*
X68871714Y-61921142D01*
X69014571Y-61921142D01*
X68086000Y-61921142D02*
X68157428Y-61992571D01*
X68228857Y-61921142D01*
X68157428Y-61849714D01*
X68086000Y-61921142D01*
X68228857Y-61921142D01*
X67514571Y-64064000D02*
X67514571Y-64206857D01*
X67586000Y-64349714D01*
X67657428Y-64421142D01*
X67800285Y-64492571D01*
X68086000Y-64564000D01*
X68443142Y-64564000D01*
X68728857Y-64492571D01*
X68871714Y-64421142D01*
X68943142Y-64349714D01*
X69014571Y-64206857D01*
X69014571Y-64064000D01*
X68943142Y-63921142D01*
X68871714Y-63849714D01*
X68728857Y-63778285D01*
X68443142Y-63706857D01*
X68086000Y-63706857D01*
X67800285Y-63778285D01*
X67657428Y-63849714D01*
X67586000Y-63921142D01*
X67514571Y-64064000D01*
X68014571Y-65849714D02*
X69014571Y-65849714D01*
X67443142Y-65492571D02*
X68514571Y-65135428D01*
X68514571Y-66064000D01*
X68443142Y-66635428D02*
X68443142Y-67778285D01*
X67514571Y-68778285D02*
X67514571Y-68921142D01*
X67586000Y-69064000D01*
X67657428Y-69135428D01*
X67800285Y-69206857D01*
X68086000Y-69278285D01*
X68443142Y-69278285D01*
X68728857Y-69206857D01*
X68871714Y-69135428D01*
X68943142Y-69064000D01*
X69014571Y-68921142D01*
X69014571Y-68778285D01*
X68943142Y-68635428D01*
X68871714Y-68564000D01*
X68728857Y-68492571D01*
X68443142Y-68421142D01*
X68086000Y-68421142D01*
X67800285Y-68492571D01*
X67657428Y-68564000D01*
X67586000Y-68635428D01*
X67514571Y-68778285D01*
X67657428Y-69849714D02*
X67586000Y-69921142D01*
X67514571Y-70064000D01*
X67514571Y-70421142D01*
X67586000Y-70564000D01*
X67657428Y-70635428D01*
X67800285Y-70706857D01*
X67943142Y-70706857D01*
X68157428Y-70635428D01*
X69014571Y-69778285D01*
X69014571Y-70706857D01*
X68443142Y-71349714D02*
X68443142Y-72492571D01*
X67657428Y-73135428D02*
X67586000Y-73206857D01*
X67514571Y-73349714D01*
X67514571Y-73706857D01*
X67586000Y-73849714D01*
X67657428Y-73921142D01*
X67800285Y-73992571D01*
X67943142Y-73992571D01*
X68157428Y-73921142D01*
X69014571Y-73064000D01*
X69014571Y-73992571D01*
X67514571Y-74921142D02*
X67514571Y-75064000D01*
X67586000Y-75206857D01*
X67657428Y-75278285D01*
X67800285Y-75349714D01*
X68086000Y-75421142D01*
X68443142Y-75421142D01*
X68728857Y-75349714D01*
X68871714Y-75278285D01*
X68943142Y-75206857D01*
X69014571Y-75064000D01*
X69014571Y-74921142D01*
X68943142Y-74778285D01*
X68871714Y-74706857D01*
X68728857Y-74635428D01*
X68443142Y-74564000D01*
X68086000Y-74564000D01*
X67800285Y-74635428D01*
X67657428Y-74706857D01*
X67586000Y-74778285D01*
X67514571Y-74921142D01*
X67657428Y-75992571D02*
X67586000Y-76064000D01*
X67514571Y-76206857D01*
X67514571Y-76564000D01*
X67586000Y-76706857D01*
X67657428Y-76778285D01*
X67800285Y-76849714D01*
X67943142Y-76849714D01*
X68157428Y-76778285D01*
X69014571Y-75921142D01*
X69014571Y-76849714D01*
X69014571Y-78278285D02*
X69014571Y-77421142D01*
X69014571Y-77849714D02*
X67514571Y-77849714D01*
X67728857Y-77706857D01*
X67871714Y-77564000D01*
X67943142Y-77421142D01*
M02*
