%TF.GenerationSoftware,KiCad,Pcbnew,(5.1.6)-1*%
%TF.CreationDate,2021-02-04T14:06:32+01:00*%
%TF.ProjectId,DIY_Blackpill,4449595f-426c-4616-936b-70696c6c2e6b,rev?*%
%TF.SameCoordinates,Original*%
%TF.FileFunction,Soldermask,Top*%
%TF.FilePolarity,Negative*%
%FSLAX46Y46*%
G04 Gerber Fmt 4.6, Leading zero omitted, Abs format (unit mm)*
G04 Created by KiCad (PCBNEW (5.1.6)-1) date 2021-02-04 14:06:32*
%MOMM*%
%LPD*%
G01*
G04 APERTURE LIST*
%ADD10O,1.720000X1.720000*%
%ADD11R,1.720000X1.720000*%
%ADD12R,1.520000X1.520000*%
%ADD13R,0.470000X1.320000*%
%ADD14O,1.470000X2.020000*%
%ADD15O,1.170000X1.820000*%
%ADD16O,0.820000X0.820000*%
%ADD17R,0.420000X1.220000*%
%ADD18R,0.420000X1.520000*%
%ADD19C,1.520000*%
G04 APERTURE END LIST*
D10*
%TO.C,J1*%
X53340000Y-96180000D03*
X53340000Y-93640000D03*
X53340000Y-91100000D03*
X53340000Y-88560000D03*
X53340000Y-86020000D03*
X53340000Y-83480000D03*
X53340000Y-80940000D03*
X53340000Y-78400000D03*
X53340000Y-75860000D03*
X53340000Y-73320000D03*
X53340000Y-70780000D03*
X53340000Y-68240000D03*
X53340000Y-65700000D03*
X53340000Y-63160000D03*
X53340000Y-60620000D03*
X53340000Y-58080000D03*
X53340000Y-55540000D03*
X53340000Y-53000000D03*
X53340000Y-50460000D03*
D11*
X53340000Y-47920000D03*
%TD*%
D12*
%TO.C,SW1*%
X68670000Y-85852000D03*
X60870000Y-85852000D03*
%TD*%
D10*
%TO.C,J4*%
X67310000Y-60452000D03*
X67310000Y-62992000D03*
X64770000Y-60452000D03*
X64770000Y-62992000D03*
X62230000Y-60452000D03*
D11*
X62230000Y-62992000D03*
%TD*%
%TO.C,C1*%
G36*
G01*
X59894000Y-47956747D02*
X59894000Y-48868053D01*
G75*
G02*
X59639653Y-49122400I-254347J0D01*
G01*
X58978347Y-49122400D01*
G75*
G02*
X58724000Y-48868053I0J254347D01*
G01*
X58724000Y-47956747D01*
G75*
G02*
X58978347Y-47702400I254347J0D01*
G01*
X59639653Y-47702400D01*
G75*
G02*
X59894000Y-47956747I0J-254347D01*
G01*
G37*
G36*
G01*
X57844000Y-47956747D02*
X57844000Y-48868053D01*
G75*
G02*
X57589653Y-49122400I-254347J0D01*
G01*
X56928347Y-49122400D01*
G75*
G02*
X56674000Y-48868053I0J254347D01*
G01*
X56674000Y-47956747D01*
G75*
G02*
X56928347Y-47702400I254347J0D01*
G01*
X57589653Y-47702400D01*
G75*
G02*
X57844000Y-47956747I0J-254347D01*
G01*
G37*
%TD*%
%TO.C,C2*%
G36*
G01*
X72883753Y-74765700D02*
X71972447Y-74765700D01*
G75*
G02*
X71718100Y-74511353I0J254347D01*
G01*
X71718100Y-73850047D01*
G75*
G02*
X71972447Y-73595700I254347J0D01*
G01*
X72883753Y-73595700D01*
G75*
G02*
X73138100Y-73850047I0J-254347D01*
G01*
X73138100Y-74511353D01*
G75*
G02*
X72883753Y-74765700I-254347J0D01*
G01*
G37*
G36*
G01*
X72883753Y-72715700D02*
X71972447Y-72715700D01*
G75*
G02*
X71718100Y-72461353I0J254347D01*
G01*
X71718100Y-71800047D01*
G75*
G02*
X71972447Y-71545700I254347J0D01*
G01*
X72883753Y-71545700D01*
G75*
G02*
X73138100Y-71800047I0J-254347D01*
G01*
X73138100Y-72461353D01*
G75*
G02*
X72883753Y-72715700I-254347J0D01*
G01*
G37*
%TD*%
%TO.C,C3*%
G36*
G01*
X70313800Y-46886853D02*
X70313800Y-45975547D01*
G75*
G02*
X70568147Y-45721200I254347J0D01*
G01*
X71229453Y-45721200D01*
G75*
G02*
X71483800Y-45975547I0J-254347D01*
G01*
X71483800Y-46886853D01*
G75*
G02*
X71229453Y-47141200I-254347J0D01*
G01*
X70568147Y-47141200D01*
G75*
G02*
X70313800Y-46886853I0J254347D01*
G01*
G37*
G36*
G01*
X72363800Y-46886853D02*
X72363800Y-45975547D01*
G75*
G02*
X72618147Y-45721200I254347J0D01*
G01*
X73279453Y-45721200D01*
G75*
G02*
X73533800Y-45975547I0J-254347D01*
G01*
X73533800Y-46886853D01*
G75*
G02*
X73279453Y-47141200I-254347J0D01*
G01*
X72618147Y-47141200D01*
G75*
G02*
X72363800Y-46886853I0J254347D01*
G01*
G37*
%TD*%
%TO.C,C4*%
G36*
G01*
X57862000Y-43892747D02*
X57862000Y-44804053D01*
G75*
G02*
X57607653Y-45058400I-254347J0D01*
G01*
X56946347Y-45058400D01*
G75*
G02*
X56692000Y-44804053I0J254347D01*
G01*
X56692000Y-43892747D01*
G75*
G02*
X56946347Y-43638400I254347J0D01*
G01*
X57607653Y-43638400D01*
G75*
G02*
X57862000Y-43892747I0J-254347D01*
G01*
G37*
G36*
G01*
X59912000Y-43892747D02*
X59912000Y-44804053D01*
G75*
G02*
X59657653Y-45058400I-254347J0D01*
G01*
X58996347Y-45058400D01*
G75*
G02*
X58742000Y-44804053I0J254347D01*
G01*
X58742000Y-43892747D01*
G75*
G02*
X58996347Y-43638400I254347J0D01*
G01*
X59657653Y-43638400D01*
G75*
G02*
X59912000Y-43892747I0J-254347D01*
G01*
G37*
%TD*%
%TO.C,C5*%
G36*
G01*
X72363800Y-51458853D02*
X72363800Y-50547547D01*
G75*
G02*
X72618147Y-50293200I254347J0D01*
G01*
X73279453Y-50293200D01*
G75*
G02*
X73533800Y-50547547I0J-254347D01*
G01*
X73533800Y-51458853D01*
G75*
G02*
X73279453Y-51713200I-254347J0D01*
G01*
X72618147Y-51713200D01*
G75*
G02*
X72363800Y-51458853I0J254347D01*
G01*
G37*
G36*
G01*
X70313800Y-51458853D02*
X70313800Y-50547547D01*
G75*
G02*
X70568147Y-50293200I254347J0D01*
G01*
X71229453Y-50293200D01*
G75*
G02*
X71483800Y-50547547I0J-254347D01*
G01*
X71483800Y-51458853D01*
G75*
G02*
X71229453Y-51713200I-254347J0D01*
G01*
X70568147Y-51713200D01*
G75*
G02*
X70313800Y-51458853I0J254347D01*
G01*
G37*
%TD*%
%TO.C,C6*%
G36*
G01*
X68758600Y-65381147D02*
X68758600Y-66292453D01*
G75*
G02*
X68504253Y-66546800I-254347J0D01*
G01*
X67842947Y-66546800D01*
G75*
G02*
X67588600Y-66292453I0J254347D01*
G01*
X67588600Y-65381147D01*
G75*
G02*
X67842947Y-65126800I254347J0D01*
G01*
X68504253Y-65126800D01*
G75*
G02*
X68758600Y-65381147I0J-254347D01*
G01*
G37*
G36*
G01*
X66708600Y-65381147D02*
X66708600Y-66292453D01*
G75*
G02*
X66454253Y-66546800I-254347J0D01*
G01*
X65792947Y-66546800D01*
G75*
G02*
X65538600Y-66292453I0J254347D01*
G01*
X65538600Y-65381147D01*
G75*
G02*
X65792947Y-65126800I254347J0D01*
G01*
X66454253Y-65126800D01*
G75*
G02*
X66708600Y-65381147I0J-254347D01*
G01*
G37*
%TD*%
%TO.C,C7*%
G36*
G01*
X59912000Y-45924747D02*
X59912000Y-46836053D01*
G75*
G02*
X59657653Y-47090400I-254347J0D01*
G01*
X58996347Y-47090400D01*
G75*
G02*
X58742000Y-46836053I0J254347D01*
G01*
X58742000Y-45924747D01*
G75*
G02*
X58996347Y-45670400I254347J0D01*
G01*
X59657653Y-45670400D01*
G75*
G02*
X59912000Y-45924747I0J-254347D01*
G01*
G37*
G36*
G01*
X57862000Y-45924747D02*
X57862000Y-46836053D01*
G75*
G02*
X57607653Y-47090400I-254347J0D01*
G01*
X56946347Y-47090400D01*
G75*
G02*
X56692000Y-46836053I0J254347D01*
G01*
X56692000Y-45924747D01*
G75*
G02*
X56946347Y-45670400I254347J0D01*
G01*
X57607653Y-45670400D01*
G75*
G02*
X57862000Y-45924747I0J-254347D01*
G01*
G37*
%TD*%
%TO.C,C8*%
G36*
G01*
X57478653Y-74880000D02*
X56567347Y-74880000D01*
G75*
G02*
X56313000Y-74625653I0J254347D01*
G01*
X56313000Y-73964347D01*
G75*
G02*
X56567347Y-73710000I254347J0D01*
G01*
X57478653Y-73710000D01*
G75*
G02*
X57733000Y-73964347I0J-254347D01*
G01*
X57733000Y-74625653D01*
G75*
G02*
X57478653Y-74880000I-254347J0D01*
G01*
G37*
G36*
G01*
X57478653Y-72830000D02*
X56567347Y-72830000D01*
G75*
G02*
X56313000Y-72575653I0J254347D01*
G01*
X56313000Y-71914347D01*
G75*
G02*
X56567347Y-71660000I254347J0D01*
G01*
X57478653Y-71660000D01*
G75*
G02*
X57733000Y-71914347I0J-254347D01*
G01*
X57733000Y-72575653D01*
G75*
G02*
X57478653Y-72830000I-254347J0D01*
G01*
G37*
%TD*%
%TO.C,C9*%
G36*
G01*
X57853000Y-49988747D02*
X57853000Y-50900053D01*
G75*
G02*
X57598653Y-51154400I-254347J0D01*
G01*
X56937347Y-51154400D01*
G75*
G02*
X56683000Y-50900053I0J254347D01*
G01*
X56683000Y-49988747D01*
G75*
G02*
X56937347Y-49734400I254347J0D01*
G01*
X57598653Y-49734400D01*
G75*
G02*
X57853000Y-49988747I0J-254347D01*
G01*
G37*
G36*
G01*
X59903000Y-49988747D02*
X59903000Y-50900053D01*
G75*
G02*
X59648653Y-51154400I-254347J0D01*
G01*
X58987347Y-51154400D01*
G75*
G02*
X58733000Y-50900053I0J254347D01*
G01*
X58733000Y-49988747D01*
G75*
G02*
X58987347Y-49734400I254347J0D01*
G01*
X59648653Y-49734400D01*
G75*
G02*
X59903000Y-49988747I0J-254347D01*
G01*
G37*
%TD*%
%TO.C,C10*%
G36*
G01*
X62711800Y-66343253D02*
X62711800Y-65431947D01*
G75*
G02*
X62966147Y-65177600I254347J0D01*
G01*
X63627453Y-65177600D01*
G75*
G02*
X63881800Y-65431947I0J-254347D01*
G01*
X63881800Y-66343253D01*
G75*
G02*
X63627453Y-66597600I-254347J0D01*
G01*
X62966147Y-66597600D01*
G75*
G02*
X62711800Y-66343253I0J254347D01*
G01*
G37*
G36*
G01*
X60661800Y-66343253D02*
X60661800Y-65431947D01*
G75*
G02*
X60916147Y-65177600I254347J0D01*
G01*
X61577453Y-65177600D01*
G75*
G02*
X61831800Y-65431947I0J-254347D01*
G01*
X61831800Y-66343253D01*
G75*
G02*
X61577453Y-66597600I-254347J0D01*
G01*
X60916147Y-66597600D01*
G75*
G02*
X60661800Y-66343253I0J254347D01*
G01*
G37*
%TD*%
%TO.C,C11*%
G36*
G01*
X66459900Y-81179947D02*
X66459900Y-82091253D01*
G75*
G02*
X66205553Y-82345600I-254347J0D01*
G01*
X65544247Y-82345600D01*
G75*
G02*
X65289900Y-82091253I0J254347D01*
G01*
X65289900Y-81179947D01*
G75*
G02*
X65544247Y-80925600I254347J0D01*
G01*
X66205553Y-80925600D01*
G75*
G02*
X66459900Y-81179947I0J-254347D01*
G01*
G37*
G36*
G01*
X64409900Y-81179947D02*
X64409900Y-82091253D01*
G75*
G02*
X64155553Y-82345600I-254347J0D01*
G01*
X63494247Y-82345600D01*
G75*
G02*
X63239900Y-82091253I0J254347D01*
G01*
X63239900Y-81179947D01*
G75*
G02*
X63494247Y-80925600I254347J0D01*
G01*
X64155553Y-80925600D01*
G75*
G02*
X64409900Y-81179947I0J-254347D01*
G01*
G37*
%TD*%
%TO.C,C12*%
G36*
G01*
X71185047Y-89196600D02*
X72096353Y-89196600D01*
G75*
G02*
X72350700Y-89450947I0J-254347D01*
G01*
X72350700Y-90112253D01*
G75*
G02*
X72096353Y-90366600I-254347J0D01*
G01*
X71185047Y-90366600D01*
G75*
G02*
X70930700Y-90112253I0J254347D01*
G01*
X70930700Y-89450947D01*
G75*
G02*
X71185047Y-89196600I254347J0D01*
G01*
G37*
G36*
G01*
X71185047Y-87146600D02*
X72096353Y-87146600D01*
G75*
G02*
X72350700Y-87400947I0J-254347D01*
G01*
X72350700Y-88062253D01*
G75*
G02*
X72096353Y-88316600I-254347J0D01*
G01*
X71185047Y-88316600D01*
G75*
G02*
X70930700Y-88062253I0J254347D01*
G01*
X70930700Y-87400947D01*
G75*
G02*
X71185047Y-87146600I254347J0D01*
G01*
G37*
%TD*%
%TO.C,C13*%
G36*
G01*
X66607000Y-53138347D02*
X66607000Y-54049653D01*
G75*
G02*
X66352653Y-54304000I-254347J0D01*
G01*
X65691347Y-54304000D01*
G75*
G02*
X65437000Y-54049653I0J254347D01*
G01*
X65437000Y-53138347D01*
G75*
G02*
X65691347Y-52884000I254347J0D01*
G01*
X66352653Y-52884000D01*
G75*
G02*
X66607000Y-53138347I0J-254347D01*
G01*
G37*
G36*
G01*
X68657000Y-53138347D02*
X68657000Y-54049653D01*
G75*
G02*
X68402653Y-54304000I-254347J0D01*
G01*
X67741347Y-54304000D01*
G75*
G02*
X67487000Y-54049653I0J254347D01*
G01*
X67487000Y-53138347D01*
G75*
G02*
X67741347Y-52884000I254347J0D01*
G01*
X68402653Y-52884000D01*
G75*
G02*
X68657000Y-53138347I0J-254347D01*
G01*
G37*
%TD*%
%TO.C,C14*%
G36*
G01*
X72045553Y-92295400D02*
X71134247Y-92295400D01*
G75*
G02*
X70879900Y-92041053I0J254347D01*
G01*
X70879900Y-91379747D01*
G75*
G02*
X71134247Y-91125400I254347J0D01*
G01*
X72045553Y-91125400D01*
G75*
G02*
X72299900Y-91379747I0J-254347D01*
G01*
X72299900Y-92041053D01*
G75*
G02*
X72045553Y-92295400I-254347J0D01*
G01*
G37*
G36*
G01*
X72045553Y-94345400D02*
X71134247Y-94345400D01*
G75*
G02*
X70879900Y-94091053I0J254347D01*
G01*
X70879900Y-93429747D01*
G75*
G02*
X71134247Y-93175400I254347J0D01*
G01*
X72045553Y-93175400D01*
G75*
G02*
X72299900Y-93429747I0J-254347D01*
G01*
X72299900Y-94091053D01*
G75*
G02*
X72045553Y-94345400I-254347J0D01*
G01*
G37*
%TD*%
%TO.C,C15*%
G36*
G01*
X57973953Y-94095100D02*
X57062647Y-94095100D01*
G75*
G02*
X56808300Y-93840753I0J254347D01*
G01*
X56808300Y-93179447D01*
G75*
G02*
X57062647Y-92925100I254347J0D01*
G01*
X57973953Y-92925100D01*
G75*
G02*
X58228300Y-93179447I0J-254347D01*
G01*
X58228300Y-93840753D01*
G75*
G02*
X57973953Y-94095100I-254347J0D01*
G01*
G37*
G36*
G01*
X57973953Y-92045100D02*
X57062647Y-92045100D01*
G75*
G02*
X56808300Y-91790753I0J254347D01*
G01*
X56808300Y-91129447D01*
G75*
G02*
X57062647Y-90875100I254347J0D01*
G01*
X57973953Y-90875100D01*
G75*
G02*
X58228300Y-91129447I0J-254347D01*
G01*
X58228300Y-91790753D01*
G75*
G02*
X57973953Y-92045100I-254347J0D01*
G01*
G37*
%TD*%
%TO.C,C16*%
G36*
G01*
X68657000Y-55932347D02*
X68657000Y-56843653D01*
G75*
G02*
X68402653Y-57098000I-254347J0D01*
G01*
X67741347Y-57098000D01*
G75*
G02*
X67487000Y-56843653I0J254347D01*
G01*
X67487000Y-55932347D01*
G75*
G02*
X67741347Y-55678000I254347J0D01*
G01*
X68402653Y-55678000D01*
G75*
G02*
X68657000Y-55932347I0J-254347D01*
G01*
G37*
G36*
G01*
X66607000Y-55932347D02*
X66607000Y-56843653D01*
G75*
G02*
X66352653Y-57098000I-254347J0D01*
G01*
X65691347Y-57098000D01*
G75*
G02*
X65437000Y-56843653I0J254347D01*
G01*
X65437000Y-55932347D01*
G75*
G02*
X65691347Y-55678000I254347J0D01*
G01*
X66352653Y-55678000D01*
G75*
G02*
X66607000Y-55932347I0J-254347D01*
G01*
G37*
%TD*%
%TO.C,D1*%
G36*
G01*
X57138847Y-59075900D02*
X58050153Y-59075900D01*
G75*
G02*
X58304500Y-59330247I0J-254347D01*
G01*
X58304500Y-59991553D01*
G75*
G02*
X58050153Y-60245900I-254347J0D01*
G01*
X57138847Y-60245900D01*
G75*
G02*
X56884500Y-59991553I0J254347D01*
G01*
X56884500Y-59330247D01*
G75*
G02*
X57138847Y-59075900I254347J0D01*
G01*
G37*
G36*
G01*
X57138847Y-57025900D02*
X58050153Y-57025900D01*
G75*
G02*
X58304500Y-57280247I0J-254347D01*
G01*
X58304500Y-57941553D01*
G75*
G02*
X58050153Y-58195900I-254347J0D01*
G01*
X57138847Y-58195900D01*
G75*
G02*
X56884500Y-57941553I0J254347D01*
G01*
X56884500Y-57280247D01*
G75*
G02*
X57138847Y-57025900I254347J0D01*
G01*
G37*
%TD*%
%TO.C,D2*%
G36*
G01*
X71347053Y-56105700D02*
X70435747Y-56105700D01*
G75*
G02*
X70181400Y-55851353I0J254347D01*
G01*
X70181400Y-55190047D01*
G75*
G02*
X70435747Y-54935700I254347J0D01*
G01*
X71347053Y-54935700D01*
G75*
G02*
X71601400Y-55190047I0J-254347D01*
G01*
X71601400Y-55851353D01*
G75*
G02*
X71347053Y-56105700I-254347J0D01*
G01*
G37*
G36*
G01*
X71347053Y-54055700D02*
X70435747Y-54055700D01*
G75*
G02*
X70181400Y-53801353I0J254347D01*
G01*
X70181400Y-53140047D01*
G75*
G02*
X70435747Y-52885700I254347J0D01*
G01*
X71347053Y-52885700D01*
G75*
G02*
X71601400Y-53140047I0J-254347D01*
G01*
X71601400Y-53801353D01*
G75*
G02*
X71347053Y-54055700I-254347J0D01*
G01*
G37*
%TD*%
%TO.C,J2*%
X76200000Y-47920000D03*
D10*
X76200000Y-50460000D03*
X76200000Y-53000000D03*
X76200000Y-55540000D03*
X76200000Y-58080000D03*
X76200000Y-60620000D03*
X76200000Y-63160000D03*
X76200000Y-65700000D03*
X76200000Y-68240000D03*
X76200000Y-70780000D03*
X76200000Y-73320000D03*
X76200000Y-75860000D03*
X76200000Y-78400000D03*
X76200000Y-80940000D03*
X76200000Y-83480000D03*
X76200000Y-86020000D03*
X76200000Y-88560000D03*
X76200000Y-91100000D03*
X76200000Y-93640000D03*
X76200000Y-96180000D03*
%TD*%
D13*
%TO.C,J3*%
X66832000Y-41270000D03*
X66182000Y-41270000D03*
X65532000Y-41270000D03*
X64882000Y-41270000D03*
X64232000Y-41270000D03*
D14*
X69257000Y-41220000D03*
X61807000Y-41220000D03*
D15*
X69407000Y-37420000D03*
X61657000Y-37420000D03*
D16*
X68032000Y-40170000D03*
X63032000Y-40170000D03*
%TD*%
D11*
%TO.C,J5*%
X68580000Y-96180000D03*
D10*
X66040000Y-96180000D03*
X63500000Y-96180000D03*
X60960000Y-96180000D03*
%TD*%
%TO.C,R1*%
G36*
G01*
X73533800Y-43943547D02*
X73533800Y-44854853D01*
G75*
G02*
X73279453Y-45109200I-254347J0D01*
G01*
X72618147Y-45109200D01*
G75*
G02*
X72363800Y-44854853I0J254347D01*
G01*
X72363800Y-43943547D01*
G75*
G02*
X72618147Y-43689200I254347J0D01*
G01*
X73279453Y-43689200D01*
G75*
G02*
X73533800Y-43943547I0J-254347D01*
G01*
G37*
G36*
G01*
X71483800Y-43943547D02*
X71483800Y-44854853D01*
G75*
G02*
X71229453Y-45109200I-254347J0D01*
G01*
X70568147Y-45109200D01*
G75*
G02*
X70313800Y-44854853I0J254347D01*
G01*
X70313800Y-43943547D01*
G75*
G02*
X70568147Y-43689200I254347J0D01*
G01*
X71229453Y-43689200D01*
G75*
G02*
X71483800Y-43943547I0J-254347D01*
G01*
G37*
%TD*%
%TO.C,R2*%
G36*
G01*
X71492800Y-48261547D02*
X71492800Y-49172853D01*
G75*
G02*
X71238453Y-49427200I-254347J0D01*
G01*
X70577147Y-49427200D01*
G75*
G02*
X70322800Y-49172853I0J254347D01*
G01*
X70322800Y-48261547D01*
G75*
G02*
X70577147Y-48007200I254347J0D01*
G01*
X71238453Y-48007200D01*
G75*
G02*
X71492800Y-48261547I0J-254347D01*
G01*
G37*
G36*
G01*
X73542800Y-48261547D02*
X73542800Y-49172853D01*
G75*
G02*
X73288453Y-49427200I-254347J0D01*
G01*
X72627147Y-49427200D01*
G75*
G02*
X72372800Y-49172853I0J254347D01*
G01*
X72372800Y-48261547D01*
G75*
G02*
X72627147Y-48007200I254347J0D01*
G01*
X73288453Y-48007200D01*
G75*
G02*
X73542800Y-48261547I0J-254347D01*
G01*
G37*
%TD*%
%TO.C,R3*%
G36*
G01*
X57164247Y-52669800D02*
X58075553Y-52669800D01*
G75*
G02*
X58329900Y-52924147I0J-254347D01*
G01*
X58329900Y-53585453D01*
G75*
G02*
X58075553Y-53839800I-254347J0D01*
G01*
X57164247Y-53839800D01*
G75*
G02*
X56909900Y-53585453I0J254347D01*
G01*
X56909900Y-52924147D01*
G75*
G02*
X57164247Y-52669800I254347J0D01*
G01*
G37*
G36*
G01*
X57164247Y-54719800D02*
X58075553Y-54719800D01*
G75*
G02*
X58329900Y-54974147I0J-254347D01*
G01*
X58329900Y-55635453D01*
G75*
G02*
X58075553Y-55889800I-254347J0D01*
G01*
X57164247Y-55889800D01*
G75*
G02*
X56909900Y-55635453I0J254347D01*
G01*
X56909900Y-54974147D01*
G75*
G02*
X57164247Y-54719800I254347J0D01*
G01*
G37*
%TD*%
%TO.C,R4*%
G36*
G01*
X72721747Y-54901300D02*
X73633053Y-54901300D01*
G75*
G02*
X73887400Y-55155647I0J-254347D01*
G01*
X73887400Y-55816953D01*
G75*
G02*
X73633053Y-56071300I-254347J0D01*
G01*
X72721747Y-56071300D01*
G75*
G02*
X72467400Y-55816953I0J254347D01*
G01*
X72467400Y-55155647D01*
G75*
G02*
X72721747Y-54901300I254347J0D01*
G01*
G37*
G36*
G01*
X72721747Y-52851300D02*
X73633053Y-52851300D01*
G75*
G02*
X73887400Y-53105647I0J-254347D01*
G01*
X73887400Y-53766953D01*
G75*
G02*
X73633053Y-54021300I-254347J0D01*
G01*
X72721747Y-54021300D01*
G75*
G02*
X72467400Y-53766953I0J254347D01*
G01*
X72467400Y-53105647D01*
G75*
G02*
X72721747Y-52851300I254347J0D01*
G01*
G37*
%TD*%
%TO.C,R5*%
G36*
G01*
X72109053Y-86500500D02*
X71197747Y-86500500D01*
G75*
G02*
X70943400Y-86246153I0J254347D01*
G01*
X70943400Y-85584847D01*
G75*
G02*
X71197747Y-85330500I254347J0D01*
G01*
X72109053Y-85330500D01*
G75*
G02*
X72363400Y-85584847I0J-254347D01*
G01*
X72363400Y-86246153D01*
G75*
G02*
X72109053Y-86500500I-254347J0D01*
G01*
G37*
G36*
G01*
X72109053Y-84450500D02*
X71197747Y-84450500D01*
G75*
G02*
X70943400Y-84196153I0J254347D01*
G01*
X70943400Y-83534847D01*
G75*
G02*
X71197747Y-83280500I254347J0D01*
G01*
X72109053Y-83280500D01*
G75*
G02*
X72363400Y-83534847I0J-254347D01*
G01*
X72363400Y-84196153D01*
G75*
G02*
X72109053Y-84450500I-254347J0D01*
G01*
G37*
%TD*%
%TO.C,R6*%
G36*
G01*
X61447100Y-82116653D02*
X61447100Y-81205347D01*
G75*
G02*
X61701447Y-80951000I254347J0D01*
G01*
X62362753Y-80951000D01*
G75*
G02*
X62617100Y-81205347I0J-254347D01*
G01*
X62617100Y-82116653D01*
G75*
G02*
X62362753Y-82371000I-254347J0D01*
G01*
X61701447Y-82371000D01*
G75*
G02*
X61447100Y-82116653I0J254347D01*
G01*
G37*
G36*
G01*
X59397100Y-82116653D02*
X59397100Y-81205347D01*
G75*
G02*
X59651447Y-80951000I254347J0D01*
G01*
X60312753Y-80951000D01*
G75*
G02*
X60567100Y-81205347I0J-254347D01*
G01*
X60567100Y-82116653D01*
G75*
G02*
X60312753Y-82371000I-254347J0D01*
G01*
X59651447Y-82371000D01*
G75*
G02*
X59397100Y-82116653I0J254347D01*
G01*
G37*
%TD*%
%TO.C,U1*%
G36*
G01*
X65183657Y-68660981D02*
X66127644Y-67716993D01*
G75*
G02*
X66240782Y-67716993I56569J-56569D01*
G01*
X66353919Y-67830130D01*
G75*
G02*
X66353919Y-67943268I-56569J-56569D01*
G01*
X65409932Y-68887255D01*
G75*
G02*
X65296794Y-68887255I-56569J56569D01*
G01*
X65183657Y-68774118D01*
G75*
G02*
X65183657Y-68660980I56569J56569D01*
G01*
G37*
G36*
G01*
X65537211Y-69014535D02*
X66481198Y-68070547D01*
G75*
G02*
X66594336Y-68070547I56569J-56569D01*
G01*
X66707473Y-68183684D01*
G75*
G02*
X66707473Y-68296822I-56569J-56569D01*
G01*
X65763486Y-69240809D01*
G75*
G02*
X65650348Y-69240809I-56569J56569D01*
G01*
X65537211Y-69127672D01*
G75*
G02*
X65537211Y-69014534I56569J56569D01*
G01*
G37*
G36*
G01*
X65890764Y-69368088D02*
X66834751Y-68424100D01*
G75*
G02*
X66947889Y-68424100I56569J-56569D01*
G01*
X67061026Y-68537237D01*
G75*
G02*
X67061026Y-68650375I-56569J-56569D01*
G01*
X66117039Y-69594362D01*
G75*
G02*
X66003901Y-69594362I-56569J56569D01*
G01*
X65890764Y-69481225D01*
G75*
G02*
X65890764Y-69368087I56569J56569D01*
G01*
G37*
G36*
G01*
X66244318Y-69721642D02*
X67188305Y-68777654D01*
G75*
G02*
X67301443Y-68777654I56569J-56569D01*
G01*
X67414580Y-68890791D01*
G75*
G02*
X67414580Y-69003929I-56569J-56569D01*
G01*
X66470593Y-69947916D01*
G75*
G02*
X66357455Y-69947916I-56569J56569D01*
G01*
X66244318Y-69834779D01*
G75*
G02*
X66244318Y-69721641I56569J56569D01*
G01*
G37*
G36*
G01*
X66597871Y-70075195D02*
X67541858Y-69131207D01*
G75*
G02*
X67654996Y-69131207I56569J-56569D01*
G01*
X67768133Y-69244344D01*
G75*
G02*
X67768133Y-69357482I-56569J-56569D01*
G01*
X66824146Y-70301469D01*
G75*
G02*
X66711008Y-70301469I-56569J56569D01*
G01*
X66597871Y-70188332D01*
G75*
G02*
X66597871Y-70075194I56569J56569D01*
G01*
G37*
G36*
G01*
X66951424Y-70428748D02*
X67895411Y-69484760D01*
G75*
G02*
X68008549Y-69484760I56569J-56569D01*
G01*
X68121686Y-69597897D01*
G75*
G02*
X68121686Y-69711035I-56569J-56569D01*
G01*
X67177699Y-70655022D01*
G75*
G02*
X67064561Y-70655022I-56569J56569D01*
G01*
X66951424Y-70541885D01*
G75*
G02*
X66951424Y-70428747I56569J56569D01*
G01*
G37*
G36*
G01*
X67304978Y-70782302D02*
X68248965Y-69838314D01*
G75*
G02*
X68362103Y-69838314I56569J-56569D01*
G01*
X68475240Y-69951451D01*
G75*
G02*
X68475240Y-70064589I-56569J-56569D01*
G01*
X67531253Y-71008576D01*
G75*
G02*
X67418115Y-71008576I-56569J56569D01*
G01*
X67304978Y-70895439D01*
G75*
G02*
X67304978Y-70782301I56569J56569D01*
G01*
G37*
G36*
G01*
X67658531Y-71135855D02*
X68602518Y-70191867D01*
G75*
G02*
X68715656Y-70191867I56569J-56569D01*
G01*
X68828793Y-70305004D01*
G75*
G02*
X68828793Y-70418142I-56569J-56569D01*
G01*
X67884806Y-71362129D01*
G75*
G02*
X67771668Y-71362129I-56569J56569D01*
G01*
X67658531Y-71248992D01*
G75*
G02*
X67658531Y-71135854I56569J56569D01*
G01*
G37*
G36*
G01*
X68012084Y-71489408D02*
X68956071Y-70545420D01*
G75*
G02*
X69069209Y-70545420I56569J-56569D01*
G01*
X69182346Y-70658557D01*
G75*
G02*
X69182346Y-70771695I-56569J-56569D01*
G01*
X68238359Y-71715682D01*
G75*
G02*
X68125221Y-71715682I-56569J56569D01*
G01*
X68012084Y-71602545D01*
G75*
G02*
X68012084Y-71489407I56569J56569D01*
G01*
G37*
G36*
G01*
X68365638Y-71842962D02*
X69309625Y-70898974D01*
G75*
G02*
X69422763Y-70898974I56569J-56569D01*
G01*
X69535900Y-71012111D01*
G75*
G02*
X69535900Y-71125249I-56569J-56569D01*
G01*
X68591913Y-72069236D01*
G75*
G02*
X68478775Y-72069236I-56569J56569D01*
G01*
X68365638Y-71956099D01*
G75*
G02*
X68365638Y-71842961I56569J56569D01*
G01*
G37*
G36*
G01*
X68719191Y-72196515D02*
X69663178Y-71252527D01*
G75*
G02*
X69776316Y-71252527I56569J-56569D01*
G01*
X69889453Y-71365664D01*
G75*
G02*
X69889453Y-71478802I-56569J-56569D01*
G01*
X68945466Y-72422789D01*
G75*
G02*
X68832328Y-72422789I-56569J56569D01*
G01*
X68719191Y-72309652D01*
G75*
G02*
X68719191Y-72196514I56569J56569D01*
G01*
G37*
G36*
G01*
X69072745Y-72550069D02*
X70016732Y-71606081D01*
G75*
G02*
X70129870Y-71606081I56569J-56569D01*
G01*
X70243007Y-71719218D01*
G75*
G02*
X70243007Y-71832356I-56569J-56569D01*
G01*
X69299020Y-72776343D01*
G75*
G02*
X69185882Y-72776343I-56569J56569D01*
G01*
X69072745Y-72663206D01*
G75*
G02*
X69072745Y-72550068I56569J56569D01*
G01*
G37*
G36*
G01*
X69072745Y-73716794D02*
X69185882Y-73603657D01*
G75*
G02*
X69299020Y-73603657I56569J-56569D01*
G01*
X70243007Y-74547644D01*
G75*
G02*
X70243007Y-74660782I-56569J-56569D01*
G01*
X70129870Y-74773919D01*
G75*
G02*
X70016732Y-74773919I-56569J56569D01*
G01*
X69072745Y-73829932D01*
G75*
G02*
X69072745Y-73716794I56569J56569D01*
G01*
G37*
G36*
G01*
X68719191Y-74070348D02*
X68832328Y-73957211D01*
G75*
G02*
X68945466Y-73957211I56569J-56569D01*
G01*
X69889453Y-74901198D01*
G75*
G02*
X69889453Y-75014336I-56569J-56569D01*
G01*
X69776316Y-75127473D01*
G75*
G02*
X69663178Y-75127473I-56569J56569D01*
G01*
X68719191Y-74183486D01*
G75*
G02*
X68719191Y-74070348I56569J56569D01*
G01*
G37*
G36*
G01*
X68365638Y-74423901D02*
X68478775Y-74310764D01*
G75*
G02*
X68591913Y-74310764I56569J-56569D01*
G01*
X69535900Y-75254751D01*
G75*
G02*
X69535900Y-75367889I-56569J-56569D01*
G01*
X69422763Y-75481026D01*
G75*
G02*
X69309625Y-75481026I-56569J56569D01*
G01*
X68365638Y-74537039D01*
G75*
G02*
X68365638Y-74423901I56569J56569D01*
G01*
G37*
G36*
G01*
X68012084Y-74777455D02*
X68125221Y-74664318D01*
G75*
G02*
X68238359Y-74664318I56569J-56569D01*
G01*
X69182346Y-75608305D01*
G75*
G02*
X69182346Y-75721443I-56569J-56569D01*
G01*
X69069209Y-75834580D01*
G75*
G02*
X68956071Y-75834580I-56569J56569D01*
G01*
X68012084Y-74890593D01*
G75*
G02*
X68012084Y-74777455I56569J56569D01*
G01*
G37*
G36*
G01*
X67658531Y-75131008D02*
X67771668Y-75017871D01*
G75*
G02*
X67884806Y-75017871I56569J-56569D01*
G01*
X68828793Y-75961858D01*
G75*
G02*
X68828793Y-76074996I-56569J-56569D01*
G01*
X68715656Y-76188133D01*
G75*
G02*
X68602518Y-76188133I-56569J56569D01*
G01*
X67658531Y-75244146D01*
G75*
G02*
X67658531Y-75131008I56569J56569D01*
G01*
G37*
G36*
G01*
X67304978Y-75484561D02*
X67418115Y-75371424D01*
G75*
G02*
X67531253Y-75371424I56569J-56569D01*
G01*
X68475240Y-76315411D01*
G75*
G02*
X68475240Y-76428549I-56569J-56569D01*
G01*
X68362103Y-76541686D01*
G75*
G02*
X68248965Y-76541686I-56569J56569D01*
G01*
X67304978Y-75597699D01*
G75*
G02*
X67304978Y-75484561I56569J56569D01*
G01*
G37*
G36*
G01*
X66951424Y-75838115D02*
X67064561Y-75724978D01*
G75*
G02*
X67177699Y-75724978I56569J-56569D01*
G01*
X68121686Y-76668965D01*
G75*
G02*
X68121686Y-76782103I-56569J-56569D01*
G01*
X68008549Y-76895240D01*
G75*
G02*
X67895411Y-76895240I-56569J56569D01*
G01*
X66951424Y-75951253D01*
G75*
G02*
X66951424Y-75838115I56569J56569D01*
G01*
G37*
G36*
G01*
X66597871Y-76191668D02*
X66711008Y-76078531D01*
G75*
G02*
X66824146Y-76078531I56569J-56569D01*
G01*
X67768133Y-77022518D01*
G75*
G02*
X67768133Y-77135656I-56569J-56569D01*
G01*
X67654996Y-77248793D01*
G75*
G02*
X67541858Y-77248793I-56569J56569D01*
G01*
X66597871Y-76304806D01*
G75*
G02*
X66597871Y-76191668I56569J56569D01*
G01*
G37*
G36*
G01*
X66244318Y-76545221D02*
X66357455Y-76432084D01*
G75*
G02*
X66470593Y-76432084I56569J-56569D01*
G01*
X67414580Y-77376071D01*
G75*
G02*
X67414580Y-77489209I-56569J-56569D01*
G01*
X67301443Y-77602346D01*
G75*
G02*
X67188305Y-77602346I-56569J56569D01*
G01*
X66244318Y-76658359D01*
G75*
G02*
X66244318Y-76545221I56569J56569D01*
G01*
G37*
G36*
G01*
X65890764Y-76898775D02*
X66003901Y-76785638D01*
G75*
G02*
X66117039Y-76785638I56569J-56569D01*
G01*
X67061026Y-77729625D01*
G75*
G02*
X67061026Y-77842763I-56569J-56569D01*
G01*
X66947889Y-77955900D01*
G75*
G02*
X66834751Y-77955900I-56569J56569D01*
G01*
X65890764Y-77011913D01*
G75*
G02*
X65890764Y-76898775I56569J56569D01*
G01*
G37*
G36*
G01*
X65537211Y-77252328D02*
X65650348Y-77139191D01*
G75*
G02*
X65763486Y-77139191I56569J-56569D01*
G01*
X66707473Y-78083178D01*
G75*
G02*
X66707473Y-78196316I-56569J-56569D01*
G01*
X66594336Y-78309453D01*
G75*
G02*
X66481198Y-78309453I-56569J56569D01*
G01*
X65537211Y-77365466D01*
G75*
G02*
X65537211Y-77252328I56569J56569D01*
G01*
G37*
G36*
G01*
X65183657Y-77605882D02*
X65296794Y-77492745D01*
G75*
G02*
X65409932Y-77492745I56569J-56569D01*
G01*
X66353919Y-78436732D01*
G75*
G02*
X66353919Y-78549870I-56569J-56569D01*
G01*
X66240782Y-78663007D01*
G75*
G02*
X66127644Y-78663007I-56569J56569D01*
G01*
X65183657Y-77719020D01*
G75*
G02*
X65183657Y-77605882I56569J56569D01*
G01*
G37*
G36*
G01*
X63186081Y-78436733D02*
X64130068Y-77492745D01*
G75*
G02*
X64243206Y-77492745I56569J-56569D01*
G01*
X64356343Y-77605882D01*
G75*
G02*
X64356343Y-77719020I-56569J-56569D01*
G01*
X63412356Y-78663007D01*
G75*
G02*
X63299218Y-78663007I-56569J56569D01*
G01*
X63186081Y-78549870D01*
G75*
G02*
X63186081Y-78436732I56569J56569D01*
G01*
G37*
G36*
G01*
X62832527Y-78083179D02*
X63776514Y-77139191D01*
G75*
G02*
X63889652Y-77139191I56569J-56569D01*
G01*
X64002789Y-77252328D01*
G75*
G02*
X64002789Y-77365466I-56569J-56569D01*
G01*
X63058802Y-78309453D01*
G75*
G02*
X62945664Y-78309453I-56569J56569D01*
G01*
X62832527Y-78196316D01*
G75*
G02*
X62832527Y-78083178I56569J56569D01*
G01*
G37*
G36*
G01*
X62478974Y-77729626D02*
X63422961Y-76785638D01*
G75*
G02*
X63536099Y-76785638I56569J-56569D01*
G01*
X63649236Y-76898775D01*
G75*
G02*
X63649236Y-77011913I-56569J-56569D01*
G01*
X62705249Y-77955900D01*
G75*
G02*
X62592111Y-77955900I-56569J56569D01*
G01*
X62478974Y-77842763D01*
G75*
G02*
X62478974Y-77729625I56569J56569D01*
G01*
G37*
G36*
G01*
X62125420Y-77376072D02*
X63069407Y-76432084D01*
G75*
G02*
X63182545Y-76432084I56569J-56569D01*
G01*
X63295682Y-76545221D01*
G75*
G02*
X63295682Y-76658359I-56569J-56569D01*
G01*
X62351695Y-77602346D01*
G75*
G02*
X62238557Y-77602346I-56569J56569D01*
G01*
X62125420Y-77489209D01*
G75*
G02*
X62125420Y-77376071I56569J56569D01*
G01*
G37*
G36*
G01*
X61771867Y-77022519D02*
X62715854Y-76078531D01*
G75*
G02*
X62828992Y-76078531I56569J-56569D01*
G01*
X62942129Y-76191668D01*
G75*
G02*
X62942129Y-76304806I-56569J-56569D01*
G01*
X61998142Y-77248793D01*
G75*
G02*
X61885004Y-77248793I-56569J56569D01*
G01*
X61771867Y-77135656D01*
G75*
G02*
X61771867Y-77022518I56569J56569D01*
G01*
G37*
G36*
G01*
X61418314Y-76668966D02*
X62362301Y-75724978D01*
G75*
G02*
X62475439Y-75724978I56569J-56569D01*
G01*
X62588576Y-75838115D01*
G75*
G02*
X62588576Y-75951253I-56569J-56569D01*
G01*
X61644589Y-76895240D01*
G75*
G02*
X61531451Y-76895240I-56569J56569D01*
G01*
X61418314Y-76782103D01*
G75*
G02*
X61418314Y-76668965I56569J56569D01*
G01*
G37*
G36*
G01*
X61064760Y-76315412D02*
X62008747Y-75371424D01*
G75*
G02*
X62121885Y-75371424I56569J-56569D01*
G01*
X62235022Y-75484561D01*
G75*
G02*
X62235022Y-75597699I-56569J-56569D01*
G01*
X61291035Y-76541686D01*
G75*
G02*
X61177897Y-76541686I-56569J56569D01*
G01*
X61064760Y-76428549D01*
G75*
G02*
X61064760Y-76315411I56569J56569D01*
G01*
G37*
G36*
G01*
X60711207Y-75961859D02*
X61655194Y-75017871D01*
G75*
G02*
X61768332Y-75017871I56569J-56569D01*
G01*
X61881469Y-75131008D01*
G75*
G02*
X61881469Y-75244146I-56569J-56569D01*
G01*
X60937482Y-76188133D01*
G75*
G02*
X60824344Y-76188133I-56569J56569D01*
G01*
X60711207Y-76074996D01*
G75*
G02*
X60711207Y-75961858I56569J56569D01*
G01*
G37*
G36*
G01*
X60357654Y-75608306D02*
X61301641Y-74664318D01*
G75*
G02*
X61414779Y-74664318I56569J-56569D01*
G01*
X61527916Y-74777455D01*
G75*
G02*
X61527916Y-74890593I-56569J-56569D01*
G01*
X60583929Y-75834580D01*
G75*
G02*
X60470791Y-75834580I-56569J56569D01*
G01*
X60357654Y-75721443D01*
G75*
G02*
X60357654Y-75608305I56569J56569D01*
G01*
G37*
G36*
G01*
X60004100Y-75254752D02*
X60948087Y-74310764D01*
G75*
G02*
X61061225Y-74310764I56569J-56569D01*
G01*
X61174362Y-74423901D01*
G75*
G02*
X61174362Y-74537039I-56569J-56569D01*
G01*
X60230375Y-75481026D01*
G75*
G02*
X60117237Y-75481026I-56569J56569D01*
G01*
X60004100Y-75367889D01*
G75*
G02*
X60004100Y-75254751I56569J56569D01*
G01*
G37*
G36*
G01*
X59650547Y-74901199D02*
X60594534Y-73957211D01*
G75*
G02*
X60707672Y-73957211I56569J-56569D01*
G01*
X60820809Y-74070348D01*
G75*
G02*
X60820809Y-74183486I-56569J-56569D01*
G01*
X59876822Y-75127473D01*
G75*
G02*
X59763684Y-75127473I-56569J56569D01*
G01*
X59650547Y-75014336D01*
G75*
G02*
X59650547Y-74901198I56569J56569D01*
G01*
G37*
G36*
G01*
X59296993Y-74547645D02*
X60240980Y-73603657D01*
G75*
G02*
X60354118Y-73603657I56569J-56569D01*
G01*
X60467255Y-73716794D01*
G75*
G02*
X60467255Y-73829932I-56569J-56569D01*
G01*
X59523268Y-74773919D01*
G75*
G02*
X59410130Y-74773919I-56569J56569D01*
G01*
X59296993Y-74660782D01*
G75*
G02*
X59296993Y-74547644I56569J56569D01*
G01*
G37*
G36*
G01*
X59296993Y-71719218D02*
X59410130Y-71606081D01*
G75*
G02*
X59523268Y-71606081I56569J-56569D01*
G01*
X60467255Y-72550068D01*
G75*
G02*
X60467255Y-72663206I-56569J-56569D01*
G01*
X60354118Y-72776343D01*
G75*
G02*
X60240980Y-72776343I-56569J56569D01*
G01*
X59296993Y-71832356D01*
G75*
G02*
X59296993Y-71719218I56569J56569D01*
G01*
G37*
G36*
G01*
X59650547Y-71365664D02*
X59763684Y-71252527D01*
G75*
G02*
X59876822Y-71252527I56569J-56569D01*
G01*
X60820809Y-72196514D01*
G75*
G02*
X60820809Y-72309652I-56569J-56569D01*
G01*
X60707672Y-72422789D01*
G75*
G02*
X60594534Y-72422789I-56569J56569D01*
G01*
X59650547Y-71478802D01*
G75*
G02*
X59650547Y-71365664I56569J56569D01*
G01*
G37*
G36*
G01*
X60004100Y-71012111D02*
X60117237Y-70898974D01*
G75*
G02*
X60230375Y-70898974I56569J-56569D01*
G01*
X61174362Y-71842961D01*
G75*
G02*
X61174362Y-71956099I-56569J-56569D01*
G01*
X61061225Y-72069236D01*
G75*
G02*
X60948087Y-72069236I-56569J56569D01*
G01*
X60004100Y-71125249D01*
G75*
G02*
X60004100Y-71012111I56569J56569D01*
G01*
G37*
G36*
G01*
X60357654Y-70658557D02*
X60470791Y-70545420D01*
G75*
G02*
X60583929Y-70545420I56569J-56569D01*
G01*
X61527916Y-71489407D01*
G75*
G02*
X61527916Y-71602545I-56569J-56569D01*
G01*
X61414779Y-71715682D01*
G75*
G02*
X61301641Y-71715682I-56569J56569D01*
G01*
X60357654Y-70771695D01*
G75*
G02*
X60357654Y-70658557I56569J56569D01*
G01*
G37*
G36*
G01*
X60711207Y-70305004D02*
X60824344Y-70191867D01*
G75*
G02*
X60937482Y-70191867I56569J-56569D01*
G01*
X61881469Y-71135854D01*
G75*
G02*
X61881469Y-71248992I-56569J-56569D01*
G01*
X61768332Y-71362129D01*
G75*
G02*
X61655194Y-71362129I-56569J56569D01*
G01*
X60711207Y-70418142D01*
G75*
G02*
X60711207Y-70305004I56569J56569D01*
G01*
G37*
G36*
G01*
X61064760Y-69951451D02*
X61177897Y-69838314D01*
G75*
G02*
X61291035Y-69838314I56569J-56569D01*
G01*
X62235022Y-70782301D01*
G75*
G02*
X62235022Y-70895439I-56569J-56569D01*
G01*
X62121885Y-71008576D01*
G75*
G02*
X62008747Y-71008576I-56569J56569D01*
G01*
X61064760Y-70064589D01*
G75*
G02*
X61064760Y-69951451I56569J56569D01*
G01*
G37*
G36*
G01*
X61418314Y-69597897D02*
X61531451Y-69484760D01*
G75*
G02*
X61644589Y-69484760I56569J-56569D01*
G01*
X62588576Y-70428747D01*
G75*
G02*
X62588576Y-70541885I-56569J-56569D01*
G01*
X62475439Y-70655022D01*
G75*
G02*
X62362301Y-70655022I-56569J56569D01*
G01*
X61418314Y-69711035D01*
G75*
G02*
X61418314Y-69597897I56569J56569D01*
G01*
G37*
G36*
G01*
X61771867Y-69244344D02*
X61885004Y-69131207D01*
G75*
G02*
X61998142Y-69131207I56569J-56569D01*
G01*
X62942129Y-70075194D01*
G75*
G02*
X62942129Y-70188332I-56569J-56569D01*
G01*
X62828992Y-70301469D01*
G75*
G02*
X62715854Y-70301469I-56569J56569D01*
G01*
X61771867Y-69357482D01*
G75*
G02*
X61771867Y-69244344I56569J56569D01*
G01*
G37*
G36*
G01*
X62125420Y-68890791D02*
X62238557Y-68777654D01*
G75*
G02*
X62351695Y-68777654I56569J-56569D01*
G01*
X63295682Y-69721641D01*
G75*
G02*
X63295682Y-69834779I-56569J-56569D01*
G01*
X63182545Y-69947916D01*
G75*
G02*
X63069407Y-69947916I-56569J56569D01*
G01*
X62125420Y-69003929D01*
G75*
G02*
X62125420Y-68890791I56569J56569D01*
G01*
G37*
G36*
G01*
X62478974Y-68537237D02*
X62592111Y-68424100D01*
G75*
G02*
X62705249Y-68424100I56569J-56569D01*
G01*
X63649236Y-69368087D01*
G75*
G02*
X63649236Y-69481225I-56569J-56569D01*
G01*
X63536099Y-69594362D01*
G75*
G02*
X63422961Y-69594362I-56569J56569D01*
G01*
X62478974Y-68650375D01*
G75*
G02*
X62478974Y-68537237I56569J56569D01*
G01*
G37*
G36*
G01*
X62832527Y-68183684D02*
X62945664Y-68070547D01*
G75*
G02*
X63058802Y-68070547I56569J-56569D01*
G01*
X64002789Y-69014534D01*
G75*
G02*
X64002789Y-69127672I-56569J-56569D01*
G01*
X63889652Y-69240809D01*
G75*
G02*
X63776514Y-69240809I-56569J56569D01*
G01*
X62832527Y-68296822D01*
G75*
G02*
X62832527Y-68183684I56569J56569D01*
G01*
G37*
G36*
G01*
X63186081Y-67830130D02*
X63299218Y-67716993D01*
G75*
G02*
X63412356Y-67716993I56569J-56569D01*
G01*
X64356343Y-68660980D01*
G75*
G02*
X64356343Y-68774118I-56569J-56569D01*
G01*
X64243206Y-68887255D01*
G75*
G02*
X64130068Y-68887255I-56569J56569D01*
G01*
X63186081Y-67943268D01*
G75*
G02*
X63186081Y-67830130I56569J56569D01*
G01*
G37*
%TD*%
D17*
%TO.C,U2*%
X62750700Y-50326600D03*
X63385700Y-50326600D03*
X64020700Y-50326600D03*
X64655700Y-50326600D03*
X65290700Y-50326600D03*
X65925700Y-50326600D03*
X66560700Y-50326600D03*
X67195700Y-50326600D03*
X67195700Y-45126600D03*
X66560700Y-45126600D03*
X65925700Y-45126600D03*
X65290700Y-45126600D03*
X64655700Y-45126600D03*
X64020700Y-45126600D03*
X63385700Y-45126600D03*
X62750700Y-45126600D03*
%TD*%
D18*
%TO.C,U3*%
X62880000Y-53534000D03*
X62230000Y-53534000D03*
X61580000Y-53534000D03*
X61580000Y-56194000D03*
X62880000Y-56194000D03*
%TD*%
D19*
%TO.C,Y1*%
X67110000Y-91440000D03*
X62230000Y-91440000D03*
%TD*%
M02*
