%TF.GenerationSoftware,KiCad,Pcbnew,(5.1.6)-1*%
%TF.CreationDate,2021-02-04T14:06:32+01:00*%
%TF.ProjectId,DIY_Blackpill,4449595f-426c-4616-936b-70696c6c2e6b,rev?*%
%TF.SameCoordinates,Original*%
%TF.FileFunction,Copper,L2,Bot*%
%TF.FilePolarity,Positive*%
%FSLAX46Y46*%
G04 Gerber Fmt 4.6, Leading zero omitted, Abs format (unit mm)*
G04 Created by KiCad (PCBNEW (5.1.6)-1) date 2021-02-04 14:06:32*
%MOMM*%
%LPD*%
G01*
G04 APERTURE LIST*
%TA.AperFunction,ComponentPad*%
%ADD10O,1.700000X1.700000*%
%TD*%
%TA.AperFunction,ComponentPad*%
%ADD11R,1.700000X1.700000*%
%TD*%
%TA.AperFunction,ComponentPad*%
%ADD12O,1.450000X2.000000*%
%TD*%
%TA.AperFunction,ComponentPad*%
%ADD13O,1.150000X1.800000*%
%TD*%
%TA.AperFunction,ComponentPad*%
%ADD14C,1.500000*%
%TD*%
%TA.AperFunction,ViaPad*%
%ADD15C,0.800000*%
%TD*%
%TA.AperFunction,Conductor*%
%ADD16C,0.250000*%
%TD*%
%TA.AperFunction,Conductor*%
%ADD17C,0.254000*%
%TD*%
G04 APERTURE END LIST*
D10*
%TO.P,J1,20*%
%TO.N,GND*%
X53340000Y-96180000D03*
%TO.P,J1,19*%
X53340000Y-93640000D03*
%TO.P,J1,18*%
%TO.N,+3V3*%
X53340000Y-91100000D03*
%TO.P,J1,17*%
%TO.N,/RESET*%
X53340000Y-88560000D03*
%TO.P,J1,16*%
%TO.N,/PB11*%
X53340000Y-86020000D03*
%TO.P,J1,15*%
%TO.N,/PB10*%
X53340000Y-83480000D03*
%TO.P,J1,14*%
%TO.N,/PB1*%
X53340000Y-80940000D03*
%TO.P,J1,13*%
%TO.N,/PB0*%
X53340000Y-78400000D03*
%TO.P,J1,12*%
%TO.N,/PA7*%
X53340000Y-75860000D03*
%TO.P,J1,11*%
%TO.N,/PA6*%
X53340000Y-73320000D03*
%TO.P,J1,10*%
%TO.N,/PA5*%
X53340000Y-70780000D03*
%TO.P,J1,9*%
%TO.N,/PA4*%
X53340000Y-68240000D03*
%TO.P,J1,8*%
%TO.N,/PA3*%
X53340000Y-65700000D03*
%TO.P,J1,7*%
%TO.N,/PA2*%
X53340000Y-63160000D03*
%TO.P,J1,6*%
%TO.N,/PA1*%
X53340000Y-60620000D03*
%TO.P,J1,5*%
%TO.N,/PA0*%
X53340000Y-58080000D03*
%TO.P,J1,4*%
%TO.N,/PC15*%
X53340000Y-55540000D03*
%TO.P,J1,3*%
%TO.N,/PC14*%
X53340000Y-53000000D03*
%TO.P,J1,2*%
%TO.N,/PC13*%
X53340000Y-50460000D03*
D11*
%TO.P,J1,1*%
%TO.N,+3V3*%
X53340000Y-47920000D03*
%TD*%
D10*
%TO.P,J4,6*%
%TO.N,GND*%
X67310000Y-60452000D03*
%TO.P,J4,5*%
%TO.N,/BOOT1*%
X67310000Y-62992000D03*
%TO.P,J4,4*%
%TO.N,+3V3*%
X64770000Y-60452000D03*
%TO.P,J4,3*%
%TO.N,GND*%
X64770000Y-62992000D03*
%TO.P,J4,2*%
%TO.N,/BOOT0*%
X62230000Y-60452000D03*
D11*
%TO.P,J4,1*%
%TO.N,+3V3*%
X62230000Y-62992000D03*
%TD*%
%TO.P,J2,1*%
%TO.N,+3V3*%
X76200000Y-47920000D03*
D10*
%TO.P,J2,2*%
%TO.N,GND*%
X76200000Y-50460000D03*
%TO.P,J2,3*%
%TO.N,+5V*%
X76200000Y-53000000D03*
%TO.P,J2,4*%
%TO.N,/PB9*%
X76200000Y-55540000D03*
%TO.P,J2,5*%
%TO.N,/PB8*%
X76200000Y-58080000D03*
%TO.P,J2,6*%
%TO.N,/PB7*%
X76200000Y-60620000D03*
%TO.P,J2,7*%
%TO.N,/PB6*%
X76200000Y-63160000D03*
%TO.P,J2,8*%
%TO.N,/PB5*%
X76200000Y-65700000D03*
%TO.P,J2,9*%
%TO.N,/PB4*%
X76200000Y-68240000D03*
%TO.P,J2,10*%
%TO.N,/PB3*%
X76200000Y-70780000D03*
%TO.P,J2,11*%
%TO.N,/PA15*%
X76200000Y-73320000D03*
%TO.P,J2,12*%
%TO.N,/PA12*%
X76200000Y-75860000D03*
%TO.P,J2,13*%
%TO.N,/PA11*%
X76200000Y-78400000D03*
%TO.P,J2,14*%
%TO.N,/TXD_USB*%
X76200000Y-80940000D03*
%TO.P,J2,15*%
%TO.N,/RXD_USB*%
X76200000Y-83480000D03*
%TO.P,J2,16*%
%TO.N,/PA8*%
X76200000Y-86020000D03*
%TO.P,J2,17*%
%TO.N,/PB15*%
X76200000Y-88560000D03*
%TO.P,J2,18*%
%TO.N,/PB14*%
X76200000Y-91100000D03*
%TO.P,J2,19*%
%TO.N,/PB13*%
X76200000Y-93640000D03*
%TO.P,J2,20*%
%TO.N,/PB12*%
X76200000Y-96180000D03*
%TD*%
D12*
%TO.P,J3,6*%
%TO.N,GND*%
X69257000Y-41220000D03*
X61807000Y-41220000D03*
D13*
X69407000Y-37420000D03*
X61657000Y-37420000D03*
%TD*%
D11*
%TO.P,J5,1*%
%TO.N,GND*%
X68580000Y-96180000D03*
D10*
%TO.P,J5,2*%
%TO.N,/SWCLK*%
X66040000Y-96180000D03*
%TO.P,J5,3*%
%TO.N,/SWDIO*%
X63500000Y-96180000D03*
%TO.P,J5,4*%
%TO.N,+3V3*%
X60960000Y-96180000D03*
%TD*%
D14*
%TO.P,Y1,1*%
%TO.N,/OSCIN*%
X67110000Y-91440000D03*
%TO.P,Y1,2*%
%TO.N,/OSCOUT*%
X62230000Y-91440000D03*
%TD*%
D15*
%TO.N,+3V3*%
X69769800Y-52755001D03*
X68834000Y-64516000D03*
X58166000Y-73406000D03*
X73660000Y-74168000D03*
X67056000Y-81788000D03*
%TO.N,GND*%
X60198000Y-68834000D03*
X61468000Y-44196000D03*
X55880000Y-69088000D03*
X70358000Y-73152000D03*
X73817000Y-72136000D03*
X64262000Y-54356000D03*
X66040000Y-47498000D03*
X61468000Y-45974000D03*
X60452000Y-47498000D03*
X58928000Y-42672000D03*
X54610000Y-42926000D03*
X54610000Y-45466000D03*
X55372000Y-50546000D03*
X55118000Y-64516000D03*
X55118000Y-66802000D03*
X55118000Y-77724000D03*
X51816000Y-87376000D03*
X51816000Y-91948000D03*
X58674000Y-97028000D03*
X70866000Y-95504000D03*
X72644000Y-95504000D03*
X74168000Y-96012000D03*
X77978000Y-73660000D03*
X77978000Y-70612000D03*
X72898000Y-61468000D03*
X72898000Y-59944000D03*
X69850000Y-58928000D03*
X69850000Y-61214000D03*
X66802000Y-58420000D03*
X65278000Y-58420000D03*
X75438000Y-45212000D03*
X76708000Y-45212000D03*
X58166000Y-40132000D03*
X55118000Y-40132000D03*
%TO.N,/USB_D+*%
X72390000Y-41656000D03*
X69088000Y-48260000D03*
%TO.N,Net-(C9-Pad1)*%
X63246000Y-47752000D03*
X59847000Y-50292000D03*
%TO.N,/RESET*%
X64262000Y-72136000D03*
X66040000Y-83566000D03*
%TO.N,/OSCIN*%
X63581294Y-70657623D03*
X62992000Y-80518000D03*
%TO.N,/OSCOUT*%
X62976294Y-71454645D03*
X60452000Y-80518000D03*
%TO.N,/PA3*%
X59182000Y-72644000D03*
X61243225Y-73181225D03*
%TO.N,/TXD_USB*%
X67564000Y-74168000D03*
X71882000Y-66802000D03*
X70866000Y-57404000D03*
X62911800Y-51642200D03*
%TO.N,/RXD_USB*%
X66548000Y-74676000D03*
X70866000Y-66548000D03*
X69342000Y-57404000D03*
X64262000Y-48768000D03*
%TO.N,/PB14*%
X70612000Y-82550000D03*
%TO.N,/PB13*%
X69342000Y-82550000D03*
%TO.N,/PB12*%
X68326000Y-82804000D03*
%TO.N,/SWCLK*%
X64867000Y-79248000D03*
X72390000Y-79248000D03*
X77470000Y-79756000D03*
%TO.N,Net-(R1-Pad1)*%
X67056000Y-43688000D03*
X73914000Y-43942000D03*
%TO.N,Net-(R2-Pad1)*%
X67056000Y-48768000D03*
X74168000Y-47498000D03*
%TO.N,/BOOT1*%
X64516000Y-70866000D03*
X69850000Y-65278000D03*
%TO.N,/BOOT0*%
X69850000Y-63754000D03*
X69596000Y-66802000D03*
X65786000Y-71120000D03*
%TD*%
D16*
%TO.N,+3V3*%
X76200000Y-47920000D02*
X74604801Y-47920000D01*
X74604801Y-47920000D02*
X69769800Y-52755001D01*
X62230000Y-62992000D02*
X63754000Y-64516000D01*
X63754000Y-64516000D02*
X68834000Y-64516000D01*
X59944000Y-62992000D02*
X62230000Y-62992000D01*
X58166000Y-73406000D02*
X58166000Y-64770000D01*
X58166000Y-64770000D02*
X59944000Y-62992000D01*
X73660000Y-74168000D02*
X74422000Y-73406000D01*
X74422000Y-73406000D02*
X74422000Y-68326000D01*
X70612000Y-64516000D02*
X68834000Y-64516000D01*
X74422000Y-68326000D02*
X70612000Y-64516000D01*
X67056000Y-81788000D02*
X72136000Y-81788000D01*
X72136000Y-81788000D02*
X73152000Y-80772000D01*
X73152000Y-74676000D02*
X73660000Y-74168000D01*
X73152000Y-80772000D02*
X73152000Y-74676000D01*
X53340000Y-91100000D02*
X54696000Y-91100000D01*
X54696000Y-91100000D02*
X57150000Y-88646000D01*
X57150000Y-88646000D02*
X62230000Y-88646000D01*
X67056000Y-83820000D02*
X67056000Y-81788000D01*
X62230000Y-88646000D02*
X67056000Y-83820000D01*
%TO.N,GND*%
X70358000Y-73152000D02*
X72644000Y-73152000D01*
X72644000Y-73152000D02*
X73660000Y-72136000D01*
X73660000Y-72136000D02*
X73817000Y-72136000D01*
%TO.N,/USB_D+*%
X72390000Y-41656000D02*
X72390000Y-44958000D01*
X72390000Y-44958000D02*
X69088000Y-48260000D01*
%TO.N,Net-(C9-Pad1)*%
X63246000Y-47752000D02*
X62387000Y-47752000D01*
X62387000Y-47752000D02*
X59847000Y-50292000D01*
%TO.N,/RESET*%
X64262000Y-72136000D02*
X64262000Y-80264000D01*
X64262000Y-80264000D02*
X64262000Y-81788000D01*
X64262000Y-81788000D02*
X66040000Y-83566000D01*
X53340000Y-88560000D02*
X53762000Y-88138000D01*
X61468000Y-88138000D02*
X66040000Y-83566000D01*
X53762000Y-88138000D02*
X61468000Y-88138000D01*
%TO.N,/OSCIN*%
X63581294Y-70657623D02*
X63581294Y-79928706D01*
X63581294Y-79928706D02*
X62992000Y-80518000D01*
%TO.N,/OSCOUT*%
X62976294Y-71454645D02*
X62976294Y-79263706D01*
X62976294Y-79263706D02*
X61722000Y-80518000D01*
X61722000Y-80518000D02*
X60452000Y-80518000D01*
%TO.N,/PA3*%
X59182000Y-72644000D02*
X60706000Y-72644000D01*
X60706000Y-72644000D02*
X61243225Y-73181225D01*
%TO.N,/TXD_USB*%
X67564000Y-74168000D02*
X71882000Y-69850000D01*
X71882000Y-69850000D02*
X71882000Y-66802000D01*
X70866000Y-57404000D02*
X65104200Y-51642200D01*
X65104200Y-51642200D02*
X62911800Y-51642200D01*
%TO.N,/RXD_USB*%
X66548000Y-74676000D02*
X66548000Y-73660000D01*
X66548000Y-73660000D02*
X69850000Y-70358000D01*
X69850000Y-70358000D02*
X70866000Y-69342000D01*
X70866000Y-69342000D02*
X70866000Y-66548000D01*
X69342000Y-57404000D02*
X64516000Y-52578000D01*
X64516000Y-52578000D02*
X64262000Y-52324000D01*
X62698198Y-52324000D02*
X62230000Y-51855802D01*
X64262000Y-52324000D02*
X62698198Y-52324000D01*
X62230000Y-51855802D02*
X62230000Y-51428598D01*
X62230000Y-51428598D02*
X62230000Y-50800000D01*
X62230000Y-50800000D02*
X64262000Y-48768000D01*
%TO.N,/PB14*%
X76200000Y-91100000D02*
X70612000Y-85512000D01*
X70612000Y-85512000D02*
X70612000Y-82550000D01*
%TO.N,/PB13*%
X76200000Y-93640000D02*
X69342000Y-86782000D01*
X69342000Y-86782000D02*
X69342000Y-82550000D01*
%TO.N,/PB12*%
X76200000Y-96180000D02*
X68326000Y-88306000D01*
X68326000Y-88306000D02*
X68326000Y-82804000D01*
%TO.N,/SWCLK*%
X64867000Y-79248000D02*
X72390000Y-79248000D01*
X67142000Y-97282000D02*
X66040000Y-96180000D01*
X77216000Y-97282000D02*
X67142000Y-97282000D01*
X77470000Y-97028000D02*
X77216000Y-97282000D01*
X77470000Y-79756000D02*
X77470000Y-97028000D01*
%TO.N,Net-(R1-Pad1)*%
X67056000Y-43688000D02*
X68379232Y-43688000D01*
X68379232Y-43688000D02*
X69088000Y-43688000D01*
X69088000Y-43688000D02*
X72136000Y-40640000D01*
X72136000Y-40640000D02*
X72898000Y-40640000D01*
X72898000Y-40640000D02*
X73914000Y-41656000D01*
X73914000Y-41656000D02*
X73914000Y-43942000D01*
%TO.N,Net-(R2-Pad1)*%
X67056000Y-48768000D02*
X67455999Y-49167999D01*
X72498001Y-49167999D02*
X74168000Y-47498000D01*
X67455999Y-49167999D02*
X72498001Y-49167999D01*
%TO.N,/BOOT1*%
X64516000Y-70866000D02*
X69850000Y-65532000D01*
X69850000Y-65532000D02*
X69850000Y-65278000D01*
%TO.N,/BOOT0*%
X62230000Y-60452000D02*
X63500000Y-61722000D01*
X63500000Y-61722000D02*
X68072000Y-61722000D01*
X68072000Y-61722000D02*
X68326000Y-61722000D01*
X68326000Y-61722000D02*
X69850000Y-63246000D01*
X69850000Y-63246000D02*
X69850000Y-63754000D01*
X69596000Y-66802000D02*
X65786000Y-70612000D01*
X65786000Y-70612000D02*
X65786000Y-71120000D01*
%TD*%
D17*
%TO.N,GND*%
G36*
X60721479Y-36317163D02*
G01*
X60587706Y-36514620D01*
X60495026Y-36734381D01*
X60447000Y-36968000D01*
X60447000Y-37293000D01*
X61530000Y-37293000D01*
X61530000Y-37273000D01*
X61784000Y-37273000D01*
X61784000Y-37293000D01*
X62867000Y-37293000D01*
X62867000Y-36968000D01*
X62818974Y-36734381D01*
X62726294Y-36514620D01*
X62592521Y-36317163D01*
X62494106Y-36220000D01*
X68569894Y-36220000D01*
X68471479Y-36317163D01*
X68337706Y-36514620D01*
X68245026Y-36734381D01*
X68197000Y-36968000D01*
X68197000Y-37293000D01*
X69280000Y-37293000D01*
X69280000Y-37273000D01*
X69534000Y-37273000D01*
X69534000Y-37293000D01*
X70617000Y-37293000D01*
X70617000Y-36968000D01*
X70568974Y-36734381D01*
X70476294Y-36514620D01*
X70342521Y-36317163D01*
X70244106Y-36220000D01*
X78080001Y-36220000D01*
X78080000Y-78918805D01*
X77960256Y-78838795D01*
X77771898Y-78760774D01*
X77647262Y-78735982D01*
X77685000Y-78546260D01*
X77685000Y-78253740D01*
X77627932Y-77966842D01*
X77515990Y-77696589D01*
X77353475Y-77453368D01*
X77146632Y-77246525D01*
X76972240Y-77130000D01*
X77146632Y-77013475D01*
X77353475Y-76806632D01*
X77515990Y-76563411D01*
X77627932Y-76293158D01*
X77685000Y-76006260D01*
X77685000Y-75713740D01*
X77627932Y-75426842D01*
X77515990Y-75156589D01*
X77353475Y-74913368D01*
X77146632Y-74706525D01*
X76972240Y-74590000D01*
X77146632Y-74473475D01*
X77353475Y-74266632D01*
X77515990Y-74023411D01*
X77627932Y-73753158D01*
X77685000Y-73466260D01*
X77685000Y-73173740D01*
X77627932Y-72886842D01*
X77515990Y-72616589D01*
X77353475Y-72373368D01*
X77146632Y-72166525D01*
X76972240Y-72050000D01*
X77146632Y-71933475D01*
X77353475Y-71726632D01*
X77515990Y-71483411D01*
X77627932Y-71213158D01*
X77685000Y-70926260D01*
X77685000Y-70633740D01*
X77627932Y-70346842D01*
X77515990Y-70076589D01*
X77353475Y-69833368D01*
X77146632Y-69626525D01*
X76972240Y-69510000D01*
X77146632Y-69393475D01*
X77353475Y-69186632D01*
X77515990Y-68943411D01*
X77627932Y-68673158D01*
X77685000Y-68386260D01*
X77685000Y-68093740D01*
X77627932Y-67806842D01*
X77515990Y-67536589D01*
X77353475Y-67293368D01*
X77146632Y-67086525D01*
X76972240Y-66970000D01*
X77146632Y-66853475D01*
X77353475Y-66646632D01*
X77515990Y-66403411D01*
X77627932Y-66133158D01*
X77685000Y-65846260D01*
X77685000Y-65553740D01*
X77627932Y-65266842D01*
X77515990Y-64996589D01*
X77353475Y-64753368D01*
X77146632Y-64546525D01*
X76972240Y-64430000D01*
X77146632Y-64313475D01*
X77353475Y-64106632D01*
X77515990Y-63863411D01*
X77627932Y-63593158D01*
X77685000Y-63306260D01*
X77685000Y-63013740D01*
X77627932Y-62726842D01*
X77515990Y-62456589D01*
X77353475Y-62213368D01*
X77146632Y-62006525D01*
X76972240Y-61890000D01*
X77146632Y-61773475D01*
X77353475Y-61566632D01*
X77515990Y-61323411D01*
X77627932Y-61053158D01*
X77685000Y-60766260D01*
X77685000Y-60473740D01*
X77627932Y-60186842D01*
X77515990Y-59916589D01*
X77353475Y-59673368D01*
X77146632Y-59466525D01*
X76972240Y-59350000D01*
X77146632Y-59233475D01*
X77353475Y-59026632D01*
X77515990Y-58783411D01*
X77627932Y-58513158D01*
X77685000Y-58226260D01*
X77685000Y-57933740D01*
X77627932Y-57646842D01*
X77515990Y-57376589D01*
X77353475Y-57133368D01*
X77146632Y-56926525D01*
X76972240Y-56810000D01*
X77146632Y-56693475D01*
X77353475Y-56486632D01*
X77515990Y-56243411D01*
X77627932Y-55973158D01*
X77685000Y-55686260D01*
X77685000Y-55393740D01*
X77627932Y-55106842D01*
X77515990Y-54836589D01*
X77353475Y-54593368D01*
X77146632Y-54386525D01*
X76972240Y-54270000D01*
X77146632Y-54153475D01*
X77353475Y-53946632D01*
X77515990Y-53703411D01*
X77627932Y-53433158D01*
X77685000Y-53146260D01*
X77685000Y-52853740D01*
X77627932Y-52566842D01*
X77515990Y-52296589D01*
X77353475Y-52053368D01*
X77146632Y-51846525D01*
X76964466Y-51724805D01*
X77081355Y-51655178D01*
X77297588Y-51460269D01*
X77471641Y-51226920D01*
X77596825Y-50964099D01*
X77641476Y-50816890D01*
X77520155Y-50587000D01*
X76327000Y-50587000D01*
X76327000Y-50607000D01*
X76073000Y-50607000D01*
X76073000Y-50587000D01*
X74879845Y-50587000D01*
X74758524Y-50816890D01*
X74803175Y-50964099D01*
X74928359Y-51226920D01*
X75102412Y-51460269D01*
X75318645Y-51655178D01*
X75435534Y-51724805D01*
X75253368Y-51846525D01*
X75046525Y-52053368D01*
X74884010Y-52296589D01*
X74772068Y-52566842D01*
X74715000Y-52853740D01*
X74715000Y-53146260D01*
X74772068Y-53433158D01*
X74884010Y-53703411D01*
X75046525Y-53946632D01*
X75253368Y-54153475D01*
X75427760Y-54270000D01*
X75253368Y-54386525D01*
X75046525Y-54593368D01*
X74884010Y-54836589D01*
X74772068Y-55106842D01*
X74715000Y-55393740D01*
X74715000Y-55686260D01*
X74772068Y-55973158D01*
X74884010Y-56243411D01*
X75046525Y-56486632D01*
X75253368Y-56693475D01*
X75427760Y-56810000D01*
X75253368Y-56926525D01*
X75046525Y-57133368D01*
X74884010Y-57376589D01*
X74772068Y-57646842D01*
X74715000Y-57933740D01*
X74715000Y-58226260D01*
X74772068Y-58513158D01*
X74884010Y-58783411D01*
X75046525Y-59026632D01*
X75253368Y-59233475D01*
X75427760Y-59350000D01*
X75253368Y-59466525D01*
X75046525Y-59673368D01*
X74884010Y-59916589D01*
X74772068Y-60186842D01*
X74715000Y-60473740D01*
X74715000Y-60766260D01*
X74772068Y-61053158D01*
X74884010Y-61323411D01*
X75046525Y-61566632D01*
X75253368Y-61773475D01*
X75427760Y-61890000D01*
X75253368Y-62006525D01*
X75046525Y-62213368D01*
X74884010Y-62456589D01*
X74772068Y-62726842D01*
X74715000Y-63013740D01*
X74715000Y-63306260D01*
X74772068Y-63593158D01*
X74884010Y-63863411D01*
X75046525Y-64106632D01*
X75253368Y-64313475D01*
X75427760Y-64430000D01*
X75253368Y-64546525D01*
X75046525Y-64753368D01*
X74884010Y-64996589D01*
X74772068Y-65266842D01*
X74715000Y-65553740D01*
X74715000Y-65846260D01*
X74772068Y-66133158D01*
X74884010Y-66403411D01*
X75046525Y-66646632D01*
X75253368Y-66853475D01*
X75427760Y-66970000D01*
X75253368Y-67086525D01*
X75046525Y-67293368D01*
X74884010Y-67536589D01*
X74832280Y-67661478D01*
X71175804Y-64005003D01*
X71152001Y-63975999D01*
X71036276Y-63881026D01*
X70904247Y-63810454D01*
X70885000Y-63804616D01*
X70885000Y-63652061D01*
X70845226Y-63452102D01*
X70767205Y-63263744D01*
X70653937Y-63094226D01*
X70573869Y-63014158D01*
X70555546Y-62953753D01*
X70484974Y-62821724D01*
X70471811Y-62805685D01*
X70413799Y-62734996D01*
X70413795Y-62734992D01*
X70390001Y-62705999D01*
X70361009Y-62682206D01*
X68889803Y-61211002D01*
X68866001Y-61181999D01*
X68750276Y-61087026D01*
X68668352Y-61043236D01*
X68751481Y-60808891D01*
X68630814Y-60579000D01*
X67437000Y-60579000D01*
X67437000Y-60599000D01*
X67183000Y-60599000D01*
X67183000Y-60579000D01*
X67163000Y-60579000D01*
X67163000Y-60325000D01*
X67183000Y-60325000D01*
X67183000Y-59131845D01*
X67437000Y-59131845D01*
X67437000Y-60325000D01*
X68630814Y-60325000D01*
X68751481Y-60095109D01*
X68654157Y-59820748D01*
X68505178Y-59570645D01*
X68310269Y-59354412D01*
X68076920Y-59180359D01*
X67814099Y-59055175D01*
X67666890Y-59010524D01*
X67437000Y-59131845D01*
X67183000Y-59131845D01*
X66953110Y-59010524D01*
X66805901Y-59055175D01*
X66543080Y-59180359D01*
X66309731Y-59354412D01*
X66114822Y-59570645D01*
X66045195Y-59687534D01*
X65923475Y-59505368D01*
X65716632Y-59298525D01*
X65473411Y-59136010D01*
X65203158Y-59024068D01*
X64916260Y-58967000D01*
X64623740Y-58967000D01*
X64336842Y-59024068D01*
X64066589Y-59136010D01*
X63823368Y-59298525D01*
X63616525Y-59505368D01*
X63500000Y-59679760D01*
X63383475Y-59505368D01*
X63176632Y-59298525D01*
X62933411Y-59136010D01*
X62663158Y-59024068D01*
X62376260Y-58967000D01*
X62083740Y-58967000D01*
X61796842Y-59024068D01*
X61526589Y-59136010D01*
X61283368Y-59298525D01*
X61076525Y-59505368D01*
X60914010Y-59748589D01*
X60802068Y-60018842D01*
X60745000Y-60305740D01*
X60745000Y-60598260D01*
X60802068Y-60885158D01*
X60914010Y-61155411D01*
X61076525Y-61398632D01*
X61208380Y-61530487D01*
X61135820Y-61552498D01*
X61025506Y-61611463D01*
X60928815Y-61690815D01*
X60849463Y-61787506D01*
X60790498Y-61897820D01*
X60754188Y-62017518D01*
X60741928Y-62142000D01*
X60741928Y-62232000D01*
X59981325Y-62232000D01*
X59944000Y-62228324D01*
X59906675Y-62232000D01*
X59906667Y-62232000D01*
X59795014Y-62242997D01*
X59651753Y-62286454D01*
X59519724Y-62357026D01*
X59403999Y-62451999D01*
X59380201Y-62480997D01*
X57654998Y-64206201D01*
X57626000Y-64229999D01*
X57602202Y-64258997D01*
X57602201Y-64258998D01*
X57531026Y-64345724D01*
X57460454Y-64477754D01*
X57416998Y-64621015D01*
X57402324Y-64770000D01*
X57406001Y-64807332D01*
X57406000Y-72702289D01*
X57362063Y-72746226D01*
X57248795Y-72915744D01*
X57170774Y-73104102D01*
X57131000Y-73304061D01*
X57131000Y-73507939D01*
X57170774Y-73707898D01*
X57248795Y-73896256D01*
X57362063Y-74065774D01*
X57506226Y-74209937D01*
X57675744Y-74323205D01*
X57864102Y-74401226D01*
X58064061Y-74441000D01*
X58267939Y-74441000D01*
X58467898Y-74401226D01*
X58656256Y-74323205D01*
X58825774Y-74209937D01*
X58969937Y-74065774D01*
X59083205Y-73896256D01*
X59161226Y-73707898D01*
X59166974Y-73679000D01*
X59283939Y-73679000D01*
X59483898Y-73639226D01*
X59672256Y-73561205D01*
X59841774Y-73447937D01*
X59885711Y-73404000D01*
X60232261Y-73404000D01*
X60247999Y-73483123D01*
X60326020Y-73671481D01*
X60439288Y-73840999D01*
X60583451Y-73985162D01*
X60752969Y-74098430D01*
X60941327Y-74176451D01*
X61141286Y-74216225D01*
X61345164Y-74216225D01*
X61545123Y-74176451D01*
X61733481Y-74098430D01*
X61902999Y-73985162D01*
X62047162Y-73840999D01*
X62160430Y-73671481D01*
X62216294Y-73536614D01*
X62216295Y-78948903D01*
X61407199Y-79758000D01*
X61155711Y-79758000D01*
X61111774Y-79714063D01*
X60942256Y-79600795D01*
X60753898Y-79522774D01*
X60553939Y-79483000D01*
X60350061Y-79483000D01*
X60150102Y-79522774D01*
X59961744Y-79600795D01*
X59792226Y-79714063D01*
X59648063Y-79858226D01*
X59534795Y-80027744D01*
X59456774Y-80216102D01*
X59417000Y-80416061D01*
X59417000Y-80619939D01*
X59456774Y-80819898D01*
X59534795Y-81008256D01*
X59648063Y-81177774D01*
X59792226Y-81321937D01*
X59961744Y-81435205D01*
X60150102Y-81513226D01*
X60350061Y-81553000D01*
X60553939Y-81553000D01*
X60753898Y-81513226D01*
X60942256Y-81435205D01*
X61111774Y-81321937D01*
X61155711Y-81278000D01*
X61684678Y-81278000D01*
X61722000Y-81281676D01*
X61759322Y-81278000D01*
X61759333Y-81278000D01*
X61870986Y-81267003D01*
X62014247Y-81223546D01*
X62146276Y-81152974D01*
X62162562Y-81139609D01*
X62188063Y-81177774D01*
X62332226Y-81321937D01*
X62501744Y-81435205D01*
X62690102Y-81513226D01*
X62890061Y-81553000D01*
X63093939Y-81553000D01*
X63293898Y-81513226D01*
X63482256Y-81435205D01*
X63502001Y-81422012D01*
X63502001Y-81750667D01*
X63498324Y-81788000D01*
X63502001Y-81825333D01*
X63508393Y-81890226D01*
X63512998Y-81936985D01*
X63556454Y-82080246D01*
X63627026Y-82212276D01*
X63681175Y-82278256D01*
X63722000Y-82328001D01*
X63750998Y-82351799D01*
X64965198Y-83565999D01*
X61153199Y-87378000D01*
X54243941Y-87378000D01*
X54112240Y-87290000D01*
X54286632Y-87173475D01*
X54493475Y-86966632D01*
X54655990Y-86723411D01*
X54767932Y-86453158D01*
X54825000Y-86166260D01*
X54825000Y-85873740D01*
X54767932Y-85586842D01*
X54655990Y-85316589D01*
X54493475Y-85073368D01*
X54286632Y-84866525D01*
X54112240Y-84750000D01*
X54286632Y-84633475D01*
X54493475Y-84426632D01*
X54655990Y-84183411D01*
X54767932Y-83913158D01*
X54825000Y-83626260D01*
X54825000Y-83333740D01*
X54767932Y-83046842D01*
X54655990Y-82776589D01*
X54493475Y-82533368D01*
X54286632Y-82326525D01*
X54112240Y-82210000D01*
X54286632Y-82093475D01*
X54493475Y-81886632D01*
X54655990Y-81643411D01*
X54767932Y-81373158D01*
X54825000Y-81086260D01*
X54825000Y-80793740D01*
X54767932Y-80506842D01*
X54655990Y-80236589D01*
X54493475Y-79993368D01*
X54286632Y-79786525D01*
X54112240Y-79670000D01*
X54286632Y-79553475D01*
X54493475Y-79346632D01*
X54655990Y-79103411D01*
X54767932Y-78833158D01*
X54825000Y-78546260D01*
X54825000Y-78253740D01*
X54767932Y-77966842D01*
X54655990Y-77696589D01*
X54493475Y-77453368D01*
X54286632Y-77246525D01*
X54112240Y-77130000D01*
X54286632Y-77013475D01*
X54493475Y-76806632D01*
X54655990Y-76563411D01*
X54767932Y-76293158D01*
X54825000Y-76006260D01*
X54825000Y-75713740D01*
X54767932Y-75426842D01*
X54655990Y-75156589D01*
X54493475Y-74913368D01*
X54286632Y-74706525D01*
X54112240Y-74590000D01*
X54286632Y-74473475D01*
X54493475Y-74266632D01*
X54655990Y-74023411D01*
X54767932Y-73753158D01*
X54825000Y-73466260D01*
X54825000Y-73173740D01*
X54767932Y-72886842D01*
X54655990Y-72616589D01*
X54493475Y-72373368D01*
X54286632Y-72166525D01*
X54112240Y-72050000D01*
X54286632Y-71933475D01*
X54493475Y-71726632D01*
X54655990Y-71483411D01*
X54767932Y-71213158D01*
X54825000Y-70926260D01*
X54825000Y-70633740D01*
X54767932Y-70346842D01*
X54655990Y-70076589D01*
X54493475Y-69833368D01*
X54286632Y-69626525D01*
X54112240Y-69510000D01*
X54286632Y-69393475D01*
X54493475Y-69186632D01*
X54655990Y-68943411D01*
X54767932Y-68673158D01*
X54825000Y-68386260D01*
X54825000Y-68093740D01*
X54767932Y-67806842D01*
X54655990Y-67536589D01*
X54493475Y-67293368D01*
X54286632Y-67086525D01*
X54112240Y-66970000D01*
X54286632Y-66853475D01*
X54493475Y-66646632D01*
X54655990Y-66403411D01*
X54767932Y-66133158D01*
X54825000Y-65846260D01*
X54825000Y-65553740D01*
X54767932Y-65266842D01*
X54655990Y-64996589D01*
X54493475Y-64753368D01*
X54286632Y-64546525D01*
X54112240Y-64430000D01*
X54286632Y-64313475D01*
X54493475Y-64106632D01*
X54655990Y-63863411D01*
X54767932Y-63593158D01*
X54825000Y-63306260D01*
X54825000Y-63013740D01*
X54767932Y-62726842D01*
X54655990Y-62456589D01*
X54493475Y-62213368D01*
X54286632Y-62006525D01*
X54112240Y-61890000D01*
X54286632Y-61773475D01*
X54493475Y-61566632D01*
X54655990Y-61323411D01*
X54767932Y-61053158D01*
X54825000Y-60766260D01*
X54825000Y-60473740D01*
X54767932Y-60186842D01*
X54655990Y-59916589D01*
X54493475Y-59673368D01*
X54286632Y-59466525D01*
X54112240Y-59350000D01*
X54286632Y-59233475D01*
X54493475Y-59026632D01*
X54655990Y-58783411D01*
X54767932Y-58513158D01*
X54825000Y-58226260D01*
X54825000Y-57933740D01*
X54767932Y-57646842D01*
X54655990Y-57376589D01*
X54493475Y-57133368D01*
X54286632Y-56926525D01*
X54112240Y-56810000D01*
X54286632Y-56693475D01*
X54493475Y-56486632D01*
X54655990Y-56243411D01*
X54767932Y-55973158D01*
X54825000Y-55686260D01*
X54825000Y-55393740D01*
X54767932Y-55106842D01*
X54655990Y-54836589D01*
X54493475Y-54593368D01*
X54286632Y-54386525D01*
X54112240Y-54270000D01*
X54286632Y-54153475D01*
X54493475Y-53946632D01*
X54655990Y-53703411D01*
X54767932Y-53433158D01*
X54825000Y-53146260D01*
X54825000Y-52853740D01*
X54767932Y-52566842D01*
X54655990Y-52296589D01*
X54493475Y-52053368D01*
X54286632Y-51846525D01*
X54112240Y-51730000D01*
X54286632Y-51613475D01*
X54493475Y-51406632D01*
X54655990Y-51163411D01*
X54767932Y-50893158D01*
X54825000Y-50606260D01*
X54825000Y-50313740D01*
X54800399Y-50190061D01*
X58812000Y-50190061D01*
X58812000Y-50393939D01*
X58851774Y-50593898D01*
X58929795Y-50782256D01*
X59043063Y-50951774D01*
X59187226Y-51095937D01*
X59356744Y-51209205D01*
X59545102Y-51287226D01*
X59745061Y-51327000D01*
X59948939Y-51327000D01*
X60148898Y-51287226D01*
X60337256Y-51209205D01*
X60506774Y-51095937D01*
X60650937Y-50951774D01*
X60764205Y-50782256D01*
X60842226Y-50593898D01*
X60882000Y-50393939D01*
X60882000Y-50331801D01*
X62629171Y-48584632D01*
X62755744Y-48669205D01*
X62944102Y-48747226D01*
X63144061Y-48787000D01*
X63168198Y-48787000D01*
X61718998Y-50236201D01*
X61690000Y-50259999D01*
X61666202Y-50288997D01*
X61666201Y-50288998D01*
X61595026Y-50375724D01*
X61560143Y-50440985D01*
X61524454Y-50507753D01*
X61480997Y-50651014D01*
X61470000Y-50762667D01*
X61470000Y-50762678D01*
X61466324Y-50800000D01*
X61470000Y-50837322D01*
X61470000Y-51818480D01*
X61466324Y-51855802D01*
X61470000Y-51893124D01*
X61470000Y-51893134D01*
X61480997Y-52004787D01*
X61519724Y-52132456D01*
X61524454Y-52148048D01*
X61595026Y-52280078D01*
X61612996Y-52301974D01*
X61689999Y-52395803D01*
X61719003Y-52419606D01*
X62134394Y-52834997D01*
X62158197Y-52864001D01*
X62206919Y-52903986D01*
X62273921Y-52958974D01*
X62354931Y-53002275D01*
X62405951Y-53029546D01*
X62549212Y-53073003D01*
X62660865Y-53084000D01*
X62660875Y-53084000D01*
X62698198Y-53087676D01*
X62735521Y-53084000D01*
X63947199Y-53084000D01*
X63952201Y-53089002D01*
X68307000Y-57443802D01*
X68307000Y-57505939D01*
X68346774Y-57705898D01*
X68424795Y-57894256D01*
X68538063Y-58063774D01*
X68682226Y-58207937D01*
X68851744Y-58321205D01*
X69040102Y-58399226D01*
X69240061Y-58439000D01*
X69443939Y-58439000D01*
X69643898Y-58399226D01*
X69832256Y-58321205D01*
X70001774Y-58207937D01*
X70104000Y-58105711D01*
X70206226Y-58207937D01*
X70375744Y-58321205D01*
X70564102Y-58399226D01*
X70764061Y-58439000D01*
X70967939Y-58439000D01*
X71167898Y-58399226D01*
X71356256Y-58321205D01*
X71525774Y-58207937D01*
X71669937Y-58063774D01*
X71783205Y-57894256D01*
X71861226Y-57705898D01*
X71901000Y-57505939D01*
X71901000Y-57302061D01*
X71861226Y-57102102D01*
X71783205Y-56913744D01*
X71669937Y-56744226D01*
X71525774Y-56600063D01*
X71356256Y-56486795D01*
X71167898Y-56408774D01*
X70967939Y-56369000D01*
X70905802Y-56369000D01*
X65668004Y-51131203D01*
X65644201Y-51102199D01*
X65528476Y-51007226D01*
X65396447Y-50936654D01*
X65253186Y-50893197D01*
X65141533Y-50882200D01*
X65141522Y-50882200D01*
X65104200Y-50878524D01*
X65066878Y-50882200D01*
X63615511Y-50882200D01*
X63571574Y-50838263D01*
X63402056Y-50724995D01*
X63386323Y-50718478D01*
X64301802Y-49803000D01*
X64363939Y-49803000D01*
X64563898Y-49763226D01*
X64752256Y-49685205D01*
X64921774Y-49571937D01*
X65065937Y-49427774D01*
X65179205Y-49258256D01*
X65257226Y-49069898D01*
X65297000Y-48869939D01*
X65297000Y-48666061D01*
X65257226Y-48466102D01*
X65179205Y-48277744D01*
X65065937Y-48108226D01*
X64921774Y-47964063D01*
X64752256Y-47850795D01*
X64563898Y-47772774D01*
X64363939Y-47733000D01*
X64281000Y-47733000D01*
X64281000Y-47650061D01*
X64241226Y-47450102D01*
X64163205Y-47261744D01*
X64049937Y-47092226D01*
X63905774Y-46948063D01*
X63736256Y-46834795D01*
X63547898Y-46756774D01*
X63347939Y-46717000D01*
X63144061Y-46717000D01*
X62944102Y-46756774D01*
X62755744Y-46834795D01*
X62586226Y-46948063D01*
X62542289Y-46992000D01*
X62424322Y-46992000D01*
X62386999Y-46988324D01*
X62349676Y-46992000D01*
X62349667Y-46992000D01*
X62238014Y-47002997D01*
X62094753Y-47046454D01*
X61962724Y-47117026D01*
X61962722Y-47117027D01*
X61962723Y-47117027D01*
X61875996Y-47188201D01*
X61875992Y-47188205D01*
X61846999Y-47211999D01*
X61823205Y-47240992D01*
X59807199Y-49257000D01*
X59745061Y-49257000D01*
X59545102Y-49296774D01*
X59356744Y-49374795D01*
X59187226Y-49488063D01*
X59043063Y-49632226D01*
X58929795Y-49801744D01*
X58851774Y-49990102D01*
X58812000Y-50190061D01*
X54800399Y-50190061D01*
X54767932Y-50026842D01*
X54655990Y-49756589D01*
X54493475Y-49513368D01*
X54361620Y-49381513D01*
X54434180Y-49359502D01*
X54544494Y-49300537D01*
X54641185Y-49221185D01*
X54720537Y-49124494D01*
X54779502Y-49014180D01*
X54815812Y-48894482D01*
X54828072Y-48770000D01*
X54828072Y-47070000D01*
X54815812Y-46945518D01*
X54779502Y-46825820D01*
X54720537Y-46715506D01*
X54641185Y-46618815D01*
X54544494Y-46539463D01*
X54434180Y-46480498D01*
X54314482Y-46444188D01*
X54190000Y-46431928D01*
X52490000Y-46431928D01*
X52365518Y-46444188D01*
X52245820Y-46480498D01*
X52135506Y-46539463D01*
X52038815Y-46618815D01*
X51959463Y-46715506D01*
X51900498Y-46825820D01*
X51864188Y-46945518D01*
X51851928Y-47070000D01*
X51851928Y-48770000D01*
X51864188Y-48894482D01*
X51900498Y-49014180D01*
X51959463Y-49124494D01*
X52038815Y-49221185D01*
X52135506Y-49300537D01*
X52245820Y-49359502D01*
X52318380Y-49381513D01*
X52186525Y-49513368D01*
X52024010Y-49756589D01*
X51912068Y-50026842D01*
X51855000Y-50313740D01*
X51855000Y-50606260D01*
X51912068Y-50893158D01*
X52024010Y-51163411D01*
X52186525Y-51406632D01*
X52393368Y-51613475D01*
X52567760Y-51730000D01*
X52393368Y-51846525D01*
X52186525Y-52053368D01*
X52024010Y-52296589D01*
X51912068Y-52566842D01*
X51855000Y-52853740D01*
X51855000Y-53146260D01*
X51912068Y-53433158D01*
X52024010Y-53703411D01*
X52186525Y-53946632D01*
X52393368Y-54153475D01*
X52567760Y-54270000D01*
X52393368Y-54386525D01*
X52186525Y-54593368D01*
X52024010Y-54836589D01*
X51912068Y-55106842D01*
X51855000Y-55393740D01*
X51855000Y-55686260D01*
X51912068Y-55973158D01*
X52024010Y-56243411D01*
X52186525Y-56486632D01*
X52393368Y-56693475D01*
X52567760Y-56810000D01*
X52393368Y-56926525D01*
X52186525Y-57133368D01*
X52024010Y-57376589D01*
X51912068Y-57646842D01*
X51855000Y-57933740D01*
X51855000Y-58226260D01*
X51912068Y-58513158D01*
X52024010Y-58783411D01*
X52186525Y-59026632D01*
X52393368Y-59233475D01*
X52567760Y-59350000D01*
X52393368Y-59466525D01*
X52186525Y-59673368D01*
X52024010Y-59916589D01*
X51912068Y-60186842D01*
X51855000Y-60473740D01*
X51855000Y-60766260D01*
X51912068Y-61053158D01*
X52024010Y-61323411D01*
X52186525Y-61566632D01*
X52393368Y-61773475D01*
X52567760Y-61890000D01*
X52393368Y-62006525D01*
X52186525Y-62213368D01*
X52024010Y-62456589D01*
X51912068Y-62726842D01*
X51855000Y-63013740D01*
X51855000Y-63306260D01*
X51912068Y-63593158D01*
X52024010Y-63863411D01*
X52186525Y-64106632D01*
X52393368Y-64313475D01*
X52567760Y-64430000D01*
X52393368Y-64546525D01*
X52186525Y-64753368D01*
X52024010Y-64996589D01*
X51912068Y-65266842D01*
X51855000Y-65553740D01*
X51855000Y-65846260D01*
X51912068Y-66133158D01*
X52024010Y-66403411D01*
X52186525Y-66646632D01*
X52393368Y-66853475D01*
X52567760Y-66970000D01*
X52393368Y-67086525D01*
X52186525Y-67293368D01*
X52024010Y-67536589D01*
X51912068Y-67806842D01*
X51855000Y-68093740D01*
X51855000Y-68386260D01*
X51912068Y-68673158D01*
X52024010Y-68943411D01*
X52186525Y-69186632D01*
X52393368Y-69393475D01*
X52567760Y-69510000D01*
X52393368Y-69626525D01*
X52186525Y-69833368D01*
X52024010Y-70076589D01*
X51912068Y-70346842D01*
X51855000Y-70633740D01*
X51855000Y-70926260D01*
X51912068Y-71213158D01*
X52024010Y-71483411D01*
X52186525Y-71726632D01*
X52393368Y-71933475D01*
X52567760Y-72050000D01*
X52393368Y-72166525D01*
X52186525Y-72373368D01*
X52024010Y-72616589D01*
X51912068Y-72886842D01*
X51855000Y-73173740D01*
X51855000Y-73466260D01*
X51912068Y-73753158D01*
X52024010Y-74023411D01*
X52186525Y-74266632D01*
X52393368Y-74473475D01*
X52567760Y-74590000D01*
X52393368Y-74706525D01*
X52186525Y-74913368D01*
X52024010Y-75156589D01*
X51912068Y-75426842D01*
X51855000Y-75713740D01*
X51855000Y-76006260D01*
X51912068Y-76293158D01*
X52024010Y-76563411D01*
X52186525Y-76806632D01*
X52393368Y-77013475D01*
X52567760Y-77130000D01*
X52393368Y-77246525D01*
X52186525Y-77453368D01*
X52024010Y-77696589D01*
X51912068Y-77966842D01*
X51855000Y-78253740D01*
X51855000Y-78546260D01*
X51912068Y-78833158D01*
X52024010Y-79103411D01*
X52186525Y-79346632D01*
X52393368Y-79553475D01*
X52567760Y-79670000D01*
X52393368Y-79786525D01*
X52186525Y-79993368D01*
X52024010Y-80236589D01*
X51912068Y-80506842D01*
X51855000Y-80793740D01*
X51855000Y-81086260D01*
X51912068Y-81373158D01*
X52024010Y-81643411D01*
X52186525Y-81886632D01*
X52393368Y-82093475D01*
X52567760Y-82210000D01*
X52393368Y-82326525D01*
X52186525Y-82533368D01*
X52024010Y-82776589D01*
X51912068Y-83046842D01*
X51855000Y-83333740D01*
X51855000Y-83626260D01*
X51912068Y-83913158D01*
X52024010Y-84183411D01*
X52186525Y-84426632D01*
X52393368Y-84633475D01*
X52567760Y-84750000D01*
X52393368Y-84866525D01*
X52186525Y-85073368D01*
X52024010Y-85316589D01*
X51912068Y-85586842D01*
X51855000Y-85873740D01*
X51855000Y-86166260D01*
X51912068Y-86453158D01*
X52024010Y-86723411D01*
X52186525Y-86966632D01*
X52393368Y-87173475D01*
X52567760Y-87290000D01*
X52393368Y-87406525D01*
X52186525Y-87613368D01*
X52024010Y-87856589D01*
X51912068Y-88126842D01*
X51855000Y-88413740D01*
X51855000Y-88706260D01*
X51912068Y-88993158D01*
X52024010Y-89263411D01*
X52186525Y-89506632D01*
X52393368Y-89713475D01*
X52567760Y-89830000D01*
X52393368Y-89946525D01*
X52186525Y-90153368D01*
X52024010Y-90396589D01*
X51912068Y-90666842D01*
X51855000Y-90953740D01*
X51855000Y-91246260D01*
X51912068Y-91533158D01*
X52024010Y-91803411D01*
X52186525Y-92046632D01*
X52393368Y-92253475D01*
X52575534Y-92375195D01*
X52458645Y-92444822D01*
X52242412Y-92639731D01*
X52068359Y-92873080D01*
X51943175Y-93135901D01*
X51898524Y-93283110D01*
X52019845Y-93513000D01*
X53213000Y-93513000D01*
X53213000Y-93493000D01*
X53467000Y-93493000D01*
X53467000Y-93513000D01*
X54660155Y-93513000D01*
X54781476Y-93283110D01*
X54736825Y-93135901D01*
X54611641Y-92873080D01*
X54437588Y-92639731D01*
X54221355Y-92444822D01*
X54104466Y-92375195D01*
X54286632Y-92253475D01*
X54493475Y-92046632D01*
X54618178Y-91860000D01*
X54658678Y-91860000D01*
X54696000Y-91863676D01*
X54733322Y-91860000D01*
X54733333Y-91860000D01*
X54844986Y-91849003D01*
X54988247Y-91805546D01*
X55120276Y-91734974D01*
X55236001Y-91640001D01*
X55259804Y-91610997D01*
X55567212Y-91303589D01*
X60845000Y-91303589D01*
X60845000Y-91576411D01*
X60898225Y-91843989D01*
X61002629Y-92096043D01*
X61154201Y-92322886D01*
X61347114Y-92515799D01*
X61573957Y-92667371D01*
X61826011Y-92771775D01*
X62093589Y-92825000D01*
X62366411Y-92825000D01*
X62633989Y-92771775D01*
X62886043Y-92667371D01*
X63112886Y-92515799D01*
X63305799Y-92322886D01*
X63457371Y-92096043D01*
X63561775Y-91843989D01*
X63615000Y-91576411D01*
X63615000Y-91303589D01*
X65725000Y-91303589D01*
X65725000Y-91576411D01*
X65778225Y-91843989D01*
X65882629Y-92096043D01*
X66034201Y-92322886D01*
X66227114Y-92515799D01*
X66453957Y-92667371D01*
X66706011Y-92771775D01*
X66973589Y-92825000D01*
X67246411Y-92825000D01*
X67513989Y-92771775D01*
X67766043Y-92667371D01*
X67992886Y-92515799D01*
X68185799Y-92322886D01*
X68337371Y-92096043D01*
X68441775Y-91843989D01*
X68495000Y-91576411D01*
X68495000Y-91303589D01*
X68441775Y-91036011D01*
X68337371Y-90783957D01*
X68185799Y-90557114D01*
X67992886Y-90364201D01*
X67766043Y-90212629D01*
X67513989Y-90108225D01*
X67246411Y-90055000D01*
X66973589Y-90055000D01*
X66706011Y-90108225D01*
X66453957Y-90212629D01*
X66227114Y-90364201D01*
X66034201Y-90557114D01*
X65882629Y-90783957D01*
X65778225Y-91036011D01*
X65725000Y-91303589D01*
X63615000Y-91303589D01*
X63561775Y-91036011D01*
X63457371Y-90783957D01*
X63305799Y-90557114D01*
X63112886Y-90364201D01*
X62886043Y-90212629D01*
X62633989Y-90108225D01*
X62366411Y-90055000D01*
X62093589Y-90055000D01*
X61826011Y-90108225D01*
X61573957Y-90212629D01*
X61347114Y-90364201D01*
X61154201Y-90557114D01*
X61002629Y-90783957D01*
X60898225Y-91036011D01*
X60845000Y-91303589D01*
X55567212Y-91303589D01*
X57464802Y-89406000D01*
X62192678Y-89406000D01*
X62230000Y-89409676D01*
X62267322Y-89406000D01*
X62267333Y-89406000D01*
X62378986Y-89395003D01*
X62522247Y-89351546D01*
X62654276Y-89280974D01*
X62770001Y-89186001D01*
X62793804Y-89156997D01*
X67566001Y-84384801D01*
X67566000Y-88268677D01*
X67562324Y-88306000D01*
X67566000Y-88343322D01*
X67566000Y-88343332D01*
X67576997Y-88454985D01*
X67609543Y-88562276D01*
X67620454Y-88598246D01*
X67691026Y-88730276D01*
X67726068Y-88772974D01*
X67785999Y-88846001D01*
X67815003Y-88869804D01*
X74758790Y-95813592D01*
X74715000Y-96033740D01*
X74715000Y-96326260D01*
X74753935Y-96522000D01*
X70065306Y-96522000D01*
X70065000Y-96465750D01*
X69906250Y-96307000D01*
X68707000Y-96307000D01*
X68707000Y-96327000D01*
X68453000Y-96327000D01*
X68453000Y-96307000D01*
X68433000Y-96307000D01*
X68433000Y-96053000D01*
X68453000Y-96053000D01*
X68453000Y-94853750D01*
X68707000Y-94853750D01*
X68707000Y-96053000D01*
X69906250Y-96053000D01*
X70065000Y-95894250D01*
X70068072Y-95330000D01*
X70055812Y-95205518D01*
X70019502Y-95085820D01*
X69960537Y-94975506D01*
X69881185Y-94878815D01*
X69784494Y-94799463D01*
X69674180Y-94740498D01*
X69554482Y-94704188D01*
X69430000Y-94691928D01*
X68865750Y-94695000D01*
X68707000Y-94853750D01*
X68453000Y-94853750D01*
X68294250Y-94695000D01*
X67730000Y-94691928D01*
X67605518Y-94704188D01*
X67485820Y-94740498D01*
X67375506Y-94799463D01*
X67278815Y-94878815D01*
X67199463Y-94975506D01*
X67140498Y-95085820D01*
X67118487Y-95158380D01*
X66986632Y-95026525D01*
X66743411Y-94864010D01*
X66473158Y-94752068D01*
X66186260Y-94695000D01*
X65893740Y-94695000D01*
X65606842Y-94752068D01*
X65336589Y-94864010D01*
X65093368Y-95026525D01*
X64886525Y-95233368D01*
X64770000Y-95407760D01*
X64653475Y-95233368D01*
X64446632Y-95026525D01*
X64203411Y-94864010D01*
X63933158Y-94752068D01*
X63646260Y-94695000D01*
X63353740Y-94695000D01*
X63066842Y-94752068D01*
X62796589Y-94864010D01*
X62553368Y-95026525D01*
X62346525Y-95233368D01*
X62230000Y-95407760D01*
X62113475Y-95233368D01*
X61906632Y-95026525D01*
X61663411Y-94864010D01*
X61393158Y-94752068D01*
X61106260Y-94695000D01*
X60813740Y-94695000D01*
X60526842Y-94752068D01*
X60256589Y-94864010D01*
X60013368Y-95026525D01*
X59806525Y-95233368D01*
X59644010Y-95476589D01*
X59532068Y-95746842D01*
X59475000Y-96033740D01*
X59475000Y-96326260D01*
X59532068Y-96613158D01*
X59644010Y-96883411D01*
X59806525Y-97126632D01*
X59809893Y-97130000D01*
X54475083Y-97130000D01*
X54611641Y-96946920D01*
X54736825Y-96684099D01*
X54781476Y-96536890D01*
X54660155Y-96307000D01*
X53467000Y-96307000D01*
X53467000Y-96327000D01*
X53213000Y-96327000D01*
X53213000Y-96307000D01*
X52019845Y-96307000D01*
X51898524Y-96536890D01*
X51943175Y-96684099D01*
X52068359Y-96946920D01*
X52204917Y-97130000D01*
X51460000Y-97130000D01*
X51460000Y-93996890D01*
X51898524Y-93996890D01*
X51943175Y-94144099D01*
X52068359Y-94406920D01*
X52242412Y-94640269D01*
X52458645Y-94835178D01*
X52584255Y-94910000D01*
X52458645Y-94984822D01*
X52242412Y-95179731D01*
X52068359Y-95413080D01*
X51943175Y-95675901D01*
X51898524Y-95823110D01*
X52019845Y-96053000D01*
X53213000Y-96053000D01*
X53213000Y-93767000D01*
X53467000Y-93767000D01*
X53467000Y-96053000D01*
X54660155Y-96053000D01*
X54781476Y-95823110D01*
X54736825Y-95675901D01*
X54611641Y-95413080D01*
X54437588Y-95179731D01*
X54221355Y-94984822D01*
X54095745Y-94910000D01*
X54221355Y-94835178D01*
X54437588Y-94640269D01*
X54611641Y-94406920D01*
X54736825Y-94144099D01*
X54781476Y-93996890D01*
X54660155Y-93767000D01*
X53467000Y-93767000D01*
X53213000Y-93767000D01*
X52019845Y-93767000D01*
X51898524Y-93996890D01*
X51460000Y-93996890D01*
X51460000Y-43586061D01*
X66021000Y-43586061D01*
X66021000Y-43789939D01*
X66060774Y-43989898D01*
X66138795Y-44178256D01*
X66252063Y-44347774D01*
X66396226Y-44491937D01*
X66565744Y-44605205D01*
X66754102Y-44683226D01*
X66954061Y-44723000D01*
X67157939Y-44723000D01*
X67357898Y-44683226D01*
X67546256Y-44605205D01*
X67715774Y-44491937D01*
X67759711Y-44448000D01*
X69050678Y-44448000D01*
X69088000Y-44451676D01*
X69125322Y-44448000D01*
X69125333Y-44448000D01*
X69236986Y-44437003D01*
X69380247Y-44393546D01*
X69512276Y-44322974D01*
X69628001Y-44228001D01*
X69651804Y-44198997D01*
X71565621Y-42285181D01*
X71586063Y-42315774D01*
X71630000Y-42359711D01*
X71630001Y-44643197D01*
X69048199Y-47225000D01*
X68986061Y-47225000D01*
X68786102Y-47264774D01*
X68597744Y-47342795D01*
X68428226Y-47456063D01*
X68284063Y-47600226D01*
X68170795Y-47769744D01*
X68092774Y-47958102D01*
X68053000Y-48158061D01*
X68053000Y-48361939D01*
X68062162Y-48407999D01*
X68027159Y-48407999D01*
X67973205Y-48277744D01*
X67859937Y-48108226D01*
X67715774Y-47964063D01*
X67546256Y-47850795D01*
X67357898Y-47772774D01*
X67157939Y-47733000D01*
X66954061Y-47733000D01*
X66754102Y-47772774D01*
X66565744Y-47850795D01*
X66396226Y-47964063D01*
X66252063Y-48108226D01*
X66138795Y-48277744D01*
X66060774Y-48466102D01*
X66021000Y-48666061D01*
X66021000Y-48869939D01*
X66060774Y-49069898D01*
X66138795Y-49258256D01*
X66252063Y-49427774D01*
X66396226Y-49571937D01*
X66565744Y-49685205D01*
X66754102Y-49763226D01*
X66954061Y-49803000D01*
X67031774Y-49803000D01*
X67163752Y-49873545D01*
X67307013Y-49917002D01*
X67418666Y-49927999D01*
X67418676Y-49927999D01*
X67455998Y-49931675D01*
X67493321Y-49927999D01*
X71522001Y-49927999D01*
X69729999Y-51720001D01*
X69667861Y-51720001D01*
X69467902Y-51759775D01*
X69279544Y-51837796D01*
X69110026Y-51951064D01*
X68965863Y-52095227D01*
X68852595Y-52264745D01*
X68774574Y-52453103D01*
X68734800Y-52653062D01*
X68734800Y-52856940D01*
X68774574Y-53056899D01*
X68852595Y-53245257D01*
X68965863Y-53414775D01*
X69110026Y-53558938D01*
X69279544Y-53672206D01*
X69467902Y-53750227D01*
X69667861Y-53790001D01*
X69871739Y-53790001D01*
X70071698Y-53750227D01*
X70260056Y-53672206D01*
X70429574Y-53558938D01*
X70573737Y-53414775D01*
X70687005Y-53245257D01*
X70765026Y-53056899D01*
X70804800Y-52856940D01*
X70804800Y-52794802D01*
X74722478Y-48877124D01*
X74724188Y-48894482D01*
X74760498Y-49014180D01*
X74819463Y-49124494D01*
X74898815Y-49221185D01*
X74995506Y-49300537D01*
X75105820Y-49359502D01*
X75186466Y-49383966D01*
X75102412Y-49459731D01*
X74928359Y-49693080D01*
X74803175Y-49955901D01*
X74758524Y-50103110D01*
X74879845Y-50333000D01*
X76073000Y-50333000D01*
X76073000Y-50313000D01*
X76327000Y-50313000D01*
X76327000Y-50333000D01*
X77520155Y-50333000D01*
X77641476Y-50103110D01*
X77596825Y-49955901D01*
X77471641Y-49693080D01*
X77297588Y-49459731D01*
X77213534Y-49383966D01*
X77294180Y-49359502D01*
X77404494Y-49300537D01*
X77501185Y-49221185D01*
X77580537Y-49124494D01*
X77639502Y-49014180D01*
X77675812Y-48894482D01*
X77688072Y-48770000D01*
X77688072Y-47070000D01*
X77675812Y-46945518D01*
X77639502Y-46825820D01*
X77580537Y-46715506D01*
X77501185Y-46618815D01*
X77404494Y-46539463D01*
X77294180Y-46480498D01*
X77174482Y-46444188D01*
X77050000Y-46431928D01*
X75350000Y-46431928D01*
X75225518Y-46444188D01*
X75105820Y-46480498D01*
X74995506Y-46539463D01*
X74898815Y-46618815D01*
X74832875Y-46699164D01*
X74827774Y-46694063D01*
X74658256Y-46580795D01*
X74469898Y-46502774D01*
X74269939Y-46463000D01*
X74066061Y-46463000D01*
X73866102Y-46502774D01*
X73677744Y-46580795D01*
X73508226Y-46694063D01*
X73364063Y-46838226D01*
X73250795Y-47007744D01*
X73172774Y-47196102D01*
X73133000Y-47396061D01*
X73133000Y-47458198D01*
X72183200Y-48407999D01*
X70113838Y-48407999D01*
X70123000Y-48361939D01*
X70123000Y-48299801D01*
X72901003Y-45521799D01*
X72930001Y-45498001D01*
X73024974Y-45382276D01*
X73095546Y-45250247D01*
X73139003Y-45106986D01*
X73150000Y-44995333D01*
X73150000Y-44995324D01*
X73153676Y-44958001D01*
X73150000Y-44920678D01*
X73150000Y-44641711D01*
X73254226Y-44745937D01*
X73423744Y-44859205D01*
X73612102Y-44937226D01*
X73812061Y-44977000D01*
X74015939Y-44977000D01*
X74215898Y-44937226D01*
X74404256Y-44859205D01*
X74573774Y-44745937D01*
X74717937Y-44601774D01*
X74831205Y-44432256D01*
X74909226Y-44243898D01*
X74949000Y-44043939D01*
X74949000Y-43840061D01*
X74909226Y-43640102D01*
X74831205Y-43451744D01*
X74717937Y-43282226D01*
X74674000Y-43238289D01*
X74674000Y-41693322D01*
X74677676Y-41656000D01*
X74674000Y-41618677D01*
X74674000Y-41618667D01*
X74663003Y-41507014D01*
X74619546Y-41363753D01*
X74548975Y-41231725D01*
X74548974Y-41231723D01*
X74477799Y-41144997D01*
X74454001Y-41115999D01*
X74425004Y-41092202D01*
X73461804Y-40129002D01*
X73438001Y-40099999D01*
X73322276Y-40005026D01*
X73190247Y-39934454D01*
X73046986Y-39890997D01*
X72935333Y-39880000D01*
X72935322Y-39880000D01*
X72898000Y-39876324D01*
X72860678Y-39880000D01*
X72173323Y-39880000D01*
X72136000Y-39876324D01*
X72098677Y-39880000D01*
X72098667Y-39880000D01*
X71987014Y-39890997D01*
X71843753Y-39934454D01*
X71711723Y-40005026D01*
X71634916Y-40068061D01*
X71595999Y-40099999D01*
X71572201Y-40128997D01*
X70617000Y-41084198D01*
X70617000Y-40818000D01*
X70566092Y-40555117D01*
X70464876Y-40307217D01*
X70317242Y-40083827D01*
X70128863Y-39893531D01*
X69906979Y-39743643D01*
X69660117Y-39639922D01*
X69594258Y-39627481D01*
X69384000Y-39750482D01*
X69384000Y-41093000D01*
X69404000Y-41093000D01*
X69404000Y-41347000D01*
X69384000Y-41347000D01*
X69384000Y-41367000D01*
X69130000Y-41367000D01*
X69130000Y-41347000D01*
X67897000Y-41347000D01*
X67897000Y-41622000D01*
X67947908Y-41884883D01*
X68049124Y-42132783D01*
X68196758Y-42356173D01*
X68385137Y-42546469D01*
X68607021Y-42696357D01*
X68853883Y-42800078D01*
X68893615Y-42807584D01*
X68773199Y-42928000D01*
X67759711Y-42928000D01*
X67715774Y-42884063D01*
X67546256Y-42770795D01*
X67357898Y-42692774D01*
X67157939Y-42653000D01*
X66954061Y-42653000D01*
X66754102Y-42692774D01*
X66565744Y-42770795D01*
X66396226Y-42884063D01*
X66252063Y-43028226D01*
X66138795Y-43197744D01*
X66060774Y-43386102D01*
X66021000Y-43586061D01*
X51460000Y-43586061D01*
X51460000Y-41347000D01*
X60447000Y-41347000D01*
X60447000Y-41622000D01*
X60497908Y-41884883D01*
X60599124Y-42132783D01*
X60746758Y-42356173D01*
X60935137Y-42546469D01*
X61157021Y-42696357D01*
X61403883Y-42800078D01*
X61469742Y-42812519D01*
X61680000Y-42689518D01*
X61680000Y-41347000D01*
X61934000Y-41347000D01*
X61934000Y-42689518D01*
X62144258Y-42812519D01*
X62210117Y-42800078D01*
X62456979Y-42696357D01*
X62678863Y-42546469D01*
X62867242Y-42356173D01*
X63014876Y-42132783D01*
X63116092Y-41884883D01*
X63167000Y-41622000D01*
X63167000Y-41347000D01*
X61934000Y-41347000D01*
X61680000Y-41347000D01*
X60447000Y-41347000D01*
X51460000Y-41347000D01*
X51460000Y-40818000D01*
X60447000Y-40818000D01*
X60447000Y-41093000D01*
X61680000Y-41093000D01*
X61680000Y-39750482D01*
X61934000Y-39750482D01*
X61934000Y-41093000D01*
X62555734Y-41093000D01*
X62730102Y-41165226D01*
X62930061Y-41205000D01*
X63133939Y-41205000D01*
X63333898Y-41165226D01*
X63522256Y-41087205D01*
X63691774Y-40973937D01*
X63835937Y-40829774D01*
X63949205Y-40660256D01*
X64027226Y-40471898D01*
X64067000Y-40271939D01*
X64067000Y-40068061D01*
X66997000Y-40068061D01*
X66997000Y-40271939D01*
X67036774Y-40471898D01*
X67114795Y-40660256D01*
X67228063Y-40829774D01*
X67372226Y-40973937D01*
X67541744Y-41087205D01*
X67730102Y-41165226D01*
X67930061Y-41205000D01*
X68133939Y-41205000D01*
X68333898Y-41165226D01*
X68508266Y-41093000D01*
X69130000Y-41093000D01*
X69130000Y-39750482D01*
X68919742Y-39627481D01*
X68914896Y-39628396D01*
X68835937Y-39510226D01*
X68691774Y-39366063D01*
X68522256Y-39252795D01*
X68333898Y-39174774D01*
X68133939Y-39135000D01*
X67930061Y-39135000D01*
X67730102Y-39174774D01*
X67541744Y-39252795D01*
X67372226Y-39366063D01*
X67228063Y-39510226D01*
X67114795Y-39679744D01*
X67036774Y-39868102D01*
X66997000Y-40068061D01*
X64067000Y-40068061D01*
X64027226Y-39868102D01*
X63949205Y-39679744D01*
X63835937Y-39510226D01*
X63691774Y-39366063D01*
X63522256Y-39252795D01*
X63333898Y-39174774D01*
X63133939Y-39135000D01*
X62930061Y-39135000D01*
X62730102Y-39174774D01*
X62541744Y-39252795D01*
X62372226Y-39366063D01*
X62228063Y-39510226D01*
X62149104Y-39628396D01*
X62144258Y-39627481D01*
X61934000Y-39750482D01*
X61680000Y-39750482D01*
X61469742Y-39627481D01*
X61403883Y-39639922D01*
X61157021Y-39743643D01*
X60935137Y-39893531D01*
X60746758Y-40083827D01*
X60599124Y-40307217D01*
X60497908Y-40555117D01*
X60447000Y-40818000D01*
X51460000Y-40818000D01*
X51460000Y-37547000D01*
X60447000Y-37547000D01*
X60447000Y-37872000D01*
X60495026Y-38105619D01*
X60587706Y-38325380D01*
X60721479Y-38522837D01*
X60891203Y-38690402D01*
X61090356Y-38821636D01*
X61311285Y-38911496D01*
X61343323Y-38913635D01*
X61530000Y-38788550D01*
X61530000Y-37547000D01*
X61784000Y-37547000D01*
X61784000Y-38788550D01*
X61970677Y-38913635D01*
X62002715Y-38911496D01*
X62223644Y-38821636D01*
X62422797Y-38690402D01*
X62592521Y-38522837D01*
X62726294Y-38325380D01*
X62818974Y-38105619D01*
X62867000Y-37872000D01*
X62867000Y-37547000D01*
X68197000Y-37547000D01*
X68197000Y-37872000D01*
X68245026Y-38105619D01*
X68337706Y-38325380D01*
X68471479Y-38522837D01*
X68641203Y-38690402D01*
X68840356Y-38821636D01*
X69061285Y-38911496D01*
X69093323Y-38913635D01*
X69280000Y-38788550D01*
X69280000Y-37547000D01*
X69534000Y-37547000D01*
X69534000Y-38788550D01*
X69720677Y-38913635D01*
X69752715Y-38911496D01*
X69973644Y-38821636D01*
X70172797Y-38690402D01*
X70342521Y-38522837D01*
X70476294Y-38325380D01*
X70568974Y-38105619D01*
X70617000Y-37872000D01*
X70617000Y-37547000D01*
X69534000Y-37547000D01*
X69280000Y-37547000D01*
X68197000Y-37547000D01*
X62867000Y-37547000D01*
X61784000Y-37547000D01*
X61530000Y-37547000D01*
X60447000Y-37547000D01*
X51460000Y-37547000D01*
X51460000Y-36220000D01*
X60819894Y-36220000D01*
X60721479Y-36317163D01*
G37*
X60721479Y-36317163D02*
X60587706Y-36514620D01*
X60495026Y-36734381D01*
X60447000Y-36968000D01*
X60447000Y-37293000D01*
X61530000Y-37293000D01*
X61530000Y-37273000D01*
X61784000Y-37273000D01*
X61784000Y-37293000D01*
X62867000Y-37293000D01*
X62867000Y-36968000D01*
X62818974Y-36734381D01*
X62726294Y-36514620D01*
X62592521Y-36317163D01*
X62494106Y-36220000D01*
X68569894Y-36220000D01*
X68471479Y-36317163D01*
X68337706Y-36514620D01*
X68245026Y-36734381D01*
X68197000Y-36968000D01*
X68197000Y-37293000D01*
X69280000Y-37293000D01*
X69280000Y-37273000D01*
X69534000Y-37273000D01*
X69534000Y-37293000D01*
X70617000Y-37293000D01*
X70617000Y-36968000D01*
X70568974Y-36734381D01*
X70476294Y-36514620D01*
X70342521Y-36317163D01*
X70244106Y-36220000D01*
X78080001Y-36220000D01*
X78080000Y-78918805D01*
X77960256Y-78838795D01*
X77771898Y-78760774D01*
X77647262Y-78735982D01*
X77685000Y-78546260D01*
X77685000Y-78253740D01*
X77627932Y-77966842D01*
X77515990Y-77696589D01*
X77353475Y-77453368D01*
X77146632Y-77246525D01*
X76972240Y-77130000D01*
X77146632Y-77013475D01*
X77353475Y-76806632D01*
X77515990Y-76563411D01*
X77627932Y-76293158D01*
X77685000Y-76006260D01*
X77685000Y-75713740D01*
X77627932Y-75426842D01*
X77515990Y-75156589D01*
X77353475Y-74913368D01*
X77146632Y-74706525D01*
X76972240Y-74590000D01*
X77146632Y-74473475D01*
X77353475Y-74266632D01*
X77515990Y-74023411D01*
X77627932Y-73753158D01*
X77685000Y-73466260D01*
X77685000Y-73173740D01*
X77627932Y-72886842D01*
X77515990Y-72616589D01*
X77353475Y-72373368D01*
X77146632Y-72166525D01*
X76972240Y-72050000D01*
X77146632Y-71933475D01*
X77353475Y-71726632D01*
X77515990Y-71483411D01*
X77627932Y-71213158D01*
X77685000Y-70926260D01*
X77685000Y-70633740D01*
X77627932Y-70346842D01*
X77515990Y-70076589D01*
X77353475Y-69833368D01*
X77146632Y-69626525D01*
X76972240Y-69510000D01*
X77146632Y-69393475D01*
X77353475Y-69186632D01*
X77515990Y-68943411D01*
X77627932Y-68673158D01*
X77685000Y-68386260D01*
X77685000Y-68093740D01*
X77627932Y-67806842D01*
X77515990Y-67536589D01*
X77353475Y-67293368D01*
X77146632Y-67086525D01*
X76972240Y-66970000D01*
X77146632Y-66853475D01*
X77353475Y-66646632D01*
X77515990Y-66403411D01*
X77627932Y-66133158D01*
X77685000Y-65846260D01*
X77685000Y-65553740D01*
X77627932Y-65266842D01*
X77515990Y-64996589D01*
X77353475Y-64753368D01*
X77146632Y-64546525D01*
X76972240Y-64430000D01*
X77146632Y-64313475D01*
X77353475Y-64106632D01*
X77515990Y-63863411D01*
X77627932Y-63593158D01*
X77685000Y-63306260D01*
X77685000Y-63013740D01*
X77627932Y-62726842D01*
X77515990Y-62456589D01*
X77353475Y-62213368D01*
X77146632Y-62006525D01*
X76972240Y-61890000D01*
X77146632Y-61773475D01*
X77353475Y-61566632D01*
X77515990Y-61323411D01*
X77627932Y-61053158D01*
X77685000Y-60766260D01*
X77685000Y-60473740D01*
X77627932Y-60186842D01*
X77515990Y-59916589D01*
X77353475Y-59673368D01*
X77146632Y-59466525D01*
X76972240Y-59350000D01*
X77146632Y-59233475D01*
X77353475Y-59026632D01*
X77515990Y-58783411D01*
X77627932Y-58513158D01*
X77685000Y-58226260D01*
X77685000Y-57933740D01*
X77627932Y-57646842D01*
X77515990Y-57376589D01*
X77353475Y-57133368D01*
X77146632Y-56926525D01*
X76972240Y-56810000D01*
X77146632Y-56693475D01*
X77353475Y-56486632D01*
X77515990Y-56243411D01*
X77627932Y-55973158D01*
X77685000Y-55686260D01*
X77685000Y-55393740D01*
X77627932Y-55106842D01*
X77515990Y-54836589D01*
X77353475Y-54593368D01*
X77146632Y-54386525D01*
X76972240Y-54270000D01*
X77146632Y-54153475D01*
X77353475Y-53946632D01*
X77515990Y-53703411D01*
X77627932Y-53433158D01*
X77685000Y-53146260D01*
X77685000Y-52853740D01*
X77627932Y-52566842D01*
X77515990Y-52296589D01*
X77353475Y-52053368D01*
X77146632Y-51846525D01*
X76964466Y-51724805D01*
X77081355Y-51655178D01*
X77297588Y-51460269D01*
X77471641Y-51226920D01*
X77596825Y-50964099D01*
X77641476Y-50816890D01*
X77520155Y-50587000D01*
X76327000Y-50587000D01*
X76327000Y-50607000D01*
X76073000Y-50607000D01*
X76073000Y-50587000D01*
X74879845Y-50587000D01*
X74758524Y-50816890D01*
X74803175Y-50964099D01*
X74928359Y-51226920D01*
X75102412Y-51460269D01*
X75318645Y-51655178D01*
X75435534Y-51724805D01*
X75253368Y-51846525D01*
X75046525Y-52053368D01*
X74884010Y-52296589D01*
X74772068Y-52566842D01*
X74715000Y-52853740D01*
X74715000Y-53146260D01*
X74772068Y-53433158D01*
X74884010Y-53703411D01*
X75046525Y-53946632D01*
X75253368Y-54153475D01*
X75427760Y-54270000D01*
X75253368Y-54386525D01*
X75046525Y-54593368D01*
X74884010Y-54836589D01*
X74772068Y-55106842D01*
X74715000Y-55393740D01*
X74715000Y-55686260D01*
X74772068Y-55973158D01*
X74884010Y-56243411D01*
X75046525Y-56486632D01*
X75253368Y-56693475D01*
X75427760Y-56810000D01*
X75253368Y-56926525D01*
X75046525Y-57133368D01*
X74884010Y-57376589D01*
X74772068Y-57646842D01*
X74715000Y-57933740D01*
X74715000Y-58226260D01*
X74772068Y-58513158D01*
X74884010Y-58783411D01*
X75046525Y-59026632D01*
X75253368Y-59233475D01*
X75427760Y-59350000D01*
X75253368Y-59466525D01*
X75046525Y-59673368D01*
X74884010Y-59916589D01*
X74772068Y-60186842D01*
X74715000Y-60473740D01*
X74715000Y-60766260D01*
X74772068Y-61053158D01*
X74884010Y-61323411D01*
X75046525Y-61566632D01*
X75253368Y-61773475D01*
X75427760Y-61890000D01*
X75253368Y-62006525D01*
X75046525Y-62213368D01*
X74884010Y-62456589D01*
X74772068Y-62726842D01*
X74715000Y-63013740D01*
X74715000Y-63306260D01*
X74772068Y-63593158D01*
X74884010Y-63863411D01*
X75046525Y-64106632D01*
X75253368Y-64313475D01*
X75427760Y-64430000D01*
X75253368Y-64546525D01*
X75046525Y-64753368D01*
X74884010Y-64996589D01*
X74772068Y-65266842D01*
X74715000Y-65553740D01*
X74715000Y-65846260D01*
X74772068Y-66133158D01*
X74884010Y-66403411D01*
X75046525Y-66646632D01*
X75253368Y-66853475D01*
X75427760Y-66970000D01*
X75253368Y-67086525D01*
X75046525Y-67293368D01*
X74884010Y-67536589D01*
X74832280Y-67661478D01*
X71175804Y-64005003D01*
X71152001Y-63975999D01*
X71036276Y-63881026D01*
X70904247Y-63810454D01*
X70885000Y-63804616D01*
X70885000Y-63652061D01*
X70845226Y-63452102D01*
X70767205Y-63263744D01*
X70653937Y-63094226D01*
X70573869Y-63014158D01*
X70555546Y-62953753D01*
X70484974Y-62821724D01*
X70471811Y-62805685D01*
X70413799Y-62734996D01*
X70413795Y-62734992D01*
X70390001Y-62705999D01*
X70361009Y-62682206D01*
X68889803Y-61211002D01*
X68866001Y-61181999D01*
X68750276Y-61087026D01*
X68668352Y-61043236D01*
X68751481Y-60808891D01*
X68630814Y-60579000D01*
X67437000Y-60579000D01*
X67437000Y-60599000D01*
X67183000Y-60599000D01*
X67183000Y-60579000D01*
X67163000Y-60579000D01*
X67163000Y-60325000D01*
X67183000Y-60325000D01*
X67183000Y-59131845D01*
X67437000Y-59131845D01*
X67437000Y-60325000D01*
X68630814Y-60325000D01*
X68751481Y-60095109D01*
X68654157Y-59820748D01*
X68505178Y-59570645D01*
X68310269Y-59354412D01*
X68076920Y-59180359D01*
X67814099Y-59055175D01*
X67666890Y-59010524D01*
X67437000Y-59131845D01*
X67183000Y-59131845D01*
X66953110Y-59010524D01*
X66805901Y-59055175D01*
X66543080Y-59180359D01*
X66309731Y-59354412D01*
X66114822Y-59570645D01*
X66045195Y-59687534D01*
X65923475Y-59505368D01*
X65716632Y-59298525D01*
X65473411Y-59136010D01*
X65203158Y-59024068D01*
X64916260Y-58967000D01*
X64623740Y-58967000D01*
X64336842Y-59024068D01*
X64066589Y-59136010D01*
X63823368Y-59298525D01*
X63616525Y-59505368D01*
X63500000Y-59679760D01*
X63383475Y-59505368D01*
X63176632Y-59298525D01*
X62933411Y-59136010D01*
X62663158Y-59024068D01*
X62376260Y-58967000D01*
X62083740Y-58967000D01*
X61796842Y-59024068D01*
X61526589Y-59136010D01*
X61283368Y-59298525D01*
X61076525Y-59505368D01*
X60914010Y-59748589D01*
X60802068Y-60018842D01*
X60745000Y-60305740D01*
X60745000Y-60598260D01*
X60802068Y-60885158D01*
X60914010Y-61155411D01*
X61076525Y-61398632D01*
X61208380Y-61530487D01*
X61135820Y-61552498D01*
X61025506Y-61611463D01*
X60928815Y-61690815D01*
X60849463Y-61787506D01*
X60790498Y-61897820D01*
X60754188Y-62017518D01*
X60741928Y-62142000D01*
X60741928Y-62232000D01*
X59981325Y-62232000D01*
X59944000Y-62228324D01*
X59906675Y-62232000D01*
X59906667Y-62232000D01*
X59795014Y-62242997D01*
X59651753Y-62286454D01*
X59519724Y-62357026D01*
X59403999Y-62451999D01*
X59380201Y-62480997D01*
X57654998Y-64206201D01*
X57626000Y-64229999D01*
X57602202Y-64258997D01*
X57602201Y-64258998D01*
X57531026Y-64345724D01*
X57460454Y-64477754D01*
X57416998Y-64621015D01*
X57402324Y-64770000D01*
X57406001Y-64807332D01*
X57406000Y-72702289D01*
X57362063Y-72746226D01*
X57248795Y-72915744D01*
X57170774Y-73104102D01*
X57131000Y-73304061D01*
X57131000Y-73507939D01*
X57170774Y-73707898D01*
X57248795Y-73896256D01*
X57362063Y-74065774D01*
X57506226Y-74209937D01*
X57675744Y-74323205D01*
X57864102Y-74401226D01*
X58064061Y-74441000D01*
X58267939Y-74441000D01*
X58467898Y-74401226D01*
X58656256Y-74323205D01*
X58825774Y-74209937D01*
X58969937Y-74065774D01*
X59083205Y-73896256D01*
X59161226Y-73707898D01*
X59166974Y-73679000D01*
X59283939Y-73679000D01*
X59483898Y-73639226D01*
X59672256Y-73561205D01*
X59841774Y-73447937D01*
X59885711Y-73404000D01*
X60232261Y-73404000D01*
X60247999Y-73483123D01*
X60326020Y-73671481D01*
X60439288Y-73840999D01*
X60583451Y-73985162D01*
X60752969Y-74098430D01*
X60941327Y-74176451D01*
X61141286Y-74216225D01*
X61345164Y-74216225D01*
X61545123Y-74176451D01*
X61733481Y-74098430D01*
X61902999Y-73985162D01*
X62047162Y-73840999D01*
X62160430Y-73671481D01*
X62216294Y-73536614D01*
X62216295Y-78948903D01*
X61407199Y-79758000D01*
X61155711Y-79758000D01*
X61111774Y-79714063D01*
X60942256Y-79600795D01*
X60753898Y-79522774D01*
X60553939Y-79483000D01*
X60350061Y-79483000D01*
X60150102Y-79522774D01*
X59961744Y-79600795D01*
X59792226Y-79714063D01*
X59648063Y-79858226D01*
X59534795Y-80027744D01*
X59456774Y-80216102D01*
X59417000Y-80416061D01*
X59417000Y-80619939D01*
X59456774Y-80819898D01*
X59534795Y-81008256D01*
X59648063Y-81177774D01*
X59792226Y-81321937D01*
X59961744Y-81435205D01*
X60150102Y-81513226D01*
X60350061Y-81553000D01*
X60553939Y-81553000D01*
X60753898Y-81513226D01*
X60942256Y-81435205D01*
X61111774Y-81321937D01*
X61155711Y-81278000D01*
X61684678Y-81278000D01*
X61722000Y-81281676D01*
X61759322Y-81278000D01*
X61759333Y-81278000D01*
X61870986Y-81267003D01*
X62014247Y-81223546D01*
X62146276Y-81152974D01*
X62162562Y-81139609D01*
X62188063Y-81177774D01*
X62332226Y-81321937D01*
X62501744Y-81435205D01*
X62690102Y-81513226D01*
X62890061Y-81553000D01*
X63093939Y-81553000D01*
X63293898Y-81513226D01*
X63482256Y-81435205D01*
X63502001Y-81422012D01*
X63502001Y-81750667D01*
X63498324Y-81788000D01*
X63502001Y-81825333D01*
X63508393Y-81890226D01*
X63512998Y-81936985D01*
X63556454Y-82080246D01*
X63627026Y-82212276D01*
X63681175Y-82278256D01*
X63722000Y-82328001D01*
X63750998Y-82351799D01*
X64965198Y-83565999D01*
X61153199Y-87378000D01*
X54243941Y-87378000D01*
X54112240Y-87290000D01*
X54286632Y-87173475D01*
X54493475Y-86966632D01*
X54655990Y-86723411D01*
X54767932Y-86453158D01*
X54825000Y-86166260D01*
X54825000Y-85873740D01*
X54767932Y-85586842D01*
X54655990Y-85316589D01*
X54493475Y-85073368D01*
X54286632Y-84866525D01*
X54112240Y-84750000D01*
X54286632Y-84633475D01*
X54493475Y-84426632D01*
X54655990Y-84183411D01*
X54767932Y-83913158D01*
X54825000Y-83626260D01*
X54825000Y-83333740D01*
X54767932Y-83046842D01*
X54655990Y-82776589D01*
X54493475Y-82533368D01*
X54286632Y-82326525D01*
X54112240Y-82210000D01*
X54286632Y-82093475D01*
X54493475Y-81886632D01*
X54655990Y-81643411D01*
X54767932Y-81373158D01*
X54825000Y-81086260D01*
X54825000Y-80793740D01*
X54767932Y-80506842D01*
X54655990Y-80236589D01*
X54493475Y-79993368D01*
X54286632Y-79786525D01*
X54112240Y-79670000D01*
X54286632Y-79553475D01*
X54493475Y-79346632D01*
X54655990Y-79103411D01*
X54767932Y-78833158D01*
X54825000Y-78546260D01*
X54825000Y-78253740D01*
X54767932Y-77966842D01*
X54655990Y-77696589D01*
X54493475Y-77453368D01*
X54286632Y-77246525D01*
X54112240Y-77130000D01*
X54286632Y-77013475D01*
X54493475Y-76806632D01*
X54655990Y-76563411D01*
X54767932Y-76293158D01*
X54825000Y-76006260D01*
X54825000Y-75713740D01*
X54767932Y-75426842D01*
X54655990Y-75156589D01*
X54493475Y-74913368D01*
X54286632Y-74706525D01*
X54112240Y-74590000D01*
X54286632Y-74473475D01*
X54493475Y-74266632D01*
X54655990Y-74023411D01*
X54767932Y-73753158D01*
X54825000Y-73466260D01*
X54825000Y-73173740D01*
X54767932Y-72886842D01*
X54655990Y-72616589D01*
X54493475Y-72373368D01*
X54286632Y-72166525D01*
X54112240Y-72050000D01*
X54286632Y-71933475D01*
X54493475Y-71726632D01*
X54655990Y-71483411D01*
X54767932Y-71213158D01*
X54825000Y-70926260D01*
X54825000Y-70633740D01*
X54767932Y-70346842D01*
X54655990Y-70076589D01*
X54493475Y-69833368D01*
X54286632Y-69626525D01*
X54112240Y-69510000D01*
X54286632Y-69393475D01*
X54493475Y-69186632D01*
X54655990Y-68943411D01*
X54767932Y-68673158D01*
X54825000Y-68386260D01*
X54825000Y-68093740D01*
X54767932Y-67806842D01*
X54655990Y-67536589D01*
X54493475Y-67293368D01*
X54286632Y-67086525D01*
X54112240Y-66970000D01*
X54286632Y-66853475D01*
X54493475Y-66646632D01*
X54655990Y-66403411D01*
X54767932Y-66133158D01*
X54825000Y-65846260D01*
X54825000Y-65553740D01*
X54767932Y-65266842D01*
X54655990Y-64996589D01*
X54493475Y-64753368D01*
X54286632Y-64546525D01*
X54112240Y-64430000D01*
X54286632Y-64313475D01*
X54493475Y-64106632D01*
X54655990Y-63863411D01*
X54767932Y-63593158D01*
X54825000Y-63306260D01*
X54825000Y-63013740D01*
X54767932Y-62726842D01*
X54655990Y-62456589D01*
X54493475Y-62213368D01*
X54286632Y-62006525D01*
X54112240Y-61890000D01*
X54286632Y-61773475D01*
X54493475Y-61566632D01*
X54655990Y-61323411D01*
X54767932Y-61053158D01*
X54825000Y-60766260D01*
X54825000Y-60473740D01*
X54767932Y-60186842D01*
X54655990Y-59916589D01*
X54493475Y-59673368D01*
X54286632Y-59466525D01*
X54112240Y-59350000D01*
X54286632Y-59233475D01*
X54493475Y-59026632D01*
X54655990Y-58783411D01*
X54767932Y-58513158D01*
X54825000Y-58226260D01*
X54825000Y-57933740D01*
X54767932Y-57646842D01*
X54655990Y-57376589D01*
X54493475Y-57133368D01*
X54286632Y-56926525D01*
X54112240Y-56810000D01*
X54286632Y-56693475D01*
X54493475Y-56486632D01*
X54655990Y-56243411D01*
X54767932Y-55973158D01*
X54825000Y-55686260D01*
X54825000Y-55393740D01*
X54767932Y-55106842D01*
X54655990Y-54836589D01*
X54493475Y-54593368D01*
X54286632Y-54386525D01*
X54112240Y-54270000D01*
X54286632Y-54153475D01*
X54493475Y-53946632D01*
X54655990Y-53703411D01*
X54767932Y-53433158D01*
X54825000Y-53146260D01*
X54825000Y-52853740D01*
X54767932Y-52566842D01*
X54655990Y-52296589D01*
X54493475Y-52053368D01*
X54286632Y-51846525D01*
X54112240Y-51730000D01*
X54286632Y-51613475D01*
X54493475Y-51406632D01*
X54655990Y-51163411D01*
X54767932Y-50893158D01*
X54825000Y-50606260D01*
X54825000Y-50313740D01*
X54800399Y-50190061D01*
X58812000Y-50190061D01*
X58812000Y-50393939D01*
X58851774Y-50593898D01*
X58929795Y-50782256D01*
X59043063Y-50951774D01*
X59187226Y-51095937D01*
X59356744Y-51209205D01*
X59545102Y-51287226D01*
X59745061Y-51327000D01*
X59948939Y-51327000D01*
X60148898Y-51287226D01*
X60337256Y-51209205D01*
X60506774Y-51095937D01*
X60650937Y-50951774D01*
X60764205Y-50782256D01*
X60842226Y-50593898D01*
X60882000Y-50393939D01*
X60882000Y-50331801D01*
X62629171Y-48584632D01*
X62755744Y-48669205D01*
X62944102Y-48747226D01*
X63144061Y-48787000D01*
X63168198Y-48787000D01*
X61718998Y-50236201D01*
X61690000Y-50259999D01*
X61666202Y-50288997D01*
X61666201Y-50288998D01*
X61595026Y-50375724D01*
X61560143Y-50440985D01*
X61524454Y-50507753D01*
X61480997Y-50651014D01*
X61470000Y-50762667D01*
X61470000Y-50762678D01*
X61466324Y-50800000D01*
X61470000Y-50837322D01*
X61470000Y-51818480D01*
X61466324Y-51855802D01*
X61470000Y-51893124D01*
X61470000Y-51893134D01*
X61480997Y-52004787D01*
X61519724Y-52132456D01*
X61524454Y-52148048D01*
X61595026Y-52280078D01*
X61612996Y-52301974D01*
X61689999Y-52395803D01*
X61719003Y-52419606D01*
X62134394Y-52834997D01*
X62158197Y-52864001D01*
X62206919Y-52903986D01*
X62273921Y-52958974D01*
X62354931Y-53002275D01*
X62405951Y-53029546D01*
X62549212Y-53073003D01*
X62660865Y-53084000D01*
X62660875Y-53084000D01*
X62698198Y-53087676D01*
X62735521Y-53084000D01*
X63947199Y-53084000D01*
X63952201Y-53089002D01*
X68307000Y-57443802D01*
X68307000Y-57505939D01*
X68346774Y-57705898D01*
X68424795Y-57894256D01*
X68538063Y-58063774D01*
X68682226Y-58207937D01*
X68851744Y-58321205D01*
X69040102Y-58399226D01*
X69240061Y-58439000D01*
X69443939Y-58439000D01*
X69643898Y-58399226D01*
X69832256Y-58321205D01*
X70001774Y-58207937D01*
X70104000Y-58105711D01*
X70206226Y-58207937D01*
X70375744Y-58321205D01*
X70564102Y-58399226D01*
X70764061Y-58439000D01*
X70967939Y-58439000D01*
X71167898Y-58399226D01*
X71356256Y-58321205D01*
X71525774Y-58207937D01*
X71669937Y-58063774D01*
X71783205Y-57894256D01*
X71861226Y-57705898D01*
X71901000Y-57505939D01*
X71901000Y-57302061D01*
X71861226Y-57102102D01*
X71783205Y-56913744D01*
X71669937Y-56744226D01*
X71525774Y-56600063D01*
X71356256Y-56486795D01*
X71167898Y-56408774D01*
X70967939Y-56369000D01*
X70905802Y-56369000D01*
X65668004Y-51131203D01*
X65644201Y-51102199D01*
X65528476Y-51007226D01*
X65396447Y-50936654D01*
X65253186Y-50893197D01*
X65141533Y-50882200D01*
X65141522Y-50882200D01*
X65104200Y-50878524D01*
X65066878Y-50882200D01*
X63615511Y-50882200D01*
X63571574Y-50838263D01*
X63402056Y-50724995D01*
X63386323Y-50718478D01*
X64301802Y-49803000D01*
X64363939Y-49803000D01*
X64563898Y-49763226D01*
X64752256Y-49685205D01*
X64921774Y-49571937D01*
X65065937Y-49427774D01*
X65179205Y-49258256D01*
X65257226Y-49069898D01*
X65297000Y-48869939D01*
X65297000Y-48666061D01*
X65257226Y-48466102D01*
X65179205Y-48277744D01*
X65065937Y-48108226D01*
X64921774Y-47964063D01*
X64752256Y-47850795D01*
X64563898Y-47772774D01*
X64363939Y-47733000D01*
X64281000Y-47733000D01*
X64281000Y-47650061D01*
X64241226Y-47450102D01*
X64163205Y-47261744D01*
X64049937Y-47092226D01*
X63905774Y-46948063D01*
X63736256Y-46834795D01*
X63547898Y-46756774D01*
X63347939Y-46717000D01*
X63144061Y-46717000D01*
X62944102Y-46756774D01*
X62755744Y-46834795D01*
X62586226Y-46948063D01*
X62542289Y-46992000D01*
X62424322Y-46992000D01*
X62386999Y-46988324D01*
X62349676Y-46992000D01*
X62349667Y-46992000D01*
X62238014Y-47002997D01*
X62094753Y-47046454D01*
X61962724Y-47117026D01*
X61962722Y-47117027D01*
X61962723Y-47117027D01*
X61875996Y-47188201D01*
X61875992Y-47188205D01*
X61846999Y-47211999D01*
X61823205Y-47240992D01*
X59807199Y-49257000D01*
X59745061Y-49257000D01*
X59545102Y-49296774D01*
X59356744Y-49374795D01*
X59187226Y-49488063D01*
X59043063Y-49632226D01*
X58929795Y-49801744D01*
X58851774Y-49990102D01*
X58812000Y-50190061D01*
X54800399Y-50190061D01*
X54767932Y-50026842D01*
X54655990Y-49756589D01*
X54493475Y-49513368D01*
X54361620Y-49381513D01*
X54434180Y-49359502D01*
X54544494Y-49300537D01*
X54641185Y-49221185D01*
X54720537Y-49124494D01*
X54779502Y-49014180D01*
X54815812Y-48894482D01*
X54828072Y-48770000D01*
X54828072Y-47070000D01*
X54815812Y-46945518D01*
X54779502Y-46825820D01*
X54720537Y-46715506D01*
X54641185Y-46618815D01*
X54544494Y-46539463D01*
X54434180Y-46480498D01*
X54314482Y-46444188D01*
X54190000Y-46431928D01*
X52490000Y-46431928D01*
X52365518Y-46444188D01*
X52245820Y-46480498D01*
X52135506Y-46539463D01*
X52038815Y-46618815D01*
X51959463Y-46715506D01*
X51900498Y-46825820D01*
X51864188Y-46945518D01*
X51851928Y-47070000D01*
X51851928Y-48770000D01*
X51864188Y-48894482D01*
X51900498Y-49014180D01*
X51959463Y-49124494D01*
X52038815Y-49221185D01*
X52135506Y-49300537D01*
X52245820Y-49359502D01*
X52318380Y-49381513D01*
X52186525Y-49513368D01*
X52024010Y-49756589D01*
X51912068Y-50026842D01*
X51855000Y-50313740D01*
X51855000Y-50606260D01*
X51912068Y-50893158D01*
X52024010Y-51163411D01*
X52186525Y-51406632D01*
X52393368Y-51613475D01*
X52567760Y-51730000D01*
X52393368Y-51846525D01*
X52186525Y-52053368D01*
X52024010Y-52296589D01*
X51912068Y-52566842D01*
X51855000Y-52853740D01*
X51855000Y-53146260D01*
X51912068Y-53433158D01*
X52024010Y-53703411D01*
X52186525Y-53946632D01*
X52393368Y-54153475D01*
X52567760Y-54270000D01*
X52393368Y-54386525D01*
X52186525Y-54593368D01*
X52024010Y-54836589D01*
X51912068Y-55106842D01*
X51855000Y-55393740D01*
X51855000Y-55686260D01*
X51912068Y-55973158D01*
X52024010Y-56243411D01*
X52186525Y-56486632D01*
X52393368Y-56693475D01*
X52567760Y-56810000D01*
X52393368Y-56926525D01*
X52186525Y-57133368D01*
X52024010Y-57376589D01*
X51912068Y-57646842D01*
X51855000Y-57933740D01*
X51855000Y-58226260D01*
X51912068Y-58513158D01*
X52024010Y-58783411D01*
X52186525Y-59026632D01*
X52393368Y-59233475D01*
X52567760Y-59350000D01*
X52393368Y-59466525D01*
X52186525Y-59673368D01*
X52024010Y-59916589D01*
X51912068Y-60186842D01*
X51855000Y-60473740D01*
X51855000Y-60766260D01*
X51912068Y-61053158D01*
X52024010Y-61323411D01*
X52186525Y-61566632D01*
X52393368Y-61773475D01*
X52567760Y-61890000D01*
X52393368Y-62006525D01*
X52186525Y-62213368D01*
X52024010Y-62456589D01*
X51912068Y-62726842D01*
X51855000Y-63013740D01*
X51855000Y-63306260D01*
X51912068Y-63593158D01*
X52024010Y-63863411D01*
X52186525Y-64106632D01*
X52393368Y-64313475D01*
X52567760Y-64430000D01*
X52393368Y-64546525D01*
X52186525Y-64753368D01*
X52024010Y-64996589D01*
X51912068Y-65266842D01*
X51855000Y-65553740D01*
X51855000Y-65846260D01*
X51912068Y-66133158D01*
X52024010Y-66403411D01*
X52186525Y-66646632D01*
X52393368Y-66853475D01*
X52567760Y-66970000D01*
X52393368Y-67086525D01*
X52186525Y-67293368D01*
X52024010Y-67536589D01*
X51912068Y-67806842D01*
X51855000Y-68093740D01*
X51855000Y-68386260D01*
X51912068Y-68673158D01*
X52024010Y-68943411D01*
X52186525Y-69186632D01*
X52393368Y-69393475D01*
X52567760Y-69510000D01*
X52393368Y-69626525D01*
X52186525Y-69833368D01*
X52024010Y-70076589D01*
X51912068Y-70346842D01*
X51855000Y-70633740D01*
X51855000Y-70926260D01*
X51912068Y-71213158D01*
X52024010Y-71483411D01*
X52186525Y-71726632D01*
X52393368Y-71933475D01*
X52567760Y-72050000D01*
X52393368Y-72166525D01*
X52186525Y-72373368D01*
X52024010Y-72616589D01*
X51912068Y-72886842D01*
X51855000Y-73173740D01*
X51855000Y-73466260D01*
X51912068Y-73753158D01*
X52024010Y-74023411D01*
X52186525Y-74266632D01*
X52393368Y-74473475D01*
X52567760Y-74590000D01*
X52393368Y-74706525D01*
X52186525Y-74913368D01*
X52024010Y-75156589D01*
X51912068Y-75426842D01*
X51855000Y-75713740D01*
X51855000Y-76006260D01*
X51912068Y-76293158D01*
X52024010Y-76563411D01*
X52186525Y-76806632D01*
X52393368Y-77013475D01*
X52567760Y-77130000D01*
X52393368Y-77246525D01*
X52186525Y-77453368D01*
X52024010Y-77696589D01*
X51912068Y-77966842D01*
X51855000Y-78253740D01*
X51855000Y-78546260D01*
X51912068Y-78833158D01*
X52024010Y-79103411D01*
X52186525Y-79346632D01*
X52393368Y-79553475D01*
X52567760Y-79670000D01*
X52393368Y-79786525D01*
X52186525Y-79993368D01*
X52024010Y-80236589D01*
X51912068Y-80506842D01*
X51855000Y-80793740D01*
X51855000Y-81086260D01*
X51912068Y-81373158D01*
X52024010Y-81643411D01*
X52186525Y-81886632D01*
X52393368Y-82093475D01*
X52567760Y-82210000D01*
X52393368Y-82326525D01*
X52186525Y-82533368D01*
X52024010Y-82776589D01*
X51912068Y-83046842D01*
X51855000Y-83333740D01*
X51855000Y-83626260D01*
X51912068Y-83913158D01*
X52024010Y-84183411D01*
X52186525Y-84426632D01*
X52393368Y-84633475D01*
X52567760Y-84750000D01*
X52393368Y-84866525D01*
X52186525Y-85073368D01*
X52024010Y-85316589D01*
X51912068Y-85586842D01*
X51855000Y-85873740D01*
X51855000Y-86166260D01*
X51912068Y-86453158D01*
X52024010Y-86723411D01*
X52186525Y-86966632D01*
X52393368Y-87173475D01*
X52567760Y-87290000D01*
X52393368Y-87406525D01*
X52186525Y-87613368D01*
X52024010Y-87856589D01*
X51912068Y-88126842D01*
X51855000Y-88413740D01*
X51855000Y-88706260D01*
X51912068Y-88993158D01*
X52024010Y-89263411D01*
X52186525Y-89506632D01*
X52393368Y-89713475D01*
X52567760Y-89830000D01*
X52393368Y-89946525D01*
X52186525Y-90153368D01*
X52024010Y-90396589D01*
X51912068Y-90666842D01*
X51855000Y-90953740D01*
X51855000Y-91246260D01*
X51912068Y-91533158D01*
X52024010Y-91803411D01*
X52186525Y-92046632D01*
X52393368Y-92253475D01*
X52575534Y-92375195D01*
X52458645Y-92444822D01*
X52242412Y-92639731D01*
X52068359Y-92873080D01*
X51943175Y-93135901D01*
X51898524Y-93283110D01*
X52019845Y-93513000D01*
X53213000Y-93513000D01*
X53213000Y-93493000D01*
X53467000Y-93493000D01*
X53467000Y-93513000D01*
X54660155Y-93513000D01*
X54781476Y-93283110D01*
X54736825Y-93135901D01*
X54611641Y-92873080D01*
X54437588Y-92639731D01*
X54221355Y-92444822D01*
X54104466Y-92375195D01*
X54286632Y-92253475D01*
X54493475Y-92046632D01*
X54618178Y-91860000D01*
X54658678Y-91860000D01*
X54696000Y-91863676D01*
X54733322Y-91860000D01*
X54733333Y-91860000D01*
X54844986Y-91849003D01*
X54988247Y-91805546D01*
X55120276Y-91734974D01*
X55236001Y-91640001D01*
X55259804Y-91610997D01*
X55567212Y-91303589D01*
X60845000Y-91303589D01*
X60845000Y-91576411D01*
X60898225Y-91843989D01*
X61002629Y-92096043D01*
X61154201Y-92322886D01*
X61347114Y-92515799D01*
X61573957Y-92667371D01*
X61826011Y-92771775D01*
X62093589Y-92825000D01*
X62366411Y-92825000D01*
X62633989Y-92771775D01*
X62886043Y-92667371D01*
X63112886Y-92515799D01*
X63305799Y-92322886D01*
X63457371Y-92096043D01*
X63561775Y-91843989D01*
X63615000Y-91576411D01*
X63615000Y-91303589D01*
X65725000Y-91303589D01*
X65725000Y-91576411D01*
X65778225Y-91843989D01*
X65882629Y-92096043D01*
X66034201Y-92322886D01*
X66227114Y-92515799D01*
X66453957Y-92667371D01*
X66706011Y-92771775D01*
X66973589Y-92825000D01*
X67246411Y-92825000D01*
X67513989Y-92771775D01*
X67766043Y-92667371D01*
X67992886Y-92515799D01*
X68185799Y-92322886D01*
X68337371Y-92096043D01*
X68441775Y-91843989D01*
X68495000Y-91576411D01*
X68495000Y-91303589D01*
X68441775Y-91036011D01*
X68337371Y-90783957D01*
X68185799Y-90557114D01*
X67992886Y-90364201D01*
X67766043Y-90212629D01*
X67513989Y-90108225D01*
X67246411Y-90055000D01*
X66973589Y-90055000D01*
X66706011Y-90108225D01*
X66453957Y-90212629D01*
X66227114Y-90364201D01*
X66034201Y-90557114D01*
X65882629Y-90783957D01*
X65778225Y-91036011D01*
X65725000Y-91303589D01*
X63615000Y-91303589D01*
X63561775Y-91036011D01*
X63457371Y-90783957D01*
X63305799Y-90557114D01*
X63112886Y-90364201D01*
X62886043Y-90212629D01*
X62633989Y-90108225D01*
X62366411Y-90055000D01*
X62093589Y-90055000D01*
X61826011Y-90108225D01*
X61573957Y-90212629D01*
X61347114Y-90364201D01*
X61154201Y-90557114D01*
X61002629Y-90783957D01*
X60898225Y-91036011D01*
X60845000Y-91303589D01*
X55567212Y-91303589D01*
X57464802Y-89406000D01*
X62192678Y-89406000D01*
X62230000Y-89409676D01*
X62267322Y-89406000D01*
X62267333Y-89406000D01*
X62378986Y-89395003D01*
X62522247Y-89351546D01*
X62654276Y-89280974D01*
X62770001Y-89186001D01*
X62793804Y-89156997D01*
X67566001Y-84384801D01*
X67566000Y-88268677D01*
X67562324Y-88306000D01*
X67566000Y-88343322D01*
X67566000Y-88343332D01*
X67576997Y-88454985D01*
X67609543Y-88562276D01*
X67620454Y-88598246D01*
X67691026Y-88730276D01*
X67726068Y-88772974D01*
X67785999Y-88846001D01*
X67815003Y-88869804D01*
X74758790Y-95813592D01*
X74715000Y-96033740D01*
X74715000Y-96326260D01*
X74753935Y-96522000D01*
X70065306Y-96522000D01*
X70065000Y-96465750D01*
X69906250Y-96307000D01*
X68707000Y-96307000D01*
X68707000Y-96327000D01*
X68453000Y-96327000D01*
X68453000Y-96307000D01*
X68433000Y-96307000D01*
X68433000Y-96053000D01*
X68453000Y-96053000D01*
X68453000Y-94853750D01*
X68707000Y-94853750D01*
X68707000Y-96053000D01*
X69906250Y-96053000D01*
X70065000Y-95894250D01*
X70068072Y-95330000D01*
X70055812Y-95205518D01*
X70019502Y-95085820D01*
X69960537Y-94975506D01*
X69881185Y-94878815D01*
X69784494Y-94799463D01*
X69674180Y-94740498D01*
X69554482Y-94704188D01*
X69430000Y-94691928D01*
X68865750Y-94695000D01*
X68707000Y-94853750D01*
X68453000Y-94853750D01*
X68294250Y-94695000D01*
X67730000Y-94691928D01*
X67605518Y-94704188D01*
X67485820Y-94740498D01*
X67375506Y-94799463D01*
X67278815Y-94878815D01*
X67199463Y-94975506D01*
X67140498Y-95085820D01*
X67118487Y-95158380D01*
X66986632Y-95026525D01*
X66743411Y-94864010D01*
X66473158Y-94752068D01*
X66186260Y-94695000D01*
X65893740Y-94695000D01*
X65606842Y-94752068D01*
X65336589Y-94864010D01*
X65093368Y-95026525D01*
X64886525Y-95233368D01*
X64770000Y-95407760D01*
X64653475Y-95233368D01*
X64446632Y-95026525D01*
X64203411Y-94864010D01*
X63933158Y-94752068D01*
X63646260Y-94695000D01*
X63353740Y-94695000D01*
X63066842Y-94752068D01*
X62796589Y-94864010D01*
X62553368Y-95026525D01*
X62346525Y-95233368D01*
X62230000Y-95407760D01*
X62113475Y-95233368D01*
X61906632Y-95026525D01*
X61663411Y-94864010D01*
X61393158Y-94752068D01*
X61106260Y-94695000D01*
X60813740Y-94695000D01*
X60526842Y-94752068D01*
X60256589Y-94864010D01*
X60013368Y-95026525D01*
X59806525Y-95233368D01*
X59644010Y-95476589D01*
X59532068Y-95746842D01*
X59475000Y-96033740D01*
X59475000Y-96326260D01*
X59532068Y-96613158D01*
X59644010Y-96883411D01*
X59806525Y-97126632D01*
X59809893Y-97130000D01*
X54475083Y-97130000D01*
X54611641Y-96946920D01*
X54736825Y-96684099D01*
X54781476Y-96536890D01*
X54660155Y-96307000D01*
X53467000Y-96307000D01*
X53467000Y-96327000D01*
X53213000Y-96327000D01*
X53213000Y-96307000D01*
X52019845Y-96307000D01*
X51898524Y-96536890D01*
X51943175Y-96684099D01*
X52068359Y-96946920D01*
X52204917Y-97130000D01*
X51460000Y-97130000D01*
X51460000Y-93996890D01*
X51898524Y-93996890D01*
X51943175Y-94144099D01*
X52068359Y-94406920D01*
X52242412Y-94640269D01*
X52458645Y-94835178D01*
X52584255Y-94910000D01*
X52458645Y-94984822D01*
X52242412Y-95179731D01*
X52068359Y-95413080D01*
X51943175Y-95675901D01*
X51898524Y-95823110D01*
X52019845Y-96053000D01*
X53213000Y-96053000D01*
X53213000Y-93767000D01*
X53467000Y-93767000D01*
X53467000Y-96053000D01*
X54660155Y-96053000D01*
X54781476Y-95823110D01*
X54736825Y-95675901D01*
X54611641Y-95413080D01*
X54437588Y-95179731D01*
X54221355Y-94984822D01*
X54095745Y-94910000D01*
X54221355Y-94835178D01*
X54437588Y-94640269D01*
X54611641Y-94406920D01*
X54736825Y-94144099D01*
X54781476Y-93996890D01*
X54660155Y-93767000D01*
X53467000Y-93767000D01*
X53213000Y-93767000D01*
X52019845Y-93767000D01*
X51898524Y-93996890D01*
X51460000Y-93996890D01*
X51460000Y-43586061D01*
X66021000Y-43586061D01*
X66021000Y-43789939D01*
X66060774Y-43989898D01*
X66138795Y-44178256D01*
X66252063Y-44347774D01*
X66396226Y-44491937D01*
X66565744Y-44605205D01*
X66754102Y-44683226D01*
X66954061Y-44723000D01*
X67157939Y-44723000D01*
X67357898Y-44683226D01*
X67546256Y-44605205D01*
X67715774Y-44491937D01*
X67759711Y-44448000D01*
X69050678Y-44448000D01*
X69088000Y-44451676D01*
X69125322Y-44448000D01*
X69125333Y-44448000D01*
X69236986Y-44437003D01*
X69380247Y-44393546D01*
X69512276Y-44322974D01*
X69628001Y-44228001D01*
X69651804Y-44198997D01*
X71565621Y-42285181D01*
X71586063Y-42315774D01*
X71630000Y-42359711D01*
X71630001Y-44643197D01*
X69048199Y-47225000D01*
X68986061Y-47225000D01*
X68786102Y-47264774D01*
X68597744Y-47342795D01*
X68428226Y-47456063D01*
X68284063Y-47600226D01*
X68170795Y-47769744D01*
X68092774Y-47958102D01*
X68053000Y-48158061D01*
X68053000Y-48361939D01*
X68062162Y-48407999D01*
X68027159Y-48407999D01*
X67973205Y-48277744D01*
X67859937Y-48108226D01*
X67715774Y-47964063D01*
X67546256Y-47850795D01*
X67357898Y-47772774D01*
X67157939Y-47733000D01*
X66954061Y-47733000D01*
X66754102Y-47772774D01*
X66565744Y-47850795D01*
X66396226Y-47964063D01*
X66252063Y-48108226D01*
X66138795Y-48277744D01*
X66060774Y-48466102D01*
X66021000Y-48666061D01*
X66021000Y-48869939D01*
X66060774Y-49069898D01*
X66138795Y-49258256D01*
X66252063Y-49427774D01*
X66396226Y-49571937D01*
X66565744Y-49685205D01*
X66754102Y-49763226D01*
X66954061Y-49803000D01*
X67031774Y-49803000D01*
X67163752Y-49873545D01*
X67307013Y-49917002D01*
X67418666Y-49927999D01*
X67418676Y-49927999D01*
X67455998Y-49931675D01*
X67493321Y-49927999D01*
X71522001Y-49927999D01*
X69729999Y-51720001D01*
X69667861Y-51720001D01*
X69467902Y-51759775D01*
X69279544Y-51837796D01*
X69110026Y-51951064D01*
X68965863Y-52095227D01*
X68852595Y-52264745D01*
X68774574Y-52453103D01*
X68734800Y-52653062D01*
X68734800Y-52856940D01*
X68774574Y-53056899D01*
X68852595Y-53245257D01*
X68965863Y-53414775D01*
X69110026Y-53558938D01*
X69279544Y-53672206D01*
X69467902Y-53750227D01*
X69667861Y-53790001D01*
X69871739Y-53790001D01*
X70071698Y-53750227D01*
X70260056Y-53672206D01*
X70429574Y-53558938D01*
X70573737Y-53414775D01*
X70687005Y-53245257D01*
X70765026Y-53056899D01*
X70804800Y-52856940D01*
X70804800Y-52794802D01*
X74722478Y-48877124D01*
X74724188Y-48894482D01*
X74760498Y-49014180D01*
X74819463Y-49124494D01*
X74898815Y-49221185D01*
X74995506Y-49300537D01*
X75105820Y-49359502D01*
X75186466Y-49383966D01*
X75102412Y-49459731D01*
X74928359Y-49693080D01*
X74803175Y-49955901D01*
X74758524Y-50103110D01*
X74879845Y-50333000D01*
X76073000Y-50333000D01*
X76073000Y-50313000D01*
X76327000Y-50313000D01*
X76327000Y-50333000D01*
X77520155Y-50333000D01*
X77641476Y-50103110D01*
X77596825Y-49955901D01*
X77471641Y-49693080D01*
X77297588Y-49459731D01*
X77213534Y-49383966D01*
X77294180Y-49359502D01*
X77404494Y-49300537D01*
X77501185Y-49221185D01*
X77580537Y-49124494D01*
X77639502Y-49014180D01*
X77675812Y-48894482D01*
X77688072Y-48770000D01*
X77688072Y-47070000D01*
X77675812Y-46945518D01*
X77639502Y-46825820D01*
X77580537Y-46715506D01*
X77501185Y-46618815D01*
X77404494Y-46539463D01*
X77294180Y-46480498D01*
X77174482Y-46444188D01*
X77050000Y-46431928D01*
X75350000Y-46431928D01*
X75225518Y-46444188D01*
X75105820Y-46480498D01*
X74995506Y-46539463D01*
X74898815Y-46618815D01*
X74832875Y-46699164D01*
X74827774Y-46694063D01*
X74658256Y-46580795D01*
X74469898Y-46502774D01*
X74269939Y-46463000D01*
X74066061Y-46463000D01*
X73866102Y-46502774D01*
X73677744Y-46580795D01*
X73508226Y-46694063D01*
X73364063Y-46838226D01*
X73250795Y-47007744D01*
X73172774Y-47196102D01*
X73133000Y-47396061D01*
X73133000Y-47458198D01*
X72183200Y-48407999D01*
X70113838Y-48407999D01*
X70123000Y-48361939D01*
X70123000Y-48299801D01*
X72901003Y-45521799D01*
X72930001Y-45498001D01*
X73024974Y-45382276D01*
X73095546Y-45250247D01*
X73139003Y-45106986D01*
X73150000Y-44995333D01*
X73150000Y-44995324D01*
X73153676Y-44958001D01*
X73150000Y-44920678D01*
X73150000Y-44641711D01*
X73254226Y-44745937D01*
X73423744Y-44859205D01*
X73612102Y-44937226D01*
X73812061Y-44977000D01*
X74015939Y-44977000D01*
X74215898Y-44937226D01*
X74404256Y-44859205D01*
X74573774Y-44745937D01*
X74717937Y-44601774D01*
X74831205Y-44432256D01*
X74909226Y-44243898D01*
X74949000Y-44043939D01*
X74949000Y-43840061D01*
X74909226Y-43640102D01*
X74831205Y-43451744D01*
X74717937Y-43282226D01*
X74674000Y-43238289D01*
X74674000Y-41693322D01*
X74677676Y-41656000D01*
X74674000Y-41618677D01*
X74674000Y-41618667D01*
X74663003Y-41507014D01*
X74619546Y-41363753D01*
X74548975Y-41231725D01*
X74548974Y-41231723D01*
X74477799Y-41144997D01*
X74454001Y-41115999D01*
X74425004Y-41092202D01*
X73461804Y-40129002D01*
X73438001Y-40099999D01*
X73322276Y-40005026D01*
X73190247Y-39934454D01*
X73046986Y-39890997D01*
X72935333Y-39880000D01*
X72935322Y-39880000D01*
X72898000Y-39876324D01*
X72860678Y-39880000D01*
X72173323Y-39880000D01*
X72136000Y-39876324D01*
X72098677Y-39880000D01*
X72098667Y-39880000D01*
X71987014Y-39890997D01*
X71843753Y-39934454D01*
X71711723Y-40005026D01*
X71634916Y-40068061D01*
X71595999Y-40099999D01*
X71572201Y-40128997D01*
X70617000Y-41084198D01*
X70617000Y-40818000D01*
X70566092Y-40555117D01*
X70464876Y-40307217D01*
X70317242Y-40083827D01*
X70128863Y-39893531D01*
X69906979Y-39743643D01*
X69660117Y-39639922D01*
X69594258Y-39627481D01*
X69384000Y-39750482D01*
X69384000Y-41093000D01*
X69404000Y-41093000D01*
X69404000Y-41347000D01*
X69384000Y-41347000D01*
X69384000Y-41367000D01*
X69130000Y-41367000D01*
X69130000Y-41347000D01*
X67897000Y-41347000D01*
X67897000Y-41622000D01*
X67947908Y-41884883D01*
X68049124Y-42132783D01*
X68196758Y-42356173D01*
X68385137Y-42546469D01*
X68607021Y-42696357D01*
X68853883Y-42800078D01*
X68893615Y-42807584D01*
X68773199Y-42928000D01*
X67759711Y-42928000D01*
X67715774Y-42884063D01*
X67546256Y-42770795D01*
X67357898Y-42692774D01*
X67157939Y-42653000D01*
X66954061Y-42653000D01*
X66754102Y-42692774D01*
X66565744Y-42770795D01*
X66396226Y-42884063D01*
X66252063Y-43028226D01*
X66138795Y-43197744D01*
X66060774Y-43386102D01*
X66021000Y-43586061D01*
X51460000Y-43586061D01*
X51460000Y-41347000D01*
X60447000Y-41347000D01*
X60447000Y-41622000D01*
X60497908Y-41884883D01*
X60599124Y-42132783D01*
X60746758Y-42356173D01*
X60935137Y-42546469D01*
X61157021Y-42696357D01*
X61403883Y-42800078D01*
X61469742Y-42812519D01*
X61680000Y-42689518D01*
X61680000Y-41347000D01*
X61934000Y-41347000D01*
X61934000Y-42689518D01*
X62144258Y-42812519D01*
X62210117Y-42800078D01*
X62456979Y-42696357D01*
X62678863Y-42546469D01*
X62867242Y-42356173D01*
X63014876Y-42132783D01*
X63116092Y-41884883D01*
X63167000Y-41622000D01*
X63167000Y-41347000D01*
X61934000Y-41347000D01*
X61680000Y-41347000D01*
X60447000Y-41347000D01*
X51460000Y-41347000D01*
X51460000Y-40818000D01*
X60447000Y-40818000D01*
X60447000Y-41093000D01*
X61680000Y-41093000D01*
X61680000Y-39750482D01*
X61934000Y-39750482D01*
X61934000Y-41093000D01*
X62555734Y-41093000D01*
X62730102Y-41165226D01*
X62930061Y-41205000D01*
X63133939Y-41205000D01*
X63333898Y-41165226D01*
X63522256Y-41087205D01*
X63691774Y-40973937D01*
X63835937Y-40829774D01*
X63949205Y-40660256D01*
X64027226Y-40471898D01*
X64067000Y-40271939D01*
X64067000Y-40068061D01*
X66997000Y-40068061D01*
X66997000Y-40271939D01*
X67036774Y-40471898D01*
X67114795Y-40660256D01*
X67228063Y-40829774D01*
X67372226Y-40973937D01*
X67541744Y-41087205D01*
X67730102Y-41165226D01*
X67930061Y-41205000D01*
X68133939Y-41205000D01*
X68333898Y-41165226D01*
X68508266Y-41093000D01*
X69130000Y-41093000D01*
X69130000Y-39750482D01*
X68919742Y-39627481D01*
X68914896Y-39628396D01*
X68835937Y-39510226D01*
X68691774Y-39366063D01*
X68522256Y-39252795D01*
X68333898Y-39174774D01*
X68133939Y-39135000D01*
X67930061Y-39135000D01*
X67730102Y-39174774D01*
X67541744Y-39252795D01*
X67372226Y-39366063D01*
X67228063Y-39510226D01*
X67114795Y-39679744D01*
X67036774Y-39868102D01*
X66997000Y-40068061D01*
X64067000Y-40068061D01*
X64027226Y-39868102D01*
X63949205Y-39679744D01*
X63835937Y-39510226D01*
X63691774Y-39366063D01*
X63522256Y-39252795D01*
X63333898Y-39174774D01*
X63133939Y-39135000D01*
X62930061Y-39135000D01*
X62730102Y-39174774D01*
X62541744Y-39252795D01*
X62372226Y-39366063D01*
X62228063Y-39510226D01*
X62149104Y-39628396D01*
X62144258Y-39627481D01*
X61934000Y-39750482D01*
X61680000Y-39750482D01*
X61469742Y-39627481D01*
X61403883Y-39639922D01*
X61157021Y-39743643D01*
X60935137Y-39893531D01*
X60746758Y-40083827D01*
X60599124Y-40307217D01*
X60497908Y-40555117D01*
X60447000Y-40818000D01*
X51460000Y-40818000D01*
X51460000Y-37547000D01*
X60447000Y-37547000D01*
X60447000Y-37872000D01*
X60495026Y-38105619D01*
X60587706Y-38325380D01*
X60721479Y-38522837D01*
X60891203Y-38690402D01*
X61090356Y-38821636D01*
X61311285Y-38911496D01*
X61343323Y-38913635D01*
X61530000Y-38788550D01*
X61530000Y-37547000D01*
X61784000Y-37547000D01*
X61784000Y-38788550D01*
X61970677Y-38913635D01*
X62002715Y-38911496D01*
X62223644Y-38821636D01*
X62422797Y-38690402D01*
X62592521Y-38522837D01*
X62726294Y-38325380D01*
X62818974Y-38105619D01*
X62867000Y-37872000D01*
X62867000Y-37547000D01*
X68197000Y-37547000D01*
X68197000Y-37872000D01*
X68245026Y-38105619D01*
X68337706Y-38325380D01*
X68471479Y-38522837D01*
X68641203Y-38690402D01*
X68840356Y-38821636D01*
X69061285Y-38911496D01*
X69093323Y-38913635D01*
X69280000Y-38788550D01*
X69280000Y-37547000D01*
X69534000Y-37547000D01*
X69534000Y-38788550D01*
X69720677Y-38913635D01*
X69752715Y-38911496D01*
X69973644Y-38821636D01*
X70172797Y-38690402D01*
X70342521Y-38522837D01*
X70476294Y-38325380D01*
X70568974Y-38105619D01*
X70617000Y-37872000D01*
X70617000Y-37547000D01*
X69534000Y-37547000D01*
X69280000Y-37547000D01*
X68197000Y-37547000D01*
X62867000Y-37547000D01*
X61784000Y-37547000D01*
X61530000Y-37547000D01*
X60447000Y-37547000D01*
X51460000Y-37547000D01*
X51460000Y-36220000D01*
X60819894Y-36220000D01*
X60721479Y-36317163D01*
G36*
X73662001Y-68640803D02*
G01*
X73662000Y-73091198D01*
X73620198Y-73133000D01*
X73558061Y-73133000D01*
X73358102Y-73172774D01*
X73169744Y-73250795D01*
X73000226Y-73364063D01*
X72856063Y-73508226D01*
X72742795Y-73677744D01*
X72664774Y-73866102D01*
X72625000Y-74066061D01*
X72625000Y-74125330D01*
X72612000Y-74135999D01*
X72588202Y-74164997D01*
X72588201Y-74164998D01*
X72517026Y-74251724D01*
X72446454Y-74383754D01*
X72402998Y-74527015D01*
X72388324Y-74676000D01*
X72392001Y-74713332D01*
X72392000Y-78213000D01*
X72288061Y-78213000D01*
X72088102Y-78252774D01*
X71899744Y-78330795D01*
X71730226Y-78444063D01*
X71686289Y-78488000D01*
X65570711Y-78488000D01*
X65526774Y-78444063D01*
X65357256Y-78330795D01*
X65168898Y-78252774D01*
X65022000Y-78223554D01*
X65022000Y-72839711D01*
X65065937Y-72795774D01*
X65179205Y-72626256D01*
X65257226Y-72437898D01*
X65297000Y-72237939D01*
X65297000Y-72037725D01*
X65484102Y-72115226D01*
X65684061Y-72155000D01*
X65887939Y-72155000D01*
X66087898Y-72115226D01*
X66276256Y-72037205D01*
X66445774Y-71923937D01*
X66589937Y-71779774D01*
X66703205Y-71610256D01*
X66781226Y-71421898D01*
X66821000Y-71221939D01*
X66821000Y-71018061D01*
X66781226Y-70818102D01*
X66744167Y-70728634D01*
X69635802Y-67837000D01*
X69697939Y-67837000D01*
X69897898Y-67797226D01*
X70086256Y-67719205D01*
X70106001Y-67706012D01*
X70106000Y-69027198D01*
X69339002Y-69794197D01*
X69338997Y-69794201D01*
X66036998Y-73096201D01*
X66008000Y-73119999D01*
X65984202Y-73148997D01*
X65984201Y-73148998D01*
X65913026Y-73235724D01*
X65842454Y-73367754D01*
X65831361Y-73404324D01*
X65807459Y-73483123D01*
X65798998Y-73511015D01*
X65784324Y-73660000D01*
X65788001Y-73697332D01*
X65788001Y-73972288D01*
X65744063Y-74016226D01*
X65630795Y-74185744D01*
X65552774Y-74374102D01*
X65513000Y-74574061D01*
X65513000Y-74777939D01*
X65552774Y-74977898D01*
X65630795Y-75166256D01*
X65744063Y-75335774D01*
X65888226Y-75479937D01*
X66057744Y-75593205D01*
X66246102Y-75671226D01*
X66446061Y-75711000D01*
X66649939Y-75711000D01*
X66849898Y-75671226D01*
X67038256Y-75593205D01*
X67207774Y-75479937D01*
X67351937Y-75335774D01*
X67443165Y-75199241D01*
X67462061Y-75203000D01*
X67665939Y-75203000D01*
X67865898Y-75163226D01*
X68054256Y-75085205D01*
X68223774Y-74971937D01*
X68367937Y-74827774D01*
X68481205Y-74658256D01*
X68559226Y-74469898D01*
X68599000Y-74269939D01*
X68599000Y-74207801D01*
X72393004Y-70413798D01*
X72422001Y-70390001D01*
X72516974Y-70274276D01*
X72587546Y-70142247D01*
X72631003Y-69998986D01*
X72642000Y-69887333D01*
X72642000Y-69887324D01*
X72645676Y-69850001D01*
X72642000Y-69812678D01*
X72642000Y-67620802D01*
X73662001Y-68640803D01*
G37*
X73662001Y-68640803D02*
X73662000Y-73091198D01*
X73620198Y-73133000D01*
X73558061Y-73133000D01*
X73358102Y-73172774D01*
X73169744Y-73250795D01*
X73000226Y-73364063D01*
X72856063Y-73508226D01*
X72742795Y-73677744D01*
X72664774Y-73866102D01*
X72625000Y-74066061D01*
X72625000Y-74125330D01*
X72612000Y-74135999D01*
X72588202Y-74164997D01*
X72588201Y-74164998D01*
X72517026Y-74251724D01*
X72446454Y-74383754D01*
X72402998Y-74527015D01*
X72388324Y-74676000D01*
X72392001Y-74713332D01*
X72392000Y-78213000D01*
X72288061Y-78213000D01*
X72088102Y-78252774D01*
X71899744Y-78330795D01*
X71730226Y-78444063D01*
X71686289Y-78488000D01*
X65570711Y-78488000D01*
X65526774Y-78444063D01*
X65357256Y-78330795D01*
X65168898Y-78252774D01*
X65022000Y-78223554D01*
X65022000Y-72839711D01*
X65065937Y-72795774D01*
X65179205Y-72626256D01*
X65257226Y-72437898D01*
X65297000Y-72237939D01*
X65297000Y-72037725D01*
X65484102Y-72115226D01*
X65684061Y-72155000D01*
X65887939Y-72155000D01*
X66087898Y-72115226D01*
X66276256Y-72037205D01*
X66445774Y-71923937D01*
X66589937Y-71779774D01*
X66703205Y-71610256D01*
X66781226Y-71421898D01*
X66821000Y-71221939D01*
X66821000Y-71018061D01*
X66781226Y-70818102D01*
X66744167Y-70728634D01*
X69635802Y-67837000D01*
X69697939Y-67837000D01*
X69897898Y-67797226D01*
X70086256Y-67719205D01*
X70106001Y-67706012D01*
X70106000Y-69027198D01*
X69339002Y-69794197D01*
X69338997Y-69794201D01*
X66036998Y-73096201D01*
X66008000Y-73119999D01*
X65984202Y-73148997D01*
X65984201Y-73148998D01*
X65913026Y-73235724D01*
X65842454Y-73367754D01*
X65831361Y-73404324D01*
X65807459Y-73483123D01*
X65798998Y-73511015D01*
X65784324Y-73660000D01*
X65788001Y-73697332D01*
X65788001Y-73972288D01*
X65744063Y-74016226D01*
X65630795Y-74185744D01*
X65552774Y-74374102D01*
X65513000Y-74574061D01*
X65513000Y-74777939D01*
X65552774Y-74977898D01*
X65630795Y-75166256D01*
X65744063Y-75335774D01*
X65888226Y-75479937D01*
X66057744Y-75593205D01*
X66246102Y-75671226D01*
X66446061Y-75711000D01*
X66649939Y-75711000D01*
X66849898Y-75671226D01*
X67038256Y-75593205D01*
X67207774Y-75479937D01*
X67351937Y-75335774D01*
X67443165Y-75199241D01*
X67462061Y-75203000D01*
X67665939Y-75203000D01*
X67865898Y-75163226D01*
X68054256Y-75085205D01*
X68223774Y-74971937D01*
X68367937Y-74827774D01*
X68481205Y-74658256D01*
X68559226Y-74469898D01*
X68599000Y-74269939D01*
X68599000Y-74207801D01*
X72393004Y-70413798D01*
X72422001Y-70390001D01*
X72516974Y-70274276D01*
X72587546Y-70142247D01*
X72631003Y-69998986D01*
X72642000Y-69887333D01*
X72642000Y-69887324D01*
X72645676Y-69850001D01*
X72642000Y-69812678D01*
X72642000Y-67620802D01*
X73662001Y-68640803D01*
G36*
X60741928Y-63842000D02*
G01*
X60754188Y-63966482D01*
X60790498Y-64086180D01*
X60849463Y-64196494D01*
X60928815Y-64293185D01*
X61025506Y-64372537D01*
X61135820Y-64431502D01*
X61255518Y-64467812D01*
X61380000Y-64480072D01*
X62643270Y-64480072D01*
X63190205Y-65027008D01*
X63213999Y-65056001D01*
X63242992Y-65079795D01*
X63242996Y-65079799D01*
X63302966Y-65129014D01*
X63329724Y-65150974D01*
X63461753Y-65221546D01*
X63605014Y-65265003D01*
X63716667Y-65276000D01*
X63716676Y-65276000D01*
X63753999Y-65279676D01*
X63791322Y-65276000D01*
X68130289Y-65276000D01*
X68174226Y-65319937D01*
X68343744Y-65433205D01*
X68532102Y-65511226D01*
X68732061Y-65551000D01*
X68756198Y-65551000D01*
X64476199Y-69831000D01*
X64414061Y-69831000D01*
X64250847Y-69863465D01*
X64241068Y-69853686D01*
X64071550Y-69740418D01*
X63883192Y-69662397D01*
X63683233Y-69622623D01*
X63479355Y-69622623D01*
X63279396Y-69662397D01*
X63091038Y-69740418D01*
X62921520Y-69853686D01*
X62777357Y-69997849D01*
X62664089Y-70167367D01*
X62586068Y-70355725D01*
X62555659Y-70508602D01*
X62486038Y-70537440D01*
X62316520Y-70650708D01*
X62172357Y-70794871D01*
X62059089Y-70964389D01*
X61981068Y-71152747D01*
X61941294Y-71352706D01*
X61941294Y-71556584D01*
X61981068Y-71756543D01*
X62059089Y-71944901D01*
X62172357Y-72114419D01*
X62216294Y-72158356D01*
X62216294Y-72825836D01*
X62160430Y-72690969D01*
X62047162Y-72521451D01*
X61902999Y-72377288D01*
X61733481Y-72264020D01*
X61545123Y-72185999D01*
X61345164Y-72146225D01*
X61283026Y-72146225D01*
X61269803Y-72133002D01*
X61246001Y-72103999D01*
X61130276Y-72009026D01*
X60998247Y-71938454D01*
X60854986Y-71894997D01*
X60743333Y-71884000D01*
X60743322Y-71884000D01*
X60706000Y-71880324D01*
X60668678Y-71884000D01*
X59885711Y-71884000D01*
X59841774Y-71840063D01*
X59672256Y-71726795D01*
X59483898Y-71648774D01*
X59283939Y-71609000D01*
X59080061Y-71609000D01*
X58926000Y-71639644D01*
X58926000Y-65084801D01*
X60258802Y-63752000D01*
X60741928Y-63752000D01*
X60741928Y-63842000D01*
G37*
X60741928Y-63842000D02*
X60754188Y-63966482D01*
X60790498Y-64086180D01*
X60849463Y-64196494D01*
X60928815Y-64293185D01*
X61025506Y-64372537D01*
X61135820Y-64431502D01*
X61255518Y-64467812D01*
X61380000Y-64480072D01*
X62643270Y-64480072D01*
X63190205Y-65027008D01*
X63213999Y-65056001D01*
X63242992Y-65079795D01*
X63242996Y-65079799D01*
X63302966Y-65129014D01*
X63329724Y-65150974D01*
X63461753Y-65221546D01*
X63605014Y-65265003D01*
X63716667Y-65276000D01*
X63716676Y-65276000D01*
X63753999Y-65279676D01*
X63791322Y-65276000D01*
X68130289Y-65276000D01*
X68174226Y-65319937D01*
X68343744Y-65433205D01*
X68532102Y-65511226D01*
X68732061Y-65551000D01*
X68756198Y-65551000D01*
X64476199Y-69831000D01*
X64414061Y-69831000D01*
X64250847Y-69863465D01*
X64241068Y-69853686D01*
X64071550Y-69740418D01*
X63883192Y-69662397D01*
X63683233Y-69622623D01*
X63479355Y-69622623D01*
X63279396Y-69662397D01*
X63091038Y-69740418D01*
X62921520Y-69853686D01*
X62777357Y-69997849D01*
X62664089Y-70167367D01*
X62586068Y-70355725D01*
X62555659Y-70508602D01*
X62486038Y-70537440D01*
X62316520Y-70650708D01*
X62172357Y-70794871D01*
X62059089Y-70964389D01*
X61981068Y-71152747D01*
X61941294Y-71352706D01*
X61941294Y-71556584D01*
X61981068Y-71756543D01*
X62059089Y-71944901D01*
X62172357Y-72114419D01*
X62216294Y-72158356D01*
X62216294Y-72825836D01*
X62160430Y-72690969D01*
X62047162Y-72521451D01*
X61902999Y-72377288D01*
X61733481Y-72264020D01*
X61545123Y-72185999D01*
X61345164Y-72146225D01*
X61283026Y-72146225D01*
X61269803Y-72133002D01*
X61246001Y-72103999D01*
X61130276Y-72009026D01*
X60998247Y-71938454D01*
X60854986Y-71894997D01*
X60743333Y-71884000D01*
X60743322Y-71884000D01*
X60706000Y-71880324D01*
X60668678Y-71884000D01*
X59885711Y-71884000D01*
X59841774Y-71840063D01*
X59672256Y-71726795D01*
X59483898Y-71648774D01*
X59283939Y-71609000D01*
X59080061Y-71609000D01*
X58926000Y-71639644D01*
X58926000Y-65084801D01*
X60258802Y-63752000D01*
X60741928Y-63752000D01*
X60741928Y-63842000D01*
G36*
X64897000Y-62865000D02*
G01*
X64917000Y-62865000D01*
X64917000Y-63119000D01*
X64897000Y-63119000D01*
X64897000Y-63139000D01*
X64643000Y-63139000D01*
X64643000Y-63119000D01*
X64623000Y-63119000D01*
X64623000Y-62865000D01*
X64643000Y-62865000D01*
X64643000Y-62845000D01*
X64897000Y-62845000D01*
X64897000Y-62865000D01*
G37*
X64897000Y-62865000D02*
X64917000Y-62865000D01*
X64917000Y-63119000D01*
X64897000Y-63119000D01*
X64897000Y-63139000D01*
X64643000Y-63139000D01*
X64643000Y-63119000D01*
X64623000Y-63119000D01*
X64623000Y-62865000D01*
X64643000Y-62865000D01*
X64643000Y-62845000D01*
X64897000Y-62845000D01*
X64897000Y-62865000D01*
%TD*%
M02*
