M48
; DRILL file {KiCad (5.1.6)-1} date 02/04/21 14:06:55
; FORMAT={-:-/ absolute / inch / decimal}
; #@! TF.CreationDate,2021-02-04T14:06:55+01:00
; #@! TF.GenerationSoftware,Kicad,Pcbnew,(5.1.6)-1
; #@! TF.FileFunction,Plated,1,2,PTH
FMAT,2
INCH
T1C0.0157
T2C0.0217
T3C0.0315
T4C0.0335
T5C0.0394
%
G90
G05
T1
X2.04Y-3.44
X2.04Y-3.62
X2.15Y-1.69
X2.15Y-1.79
X2.17Y-1.58
X2.17Y-2.54
X2.17Y-2.63
X2.17Y-3.06
X2.18Y-1.99
X2.2Y-2.72
X2.29Y-1.58
X2.29Y-2.89
X2.31Y-3.82
X2.32Y-1.68
X2.33Y-2.86
X2.3562Y-1.98
X2.37Y-2.71
X2.38Y-1.87
X2.38Y-3.17
X2.4112Y-2.8812
X2.42Y-1.74
X2.42Y-1.81
X2.4768Y-2.0332
X2.4794Y-2.8132
X2.48Y-3.17
X2.49Y-1.88
X2.5032Y-2.7818
X2.53Y-1.92
X2.53Y-2.14
X2.53Y-2.84
X2.54Y-2.79
X2.5538Y-3.12
X2.57Y-2.3
X2.59Y-2.8
X2.6Y-1.87
X2.6Y-3.29
X2.62Y-2.94
X2.63Y-2.3
X2.64Y-1.72
X2.64Y-1.92
X2.64Y-3.22
X2.66Y-2.92
X2.69Y-3.26
X2.71Y-2.54
X2.72Y-1.9
X2.73Y-2.26
X2.73Y-3.25
X2.74Y-2.63
X2.7468Y-2.077
X2.75Y-2.32
X2.75Y-2.41
X2.75Y-2.51
X2.75Y-2.57
X2.77Y-2.88
X2.78Y-3.25
X2.79Y-2.26
X2.79Y-2.62
X2.79Y-3.76
X2.83Y-2.63
X2.85Y-1.64
X2.85Y-3.12
X2.86Y-3.76
X2.87Y-2.36
X2.87Y-2.42
X2.9Y-2.92
X2.9062Y-2.84
X2.91Y-1.73
X2.92Y-1.87
X2.92Y-3.78
X2.97Y-1.78
X3.02Y-1.78
X3.05Y-3.14
X3.07Y-2.78
X3.07Y-2.9
T3
X2.45Y-3.6
X2.6421Y-3.6
T5
X3.0Y-1.8866
X3.0Y-1.9866
X3.0Y-2.0866
X3.0Y-2.1866
X3.0Y-2.2866
X3.0Y-2.3866
X3.0Y-2.4866
X3.0Y-2.5866
X3.0Y-2.6866
X3.0Y-2.7866
X3.0Y-2.8866
X3.0Y-2.9866
X3.0Y-3.0866
X3.0Y-3.1866
X3.0Y-3.2866
X3.0Y-3.3866
X3.0Y-3.4866
X3.0Y-3.5866
X3.0Y-3.6866
X3.0Y-3.7866
X2.45Y-2.38
X2.45Y-2.48
X2.55Y-2.38
X2.55Y-2.48
X2.65Y-2.38
X2.65Y-2.48
X2.4Y-3.7866
X2.5Y-3.7866
X2.6Y-3.7866
X2.7Y-3.7866
X2.1Y-1.8866
X2.1Y-1.9866
X2.1Y-2.0866
X2.1Y-2.1866
X2.1Y-2.2866
X2.1Y-2.3866
X2.1Y-2.4866
X2.1Y-2.5866
X2.1Y-2.6866
X2.1Y-2.7866
X2.1Y-2.8866
X2.1Y-2.9866
X2.1Y-3.0866
X2.1Y-3.1866
X2.1Y-3.2866
X2.1Y-3.3866
X2.1Y-3.4866
X2.1Y-3.5866
X2.1Y-3.6866
X2.1Y-3.7866
T2
G00X2.4274Y-1.486
M15
G01X2.4274Y-1.4604
M16
G05
G00X2.7326Y-1.486
M15
G01X2.7326Y-1.4604
M16
G05
T4
G00X2.4333Y-1.6337
M15
G01X2.4333Y-1.612
M16
G05
G00X2.7267Y-1.6337
M15
G01X2.7267Y-1.612
M16
G05
T0
M30
