%TF.GenerationSoftware,KiCad,Pcbnew,(5.1.6)-1*%
%TF.CreationDate,2021-02-05T10:54:59+01:00*%
%TF.ProjectId,DIY_Blackpill,4449595f-426c-4616-936b-70696c6c2e6b,rev?*%
%TF.SameCoordinates,Original*%
%TF.FileFunction,Paste,Top*%
%TF.FilePolarity,Positive*%
%FSLAX46Y46*%
G04 Gerber Fmt 4.6, Leading zero omitted, Abs format (unit mm)*
G04 Created by KiCad (PCBNEW (5.1.6)-1) date 2021-02-05 10:54:59*
%MOMM*%
%LPD*%
G01*
G04 APERTURE LIST*
%ADD10R,0.600000X1.250000*%
%ADD11R,1.500000X1.500000*%
%ADD12R,0.450000X1.300000*%
%ADD13R,0.400000X1.200000*%
G04 APERTURE END LIST*
D10*
%TO.C,U3*%
X63180000Y-56114000D03*
X61280000Y-56114000D03*
X61280000Y-53614000D03*
X62230000Y-53614000D03*
X63180000Y-53614000D03*
%TD*%
D11*
%TO.C,SW1*%
X68670000Y-85852000D03*
X60870000Y-85852000D03*
%TD*%
%TO.C,C1*%
G36*
G01*
X59884000Y-47962399D02*
X59884000Y-48862401D01*
G75*
G02*
X59634001Y-49112400I-249999J0D01*
G01*
X58983999Y-49112400D01*
G75*
G02*
X58734000Y-48862401I0J249999D01*
G01*
X58734000Y-47962399D01*
G75*
G02*
X58983999Y-47712400I249999J0D01*
G01*
X59634001Y-47712400D01*
G75*
G02*
X59884000Y-47962399I0J-249999D01*
G01*
G37*
G36*
G01*
X57834000Y-47962399D02*
X57834000Y-48862401D01*
G75*
G02*
X57584001Y-49112400I-249999J0D01*
G01*
X56933999Y-49112400D01*
G75*
G02*
X56684000Y-48862401I0J249999D01*
G01*
X56684000Y-47962399D01*
G75*
G02*
X56933999Y-47712400I249999J0D01*
G01*
X57584001Y-47712400D01*
G75*
G02*
X57834000Y-47962399I0J-249999D01*
G01*
G37*
%TD*%
%TO.C,C2*%
G36*
G01*
X72878101Y-74755700D02*
X71978099Y-74755700D01*
G75*
G02*
X71728100Y-74505701I0J249999D01*
G01*
X71728100Y-73855699D01*
G75*
G02*
X71978099Y-73605700I249999J0D01*
G01*
X72878101Y-73605700D01*
G75*
G02*
X73128100Y-73855699I0J-249999D01*
G01*
X73128100Y-74505701D01*
G75*
G02*
X72878101Y-74755700I-249999J0D01*
G01*
G37*
G36*
G01*
X72878101Y-72705700D02*
X71978099Y-72705700D01*
G75*
G02*
X71728100Y-72455701I0J249999D01*
G01*
X71728100Y-71805699D01*
G75*
G02*
X71978099Y-71555700I249999J0D01*
G01*
X72878101Y-71555700D01*
G75*
G02*
X73128100Y-71805699I0J-249999D01*
G01*
X73128100Y-72455701D01*
G75*
G02*
X72878101Y-72705700I-249999J0D01*
G01*
G37*
%TD*%
%TO.C,C3*%
G36*
G01*
X70323800Y-46881201D02*
X70323800Y-45981199D01*
G75*
G02*
X70573799Y-45731200I249999J0D01*
G01*
X71223801Y-45731200D01*
G75*
G02*
X71473800Y-45981199I0J-249999D01*
G01*
X71473800Y-46881201D01*
G75*
G02*
X71223801Y-47131200I-249999J0D01*
G01*
X70573799Y-47131200D01*
G75*
G02*
X70323800Y-46881201I0J249999D01*
G01*
G37*
G36*
G01*
X72373800Y-46881201D02*
X72373800Y-45981199D01*
G75*
G02*
X72623799Y-45731200I249999J0D01*
G01*
X73273801Y-45731200D01*
G75*
G02*
X73523800Y-45981199I0J-249999D01*
G01*
X73523800Y-46881201D01*
G75*
G02*
X73273801Y-47131200I-249999J0D01*
G01*
X72623799Y-47131200D01*
G75*
G02*
X72373800Y-46881201I0J249999D01*
G01*
G37*
%TD*%
%TO.C,C4*%
G36*
G01*
X57852000Y-43898399D02*
X57852000Y-44798401D01*
G75*
G02*
X57602001Y-45048400I-249999J0D01*
G01*
X56951999Y-45048400D01*
G75*
G02*
X56702000Y-44798401I0J249999D01*
G01*
X56702000Y-43898399D01*
G75*
G02*
X56951999Y-43648400I249999J0D01*
G01*
X57602001Y-43648400D01*
G75*
G02*
X57852000Y-43898399I0J-249999D01*
G01*
G37*
G36*
G01*
X59902000Y-43898399D02*
X59902000Y-44798401D01*
G75*
G02*
X59652001Y-45048400I-249999J0D01*
G01*
X59001999Y-45048400D01*
G75*
G02*
X58752000Y-44798401I0J249999D01*
G01*
X58752000Y-43898399D01*
G75*
G02*
X59001999Y-43648400I249999J0D01*
G01*
X59652001Y-43648400D01*
G75*
G02*
X59902000Y-43898399I0J-249999D01*
G01*
G37*
%TD*%
%TO.C,C5*%
G36*
G01*
X72373800Y-51453201D02*
X72373800Y-50553199D01*
G75*
G02*
X72623799Y-50303200I249999J0D01*
G01*
X73273801Y-50303200D01*
G75*
G02*
X73523800Y-50553199I0J-249999D01*
G01*
X73523800Y-51453201D01*
G75*
G02*
X73273801Y-51703200I-249999J0D01*
G01*
X72623799Y-51703200D01*
G75*
G02*
X72373800Y-51453201I0J249999D01*
G01*
G37*
G36*
G01*
X70323800Y-51453201D02*
X70323800Y-50553199D01*
G75*
G02*
X70573799Y-50303200I249999J0D01*
G01*
X71223801Y-50303200D01*
G75*
G02*
X71473800Y-50553199I0J-249999D01*
G01*
X71473800Y-51453201D01*
G75*
G02*
X71223801Y-51703200I-249999J0D01*
G01*
X70573799Y-51703200D01*
G75*
G02*
X70323800Y-51453201I0J249999D01*
G01*
G37*
%TD*%
%TO.C,C6*%
G36*
G01*
X68748600Y-65386799D02*
X68748600Y-66286801D01*
G75*
G02*
X68498601Y-66536800I-249999J0D01*
G01*
X67848599Y-66536800D01*
G75*
G02*
X67598600Y-66286801I0J249999D01*
G01*
X67598600Y-65386799D01*
G75*
G02*
X67848599Y-65136800I249999J0D01*
G01*
X68498601Y-65136800D01*
G75*
G02*
X68748600Y-65386799I0J-249999D01*
G01*
G37*
G36*
G01*
X66698600Y-65386799D02*
X66698600Y-66286801D01*
G75*
G02*
X66448601Y-66536800I-249999J0D01*
G01*
X65798599Y-66536800D01*
G75*
G02*
X65548600Y-66286801I0J249999D01*
G01*
X65548600Y-65386799D01*
G75*
G02*
X65798599Y-65136800I249999J0D01*
G01*
X66448601Y-65136800D01*
G75*
G02*
X66698600Y-65386799I0J-249999D01*
G01*
G37*
%TD*%
%TO.C,C7*%
G36*
G01*
X59902000Y-45930399D02*
X59902000Y-46830401D01*
G75*
G02*
X59652001Y-47080400I-249999J0D01*
G01*
X59001999Y-47080400D01*
G75*
G02*
X58752000Y-46830401I0J249999D01*
G01*
X58752000Y-45930399D01*
G75*
G02*
X59001999Y-45680400I249999J0D01*
G01*
X59652001Y-45680400D01*
G75*
G02*
X59902000Y-45930399I0J-249999D01*
G01*
G37*
G36*
G01*
X57852000Y-45930399D02*
X57852000Y-46830401D01*
G75*
G02*
X57602001Y-47080400I-249999J0D01*
G01*
X56951999Y-47080400D01*
G75*
G02*
X56702000Y-46830401I0J249999D01*
G01*
X56702000Y-45930399D01*
G75*
G02*
X56951999Y-45680400I249999J0D01*
G01*
X57602001Y-45680400D01*
G75*
G02*
X57852000Y-45930399I0J-249999D01*
G01*
G37*
%TD*%
%TO.C,C8*%
G36*
G01*
X57473001Y-74870000D02*
X56572999Y-74870000D01*
G75*
G02*
X56323000Y-74620001I0J249999D01*
G01*
X56323000Y-73969999D01*
G75*
G02*
X56572999Y-73720000I249999J0D01*
G01*
X57473001Y-73720000D01*
G75*
G02*
X57723000Y-73969999I0J-249999D01*
G01*
X57723000Y-74620001D01*
G75*
G02*
X57473001Y-74870000I-249999J0D01*
G01*
G37*
G36*
G01*
X57473001Y-72820000D02*
X56572999Y-72820000D01*
G75*
G02*
X56323000Y-72570001I0J249999D01*
G01*
X56323000Y-71919999D01*
G75*
G02*
X56572999Y-71670000I249999J0D01*
G01*
X57473001Y-71670000D01*
G75*
G02*
X57723000Y-71919999I0J-249999D01*
G01*
X57723000Y-72570001D01*
G75*
G02*
X57473001Y-72820000I-249999J0D01*
G01*
G37*
%TD*%
%TO.C,C9*%
G36*
G01*
X57843000Y-49994399D02*
X57843000Y-50894401D01*
G75*
G02*
X57593001Y-51144400I-249999J0D01*
G01*
X56942999Y-51144400D01*
G75*
G02*
X56693000Y-50894401I0J249999D01*
G01*
X56693000Y-49994399D01*
G75*
G02*
X56942999Y-49744400I249999J0D01*
G01*
X57593001Y-49744400D01*
G75*
G02*
X57843000Y-49994399I0J-249999D01*
G01*
G37*
G36*
G01*
X59893000Y-49994399D02*
X59893000Y-50894401D01*
G75*
G02*
X59643001Y-51144400I-249999J0D01*
G01*
X58992999Y-51144400D01*
G75*
G02*
X58743000Y-50894401I0J249999D01*
G01*
X58743000Y-49994399D01*
G75*
G02*
X58992999Y-49744400I249999J0D01*
G01*
X59643001Y-49744400D01*
G75*
G02*
X59893000Y-49994399I0J-249999D01*
G01*
G37*
%TD*%
%TO.C,C10*%
G36*
G01*
X62721800Y-66337601D02*
X62721800Y-65437599D01*
G75*
G02*
X62971799Y-65187600I249999J0D01*
G01*
X63621801Y-65187600D01*
G75*
G02*
X63871800Y-65437599I0J-249999D01*
G01*
X63871800Y-66337601D01*
G75*
G02*
X63621801Y-66587600I-249999J0D01*
G01*
X62971799Y-66587600D01*
G75*
G02*
X62721800Y-66337601I0J249999D01*
G01*
G37*
G36*
G01*
X60671800Y-66337601D02*
X60671800Y-65437599D01*
G75*
G02*
X60921799Y-65187600I249999J0D01*
G01*
X61571801Y-65187600D01*
G75*
G02*
X61821800Y-65437599I0J-249999D01*
G01*
X61821800Y-66337601D01*
G75*
G02*
X61571801Y-66587600I-249999J0D01*
G01*
X60921799Y-66587600D01*
G75*
G02*
X60671800Y-66337601I0J249999D01*
G01*
G37*
%TD*%
%TO.C,C11*%
G36*
G01*
X66449900Y-81185599D02*
X66449900Y-82085601D01*
G75*
G02*
X66199901Y-82335600I-249999J0D01*
G01*
X65549899Y-82335600D01*
G75*
G02*
X65299900Y-82085601I0J249999D01*
G01*
X65299900Y-81185599D01*
G75*
G02*
X65549899Y-80935600I249999J0D01*
G01*
X66199901Y-80935600D01*
G75*
G02*
X66449900Y-81185599I0J-249999D01*
G01*
G37*
G36*
G01*
X64399900Y-81185599D02*
X64399900Y-82085601D01*
G75*
G02*
X64149901Y-82335600I-249999J0D01*
G01*
X63499899Y-82335600D01*
G75*
G02*
X63249900Y-82085601I0J249999D01*
G01*
X63249900Y-81185599D01*
G75*
G02*
X63499899Y-80935600I249999J0D01*
G01*
X64149901Y-80935600D01*
G75*
G02*
X64399900Y-81185599I0J-249999D01*
G01*
G37*
%TD*%
%TO.C,C12*%
G36*
G01*
X71190699Y-89206600D02*
X72090701Y-89206600D01*
G75*
G02*
X72340700Y-89456599I0J-249999D01*
G01*
X72340700Y-90106601D01*
G75*
G02*
X72090701Y-90356600I-249999J0D01*
G01*
X71190699Y-90356600D01*
G75*
G02*
X70940700Y-90106601I0J249999D01*
G01*
X70940700Y-89456599D01*
G75*
G02*
X71190699Y-89206600I249999J0D01*
G01*
G37*
G36*
G01*
X71190699Y-87156600D02*
X72090701Y-87156600D01*
G75*
G02*
X72340700Y-87406599I0J-249999D01*
G01*
X72340700Y-88056601D01*
G75*
G02*
X72090701Y-88306600I-249999J0D01*
G01*
X71190699Y-88306600D01*
G75*
G02*
X70940700Y-88056601I0J249999D01*
G01*
X70940700Y-87406599D01*
G75*
G02*
X71190699Y-87156600I249999J0D01*
G01*
G37*
%TD*%
%TO.C,C13*%
G36*
G01*
X66597000Y-53143999D02*
X66597000Y-54044001D01*
G75*
G02*
X66347001Y-54294000I-249999J0D01*
G01*
X65696999Y-54294000D01*
G75*
G02*
X65447000Y-54044001I0J249999D01*
G01*
X65447000Y-53143999D01*
G75*
G02*
X65696999Y-52894000I249999J0D01*
G01*
X66347001Y-52894000D01*
G75*
G02*
X66597000Y-53143999I0J-249999D01*
G01*
G37*
G36*
G01*
X68647000Y-53143999D02*
X68647000Y-54044001D01*
G75*
G02*
X68397001Y-54294000I-249999J0D01*
G01*
X67746999Y-54294000D01*
G75*
G02*
X67497000Y-54044001I0J249999D01*
G01*
X67497000Y-53143999D01*
G75*
G02*
X67746999Y-52894000I249999J0D01*
G01*
X68397001Y-52894000D01*
G75*
G02*
X68647000Y-53143999I0J-249999D01*
G01*
G37*
%TD*%
%TO.C,C14*%
G36*
G01*
X72039901Y-92285400D02*
X71139899Y-92285400D01*
G75*
G02*
X70889900Y-92035401I0J249999D01*
G01*
X70889900Y-91385399D01*
G75*
G02*
X71139899Y-91135400I249999J0D01*
G01*
X72039901Y-91135400D01*
G75*
G02*
X72289900Y-91385399I0J-249999D01*
G01*
X72289900Y-92035401D01*
G75*
G02*
X72039901Y-92285400I-249999J0D01*
G01*
G37*
G36*
G01*
X72039901Y-94335400D02*
X71139899Y-94335400D01*
G75*
G02*
X70889900Y-94085401I0J249999D01*
G01*
X70889900Y-93435399D01*
G75*
G02*
X71139899Y-93185400I249999J0D01*
G01*
X72039901Y-93185400D01*
G75*
G02*
X72289900Y-93435399I0J-249999D01*
G01*
X72289900Y-94085401D01*
G75*
G02*
X72039901Y-94335400I-249999J0D01*
G01*
G37*
%TD*%
%TO.C,C15*%
G36*
G01*
X57968301Y-94085100D02*
X57068299Y-94085100D01*
G75*
G02*
X56818300Y-93835101I0J249999D01*
G01*
X56818300Y-93185099D01*
G75*
G02*
X57068299Y-92935100I249999J0D01*
G01*
X57968301Y-92935100D01*
G75*
G02*
X58218300Y-93185099I0J-249999D01*
G01*
X58218300Y-93835101D01*
G75*
G02*
X57968301Y-94085100I-249999J0D01*
G01*
G37*
G36*
G01*
X57968301Y-92035100D02*
X57068299Y-92035100D01*
G75*
G02*
X56818300Y-91785101I0J249999D01*
G01*
X56818300Y-91135099D01*
G75*
G02*
X57068299Y-90885100I249999J0D01*
G01*
X57968301Y-90885100D01*
G75*
G02*
X58218300Y-91135099I0J-249999D01*
G01*
X58218300Y-91785101D01*
G75*
G02*
X57968301Y-92035100I-249999J0D01*
G01*
G37*
%TD*%
%TO.C,C16*%
G36*
G01*
X68647000Y-55937999D02*
X68647000Y-56838001D01*
G75*
G02*
X68397001Y-57088000I-249999J0D01*
G01*
X67746999Y-57088000D01*
G75*
G02*
X67497000Y-56838001I0J249999D01*
G01*
X67497000Y-55937999D01*
G75*
G02*
X67746999Y-55688000I249999J0D01*
G01*
X68397001Y-55688000D01*
G75*
G02*
X68647000Y-55937999I0J-249999D01*
G01*
G37*
G36*
G01*
X66597000Y-55937999D02*
X66597000Y-56838001D01*
G75*
G02*
X66347001Y-57088000I-249999J0D01*
G01*
X65696999Y-57088000D01*
G75*
G02*
X65447000Y-56838001I0J249999D01*
G01*
X65447000Y-55937999D01*
G75*
G02*
X65696999Y-55688000I249999J0D01*
G01*
X66347001Y-55688000D01*
G75*
G02*
X66597000Y-55937999I0J-249999D01*
G01*
G37*
%TD*%
%TO.C,D1*%
G36*
G01*
X57144499Y-59085900D02*
X58044501Y-59085900D01*
G75*
G02*
X58294500Y-59335899I0J-249999D01*
G01*
X58294500Y-59985901D01*
G75*
G02*
X58044501Y-60235900I-249999J0D01*
G01*
X57144499Y-60235900D01*
G75*
G02*
X56894500Y-59985901I0J249999D01*
G01*
X56894500Y-59335899D01*
G75*
G02*
X57144499Y-59085900I249999J0D01*
G01*
G37*
G36*
G01*
X57144499Y-57035900D02*
X58044501Y-57035900D01*
G75*
G02*
X58294500Y-57285899I0J-249999D01*
G01*
X58294500Y-57935901D01*
G75*
G02*
X58044501Y-58185900I-249999J0D01*
G01*
X57144499Y-58185900D01*
G75*
G02*
X56894500Y-57935901I0J249999D01*
G01*
X56894500Y-57285899D01*
G75*
G02*
X57144499Y-57035900I249999J0D01*
G01*
G37*
%TD*%
%TO.C,D2*%
G36*
G01*
X71341401Y-56095700D02*
X70441399Y-56095700D01*
G75*
G02*
X70191400Y-55845701I0J249999D01*
G01*
X70191400Y-55195699D01*
G75*
G02*
X70441399Y-54945700I249999J0D01*
G01*
X71341401Y-54945700D01*
G75*
G02*
X71591400Y-55195699I0J-249999D01*
G01*
X71591400Y-55845701D01*
G75*
G02*
X71341401Y-56095700I-249999J0D01*
G01*
G37*
G36*
G01*
X71341401Y-54045700D02*
X70441399Y-54045700D01*
G75*
G02*
X70191400Y-53795701I0J249999D01*
G01*
X70191400Y-53145699D01*
G75*
G02*
X70441399Y-52895700I249999J0D01*
G01*
X71341401Y-52895700D01*
G75*
G02*
X71591400Y-53145699I0J-249999D01*
G01*
X71591400Y-53795701D01*
G75*
G02*
X71341401Y-54045700I-249999J0D01*
G01*
G37*
%TD*%
D12*
%TO.C,J3*%
X66832000Y-41270000D03*
X66182000Y-41270000D03*
X65532000Y-41270000D03*
X64882000Y-41270000D03*
X64232000Y-41270000D03*
%TD*%
%TO.C,R1*%
G36*
G01*
X73523800Y-43949199D02*
X73523800Y-44849201D01*
G75*
G02*
X73273801Y-45099200I-249999J0D01*
G01*
X72623799Y-45099200D01*
G75*
G02*
X72373800Y-44849201I0J249999D01*
G01*
X72373800Y-43949199D01*
G75*
G02*
X72623799Y-43699200I249999J0D01*
G01*
X73273801Y-43699200D01*
G75*
G02*
X73523800Y-43949199I0J-249999D01*
G01*
G37*
G36*
G01*
X71473800Y-43949199D02*
X71473800Y-44849201D01*
G75*
G02*
X71223801Y-45099200I-249999J0D01*
G01*
X70573799Y-45099200D01*
G75*
G02*
X70323800Y-44849201I0J249999D01*
G01*
X70323800Y-43949199D01*
G75*
G02*
X70573799Y-43699200I249999J0D01*
G01*
X71223801Y-43699200D01*
G75*
G02*
X71473800Y-43949199I0J-249999D01*
G01*
G37*
%TD*%
%TO.C,R2*%
G36*
G01*
X71482800Y-48267199D02*
X71482800Y-49167201D01*
G75*
G02*
X71232801Y-49417200I-249999J0D01*
G01*
X70582799Y-49417200D01*
G75*
G02*
X70332800Y-49167201I0J249999D01*
G01*
X70332800Y-48267199D01*
G75*
G02*
X70582799Y-48017200I249999J0D01*
G01*
X71232801Y-48017200D01*
G75*
G02*
X71482800Y-48267199I0J-249999D01*
G01*
G37*
G36*
G01*
X73532800Y-48267199D02*
X73532800Y-49167201D01*
G75*
G02*
X73282801Y-49417200I-249999J0D01*
G01*
X72632799Y-49417200D01*
G75*
G02*
X72382800Y-49167201I0J249999D01*
G01*
X72382800Y-48267199D01*
G75*
G02*
X72632799Y-48017200I249999J0D01*
G01*
X73282801Y-48017200D01*
G75*
G02*
X73532800Y-48267199I0J-249999D01*
G01*
G37*
%TD*%
%TO.C,R3*%
G36*
G01*
X57169899Y-52679800D02*
X58069901Y-52679800D01*
G75*
G02*
X58319900Y-52929799I0J-249999D01*
G01*
X58319900Y-53579801D01*
G75*
G02*
X58069901Y-53829800I-249999J0D01*
G01*
X57169899Y-53829800D01*
G75*
G02*
X56919900Y-53579801I0J249999D01*
G01*
X56919900Y-52929799D01*
G75*
G02*
X57169899Y-52679800I249999J0D01*
G01*
G37*
G36*
G01*
X57169899Y-54729800D02*
X58069901Y-54729800D01*
G75*
G02*
X58319900Y-54979799I0J-249999D01*
G01*
X58319900Y-55629801D01*
G75*
G02*
X58069901Y-55879800I-249999J0D01*
G01*
X57169899Y-55879800D01*
G75*
G02*
X56919900Y-55629801I0J249999D01*
G01*
X56919900Y-54979799D01*
G75*
G02*
X57169899Y-54729800I249999J0D01*
G01*
G37*
%TD*%
%TO.C,R4*%
G36*
G01*
X72727399Y-54911300D02*
X73627401Y-54911300D01*
G75*
G02*
X73877400Y-55161299I0J-249999D01*
G01*
X73877400Y-55811301D01*
G75*
G02*
X73627401Y-56061300I-249999J0D01*
G01*
X72727399Y-56061300D01*
G75*
G02*
X72477400Y-55811301I0J249999D01*
G01*
X72477400Y-55161299D01*
G75*
G02*
X72727399Y-54911300I249999J0D01*
G01*
G37*
G36*
G01*
X72727399Y-52861300D02*
X73627401Y-52861300D01*
G75*
G02*
X73877400Y-53111299I0J-249999D01*
G01*
X73877400Y-53761301D01*
G75*
G02*
X73627401Y-54011300I-249999J0D01*
G01*
X72727399Y-54011300D01*
G75*
G02*
X72477400Y-53761301I0J249999D01*
G01*
X72477400Y-53111299D01*
G75*
G02*
X72727399Y-52861300I249999J0D01*
G01*
G37*
%TD*%
%TO.C,R5*%
G36*
G01*
X72103401Y-86490500D02*
X71203399Y-86490500D01*
G75*
G02*
X70953400Y-86240501I0J249999D01*
G01*
X70953400Y-85590499D01*
G75*
G02*
X71203399Y-85340500I249999J0D01*
G01*
X72103401Y-85340500D01*
G75*
G02*
X72353400Y-85590499I0J-249999D01*
G01*
X72353400Y-86240501D01*
G75*
G02*
X72103401Y-86490500I-249999J0D01*
G01*
G37*
G36*
G01*
X72103401Y-84440500D02*
X71203399Y-84440500D01*
G75*
G02*
X70953400Y-84190501I0J249999D01*
G01*
X70953400Y-83540499D01*
G75*
G02*
X71203399Y-83290500I249999J0D01*
G01*
X72103401Y-83290500D01*
G75*
G02*
X72353400Y-83540499I0J-249999D01*
G01*
X72353400Y-84190501D01*
G75*
G02*
X72103401Y-84440500I-249999J0D01*
G01*
G37*
%TD*%
%TO.C,R6*%
G36*
G01*
X61457100Y-82111001D02*
X61457100Y-81210999D01*
G75*
G02*
X61707099Y-80961000I249999J0D01*
G01*
X62357101Y-80961000D01*
G75*
G02*
X62607100Y-81210999I0J-249999D01*
G01*
X62607100Y-82111001D01*
G75*
G02*
X62357101Y-82361000I-249999J0D01*
G01*
X61707099Y-82361000D01*
G75*
G02*
X61457100Y-82111001I0J249999D01*
G01*
G37*
G36*
G01*
X59407100Y-82111001D02*
X59407100Y-81210999D01*
G75*
G02*
X59657099Y-80961000I249999J0D01*
G01*
X60307101Y-80961000D01*
G75*
G02*
X60557100Y-81210999I0J-249999D01*
G01*
X60557100Y-82111001D01*
G75*
G02*
X60307101Y-82361000I-249999J0D01*
G01*
X59657099Y-82361000D01*
G75*
G02*
X59407100Y-82111001I0J249999D01*
G01*
G37*
%TD*%
%TO.C,U1*%
G36*
G01*
X65194264Y-68664516D02*
X66131180Y-67727600D01*
G75*
G02*
X66237246Y-67727600I53033J-53033D01*
G01*
X66343312Y-67833666D01*
G75*
G02*
X66343312Y-67939732I-53033J-53033D01*
G01*
X65406396Y-68876648D01*
G75*
G02*
X65300330Y-68876648I-53033J53033D01*
G01*
X65194264Y-68770582D01*
G75*
G02*
X65194264Y-68664516I53033J53033D01*
G01*
G37*
G36*
G01*
X65547818Y-69018070D02*
X66484734Y-68081154D01*
G75*
G02*
X66590800Y-68081154I53033J-53033D01*
G01*
X66696866Y-68187220D01*
G75*
G02*
X66696866Y-68293286I-53033J-53033D01*
G01*
X65759950Y-69230202D01*
G75*
G02*
X65653884Y-69230202I-53033J53033D01*
G01*
X65547818Y-69124136D01*
G75*
G02*
X65547818Y-69018070I53033J53033D01*
G01*
G37*
G36*
G01*
X65901371Y-69371623D02*
X66838287Y-68434707D01*
G75*
G02*
X66944353Y-68434707I53033J-53033D01*
G01*
X67050419Y-68540773D01*
G75*
G02*
X67050419Y-68646839I-53033J-53033D01*
G01*
X66113503Y-69583755D01*
G75*
G02*
X66007437Y-69583755I-53033J53033D01*
G01*
X65901371Y-69477689D01*
G75*
G02*
X65901371Y-69371623I53033J53033D01*
G01*
G37*
G36*
G01*
X66254925Y-69725177D02*
X67191841Y-68788261D01*
G75*
G02*
X67297907Y-68788261I53033J-53033D01*
G01*
X67403973Y-68894327D01*
G75*
G02*
X67403973Y-69000393I-53033J-53033D01*
G01*
X66467057Y-69937309D01*
G75*
G02*
X66360991Y-69937309I-53033J53033D01*
G01*
X66254925Y-69831243D01*
G75*
G02*
X66254925Y-69725177I53033J53033D01*
G01*
G37*
G36*
G01*
X66608478Y-70078730D02*
X67545394Y-69141814D01*
G75*
G02*
X67651460Y-69141814I53033J-53033D01*
G01*
X67757526Y-69247880D01*
G75*
G02*
X67757526Y-69353946I-53033J-53033D01*
G01*
X66820610Y-70290862D01*
G75*
G02*
X66714544Y-70290862I-53033J53033D01*
G01*
X66608478Y-70184796D01*
G75*
G02*
X66608478Y-70078730I53033J53033D01*
G01*
G37*
G36*
G01*
X66962031Y-70432283D02*
X67898947Y-69495367D01*
G75*
G02*
X68005013Y-69495367I53033J-53033D01*
G01*
X68111079Y-69601433D01*
G75*
G02*
X68111079Y-69707499I-53033J-53033D01*
G01*
X67174163Y-70644415D01*
G75*
G02*
X67068097Y-70644415I-53033J53033D01*
G01*
X66962031Y-70538349D01*
G75*
G02*
X66962031Y-70432283I53033J53033D01*
G01*
G37*
G36*
G01*
X67315585Y-70785837D02*
X68252501Y-69848921D01*
G75*
G02*
X68358567Y-69848921I53033J-53033D01*
G01*
X68464633Y-69954987D01*
G75*
G02*
X68464633Y-70061053I-53033J-53033D01*
G01*
X67527717Y-70997969D01*
G75*
G02*
X67421651Y-70997969I-53033J53033D01*
G01*
X67315585Y-70891903D01*
G75*
G02*
X67315585Y-70785837I53033J53033D01*
G01*
G37*
G36*
G01*
X67669138Y-71139390D02*
X68606054Y-70202474D01*
G75*
G02*
X68712120Y-70202474I53033J-53033D01*
G01*
X68818186Y-70308540D01*
G75*
G02*
X68818186Y-70414606I-53033J-53033D01*
G01*
X67881270Y-71351522D01*
G75*
G02*
X67775204Y-71351522I-53033J53033D01*
G01*
X67669138Y-71245456D01*
G75*
G02*
X67669138Y-71139390I53033J53033D01*
G01*
G37*
G36*
G01*
X68022691Y-71492943D02*
X68959607Y-70556027D01*
G75*
G02*
X69065673Y-70556027I53033J-53033D01*
G01*
X69171739Y-70662093D01*
G75*
G02*
X69171739Y-70768159I-53033J-53033D01*
G01*
X68234823Y-71705075D01*
G75*
G02*
X68128757Y-71705075I-53033J53033D01*
G01*
X68022691Y-71599009D01*
G75*
G02*
X68022691Y-71492943I53033J53033D01*
G01*
G37*
G36*
G01*
X68376245Y-71846497D02*
X69313161Y-70909581D01*
G75*
G02*
X69419227Y-70909581I53033J-53033D01*
G01*
X69525293Y-71015647D01*
G75*
G02*
X69525293Y-71121713I-53033J-53033D01*
G01*
X68588377Y-72058629D01*
G75*
G02*
X68482311Y-72058629I-53033J53033D01*
G01*
X68376245Y-71952563D01*
G75*
G02*
X68376245Y-71846497I53033J53033D01*
G01*
G37*
G36*
G01*
X68729798Y-72200050D02*
X69666714Y-71263134D01*
G75*
G02*
X69772780Y-71263134I53033J-53033D01*
G01*
X69878846Y-71369200D01*
G75*
G02*
X69878846Y-71475266I-53033J-53033D01*
G01*
X68941930Y-72412182D01*
G75*
G02*
X68835864Y-72412182I-53033J53033D01*
G01*
X68729798Y-72306116D01*
G75*
G02*
X68729798Y-72200050I53033J53033D01*
G01*
G37*
G36*
G01*
X69083352Y-72553604D02*
X70020268Y-71616688D01*
G75*
G02*
X70126334Y-71616688I53033J-53033D01*
G01*
X70232400Y-71722754D01*
G75*
G02*
X70232400Y-71828820I-53033J-53033D01*
G01*
X69295484Y-72765736D01*
G75*
G02*
X69189418Y-72765736I-53033J53033D01*
G01*
X69083352Y-72659670D01*
G75*
G02*
X69083352Y-72553604I53033J53033D01*
G01*
G37*
G36*
G01*
X69083352Y-73720330D02*
X69189418Y-73614264D01*
G75*
G02*
X69295484Y-73614264I53033J-53033D01*
G01*
X70232400Y-74551180D01*
G75*
G02*
X70232400Y-74657246I-53033J-53033D01*
G01*
X70126334Y-74763312D01*
G75*
G02*
X70020268Y-74763312I-53033J53033D01*
G01*
X69083352Y-73826396D01*
G75*
G02*
X69083352Y-73720330I53033J53033D01*
G01*
G37*
G36*
G01*
X68729798Y-74073884D02*
X68835864Y-73967818D01*
G75*
G02*
X68941930Y-73967818I53033J-53033D01*
G01*
X69878846Y-74904734D01*
G75*
G02*
X69878846Y-75010800I-53033J-53033D01*
G01*
X69772780Y-75116866D01*
G75*
G02*
X69666714Y-75116866I-53033J53033D01*
G01*
X68729798Y-74179950D01*
G75*
G02*
X68729798Y-74073884I53033J53033D01*
G01*
G37*
G36*
G01*
X68376245Y-74427437D02*
X68482311Y-74321371D01*
G75*
G02*
X68588377Y-74321371I53033J-53033D01*
G01*
X69525293Y-75258287D01*
G75*
G02*
X69525293Y-75364353I-53033J-53033D01*
G01*
X69419227Y-75470419D01*
G75*
G02*
X69313161Y-75470419I-53033J53033D01*
G01*
X68376245Y-74533503D01*
G75*
G02*
X68376245Y-74427437I53033J53033D01*
G01*
G37*
G36*
G01*
X68022691Y-74780991D02*
X68128757Y-74674925D01*
G75*
G02*
X68234823Y-74674925I53033J-53033D01*
G01*
X69171739Y-75611841D01*
G75*
G02*
X69171739Y-75717907I-53033J-53033D01*
G01*
X69065673Y-75823973D01*
G75*
G02*
X68959607Y-75823973I-53033J53033D01*
G01*
X68022691Y-74887057D01*
G75*
G02*
X68022691Y-74780991I53033J53033D01*
G01*
G37*
G36*
G01*
X67669138Y-75134544D02*
X67775204Y-75028478D01*
G75*
G02*
X67881270Y-75028478I53033J-53033D01*
G01*
X68818186Y-75965394D01*
G75*
G02*
X68818186Y-76071460I-53033J-53033D01*
G01*
X68712120Y-76177526D01*
G75*
G02*
X68606054Y-76177526I-53033J53033D01*
G01*
X67669138Y-75240610D01*
G75*
G02*
X67669138Y-75134544I53033J53033D01*
G01*
G37*
G36*
G01*
X67315585Y-75488097D02*
X67421651Y-75382031D01*
G75*
G02*
X67527717Y-75382031I53033J-53033D01*
G01*
X68464633Y-76318947D01*
G75*
G02*
X68464633Y-76425013I-53033J-53033D01*
G01*
X68358567Y-76531079D01*
G75*
G02*
X68252501Y-76531079I-53033J53033D01*
G01*
X67315585Y-75594163D01*
G75*
G02*
X67315585Y-75488097I53033J53033D01*
G01*
G37*
G36*
G01*
X66962031Y-75841651D02*
X67068097Y-75735585D01*
G75*
G02*
X67174163Y-75735585I53033J-53033D01*
G01*
X68111079Y-76672501D01*
G75*
G02*
X68111079Y-76778567I-53033J-53033D01*
G01*
X68005013Y-76884633D01*
G75*
G02*
X67898947Y-76884633I-53033J53033D01*
G01*
X66962031Y-75947717D01*
G75*
G02*
X66962031Y-75841651I53033J53033D01*
G01*
G37*
G36*
G01*
X66608478Y-76195204D02*
X66714544Y-76089138D01*
G75*
G02*
X66820610Y-76089138I53033J-53033D01*
G01*
X67757526Y-77026054D01*
G75*
G02*
X67757526Y-77132120I-53033J-53033D01*
G01*
X67651460Y-77238186D01*
G75*
G02*
X67545394Y-77238186I-53033J53033D01*
G01*
X66608478Y-76301270D01*
G75*
G02*
X66608478Y-76195204I53033J53033D01*
G01*
G37*
G36*
G01*
X66254925Y-76548757D02*
X66360991Y-76442691D01*
G75*
G02*
X66467057Y-76442691I53033J-53033D01*
G01*
X67403973Y-77379607D01*
G75*
G02*
X67403973Y-77485673I-53033J-53033D01*
G01*
X67297907Y-77591739D01*
G75*
G02*
X67191841Y-77591739I-53033J53033D01*
G01*
X66254925Y-76654823D01*
G75*
G02*
X66254925Y-76548757I53033J53033D01*
G01*
G37*
G36*
G01*
X65901371Y-76902311D02*
X66007437Y-76796245D01*
G75*
G02*
X66113503Y-76796245I53033J-53033D01*
G01*
X67050419Y-77733161D01*
G75*
G02*
X67050419Y-77839227I-53033J-53033D01*
G01*
X66944353Y-77945293D01*
G75*
G02*
X66838287Y-77945293I-53033J53033D01*
G01*
X65901371Y-77008377D01*
G75*
G02*
X65901371Y-76902311I53033J53033D01*
G01*
G37*
G36*
G01*
X65547818Y-77255864D02*
X65653884Y-77149798D01*
G75*
G02*
X65759950Y-77149798I53033J-53033D01*
G01*
X66696866Y-78086714D01*
G75*
G02*
X66696866Y-78192780I-53033J-53033D01*
G01*
X66590800Y-78298846D01*
G75*
G02*
X66484734Y-78298846I-53033J53033D01*
G01*
X65547818Y-77361930D01*
G75*
G02*
X65547818Y-77255864I53033J53033D01*
G01*
G37*
G36*
G01*
X65194264Y-77609418D02*
X65300330Y-77503352D01*
G75*
G02*
X65406396Y-77503352I53033J-53033D01*
G01*
X66343312Y-78440268D01*
G75*
G02*
X66343312Y-78546334I-53033J-53033D01*
G01*
X66237246Y-78652400D01*
G75*
G02*
X66131180Y-78652400I-53033J53033D01*
G01*
X65194264Y-77715484D01*
G75*
G02*
X65194264Y-77609418I53033J53033D01*
G01*
G37*
G36*
G01*
X63196688Y-78440268D02*
X64133604Y-77503352D01*
G75*
G02*
X64239670Y-77503352I53033J-53033D01*
G01*
X64345736Y-77609418D01*
G75*
G02*
X64345736Y-77715484I-53033J-53033D01*
G01*
X63408820Y-78652400D01*
G75*
G02*
X63302754Y-78652400I-53033J53033D01*
G01*
X63196688Y-78546334D01*
G75*
G02*
X63196688Y-78440268I53033J53033D01*
G01*
G37*
G36*
G01*
X62489581Y-77733161D02*
X63426497Y-76796245D01*
G75*
G02*
X63532563Y-76796245I53033J-53033D01*
G01*
X63638629Y-76902311D01*
G75*
G02*
X63638629Y-77008377I-53033J-53033D01*
G01*
X62701713Y-77945293D01*
G75*
G02*
X62595647Y-77945293I-53033J53033D01*
G01*
X62489581Y-77839227D01*
G75*
G02*
X62489581Y-77733161I53033J53033D01*
G01*
G37*
G36*
G01*
X62136027Y-77379607D02*
X63072943Y-76442691D01*
G75*
G02*
X63179009Y-76442691I53033J-53033D01*
G01*
X63285075Y-76548757D01*
G75*
G02*
X63285075Y-76654823I-53033J-53033D01*
G01*
X62348159Y-77591739D01*
G75*
G02*
X62242093Y-77591739I-53033J53033D01*
G01*
X62136027Y-77485673D01*
G75*
G02*
X62136027Y-77379607I53033J53033D01*
G01*
G37*
G36*
G01*
X61782474Y-77026054D02*
X62719390Y-76089138D01*
G75*
G02*
X62825456Y-76089138I53033J-53033D01*
G01*
X62931522Y-76195204D01*
G75*
G02*
X62931522Y-76301270I-53033J-53033D01*
G01*
X61994606Y-77238186D01*
G75*
G02*
X61888540Y-77238186I-53033J53033D01*
G01*
X61782474Y-77132120D01*
G75*
G02*
X61782474Y-77026054I53033J53033D01*
G01*
G37*
G36*
G01*
X61428921Y-76672501D02*
X62365837Y-75735585D01*
G75*
G02*
X62471903Y-75735585I53033J-53033D01*
G01*
X62577969Y-75841651D01*
G75*
G02*
X62577969Y-75947717I-53033J-53033D01*
G01*
X61641053Y-76884633D01*
G75*
G02*
X61534987Y-76884633I-53033J53033D01*
G01*
X61428921Y-76778567D01*
G75*
G02*
X61428921Y-76672501I53033J53033D01*
G01*
G37*
G36*
G01*
X61075367Y-76318947D02*
X62012283Y-75382031D01*
G75*
G02*
X62118349Y-75382031I53033J-53033D01*
G01*
X62224415Y-75488097D01*
G75*
G02*
X62224415Y-75594163I-53033J-53033D01*
G01*
X61287499Y-76531079D01*
G75*
G02*
X61181433Y-76531079I-53033J53033D01*
G01*
X61075367Y-76425013D01*
G75*
G02*
X61075367Y-76318947I53033J53033D01*
G01*
G37*
G36*
G01*
X60721814Y-75965394D02*
X61658730Y-75028478D01*
G75*
G02*
X61764796Y-75028478I53033J-53033D01*
G01*
X61870862Y-75134544D01*
G75*
G02*
X61870862Y-75240610I-53033J-53033D01*
G01*
X60933946Y-76177526D01*
G75*
G02*
X60827880Y-76177526I-53033J53033D01*
G01*
X60721814Y-76071460D01*
G75*
G02*
X60721814Y-75965394I53033J53033D01*
G01*
G37*
G36*
G01*
X60368261Y-75611841D02*
X61305177Y-74674925D01*
G75*
G02*
X61411243Y-74674925I53033J-53033D01*
G01*
X61517309Y-74780991D01*
G75*
G02*
X61517309Y-74887057I-53033J-53033D01*
G01*
X60580393Y-75823973D01*
G75*
G02*
X60474327Y-75823973I-53033J53033D01*
G01*
X60368261Y-75717907D01*
G75*
G02*
X60368261Y-75611841I53033J53033D01*
G01*
G37*
G36*
G01*
X60014707Y-75258287D02*
X60951623Y-74321371D01*
G75*
G02*
X61057689Y-74321371I53033J-53033D01*
G01*
X61163755Y-74427437D01*
G75*
G02*
X61163755Y-74533503I-53033J-53033D01*
G01*
X60226839Y-75470419D01*
G75*
G02*
X60120773Y-75470419I-53033J53033D01*
G01*
X60014707Y-75364353D01*
G75*
G02*
X60014707Y-75258287I53033J53033D01*
G01*
G37*
G36*
G01*
X59661154Y-74904734D02*
X60598070Y-73967818D01*
G75*
G02*
X60704136Y-73967818I53033J-53033D01*
G01*
X60810202Y-74073884D01*
G75*
G02*
X60810202Y-74179950I-53033J-53033D01*
G01*
X59873286Y-75116866D01*
G75*
G02*
X59767220Y-75116866I-53033J53033D01*
G01*
X59661154Y-75010800D01*
G75*
G02*
X59661154Y-74904734I53033J53033D01*
G01*
G37*
G36*
G01*
X59307600Y-74551180D02*
X60244516Y-73614264D01*
G75*
G02*
X60350582Y-73614264I53033J-53033D01*
G01*
X60456648Y-73720330D01*
G75*
G02*
X60456648Y-73826396I-53033J-53033D01*
G01*
X59519732Y-74763312D01*
G75*
G02*
X59413666Y-74763312I-53033J53033D01*
G01*
X59307600Y-74657246D01*
G75*
G02*
X59307600Y-74551180I53033J53033D01*
G01*
G37*
G36*
G01*
X59307600Y-71722754D02*
X59413666Y-71616688D01*
G75*
G02*
X59519732Y-71616688I53033J-53033D01*
G01*
X60456648Y-72553604D01*
G75*
G02*
X60456648Y-72659670I-53033J-53033D01*
G01*
X60350582Y-72765736D01*
G75*
G02*
X60244516Y-72765736I-53033J53033D01*
G01*
X59307600Y-71828820D01*
G75*
G02*
X59307600Y-71722754I53033J53033D01*
G01*
G37*
G36*
G01*
X59661154Y-71369200D02*
X59767220Y-71263134D01*
G75*
G02*
X59873286Y-71263134I53033J-53033D01*
G01*
X60810202Y-72200050D01*
G75*
G02*
X60810202Y-72306116I-53033J-53033D01*
G01*
X60704136Y-72412182D01*
G75*
G02*
X60598070Y-72412182I-53033J53033D01*
G01*
X59661154Y-71475266D01*
G75*
G02*
X59661154Y-71369200I53033J53033D01*
G01*
G37*
G36*
G01*
X60014707Y-71015647D02*
X60120773Y-70909581D01*
G75*
G02*
X60226839Y-70909581I53033J-53033D01*
G01*
X61163755Y-71846497D01*
G75*
G02*
X61163755Y-71952563I-53033J-53033D01*
G01*
X61057689Y-72058629D01*
G75*
G02*
X60951623Y-72058629I-53033J53033D01*
G01*
X60014707Y-71121713D01*
G75*
G02*
X60014707Y-71015647I53033J53033D01*
G01*
G37*
G36*
G01*
X60368261Y-70662093D02*
X60474327Y-70556027D01*
G75*
G02*
X60580393Y-70556027I53033J-53033D01*
G01*
X61517309Y-71492943D01*
G75*
G02*
X61517309Y-71599009I-53033J-53033D01*
G01*
X61411243Y-71705075D01*
G75*
G02*
X61305177Y-71705075I-53033J53033D01*
G01*
X60368261Y-70768159D01*
G75*
G02*
X60368261Y-70662093I53033J53033D01*
G01*
G37*
G36*
G01*
X60721814Y-70308540D02*
X60827880Y-70202474D01*
G75*
G02*
X60933946Y-70202474I53033J-53033D01*
G01*
X61870862Y-71139390D01*
G75*
G02*
X61870862Y-71245456I-53033J-53033D01*
G01*
X61764796Y-71351522D01*
G75*
G02*
X61658730Y-71351522I-53033J53033D01*
G01*
X60721814Y-70414606D01*
G75*
G02*
X60721814Y-70308540I53033J53033D01*
G01*
G37*
G36*
G01*
X61075367Y-69954987D02*
X61181433Y-69848921D01*
G75*
G02*
X61287499Y-69848921I53033J-53033D01*
G01*
X62224415Y-70785837D01*
G75*
G02*
X62224415Y-70891903I-53033J-53033D01*
G01*
X62118349Y-70997969D01*
G75*
G02*
X62012283Y-70997969I-53033J53033D01*
G01*
X61075367Y-70061053D01*
G75*
G02*
X61075367Y-69954987I53033J53033D01*
G01*
G37*
G36*
G01*
X61428921Y-69601433D02*
X61534987Y-69495367D01*
G75*
G02*
X61641053Y-69495367I53033J-53033D01*
G01*
X62577969Y-70432283D01*
G75*
G02*
X62577969Y-70538349I-53033J-53033D01*
G01*
X62471903Y-70644415D01*
G75*
G02*
X62365837Y-70644415I-53033J53033D01*
G01*
X61428921Y-69707499D01*
G75*
G02*
X61428921Y-69601433I53033J53033D01*
G01*
G37*
G36*
G01*
X61782474Y-69247880D02*
X61888540Y-69141814D01*
G75*
G02*
X61994606Y-69141814I53033J-53033D01*
G01*
X62931522Y-70078730D01*
G75*
G02*
X62931522Y-70184796I-53033J-53033D01*
G01*
X62825456Y-70290862D01*
G75*
G02*
X62719390Y-70290862I-53033J53033D01*
G01*
X61782474Y-69353946D01*
G75*
G02*
X61782474Y-69247880I53033J53033D01*
G01*
G37*
G36*
G01*
X62136027Y-68894327D02*
X62242093Y-68788261D01*
G75*
G02*
X62348159Y-68788261I53033J-53033D01*
G01*
X63285075Y-69725177D01*
G75*
G02*
X63285075Y-69831243I-53033J-53033D01*
G01*
X63179009Y-69937309D01*
G75*
G02*
X63072943Y-69937309I-53033J53033D01*
G01*
X62136027Y-69000393D01*
G75*
G02*
X62136027Y-68894327I53033J53033D01*
G01*
G37*
G36*
G01*
X62489581Y-68540773D02*
X62595647Y-68434707D01*
G75*
G02*
X62701713Y-68434707I53033J-53033D01*
G01*
X63638629Y-69371623D01*
G75*
G02*
X63638629Y-69477689I-53033J-53033D01*
G01*
X63532563Y-69583755D01*
G75*
G02*
X63426497Y-69583755I-53033J53033D01*
G01*
X62489581Y-68646839D01*
G75*
G02*
X62489581Y-68540773I53033J53033D01*
G01*
G37*
G36*
G01*
X62843134Y-68187220D02*
X62949200Y-68081154D01*
G75*
G02*
X63055266Y-68081154I53033J-53033D01*
G01*
X63992182Y-69018070D01*
G75*
G02*
X63992182Y-69124136I-53033J-53033D01*
G01*
X63886116Y-69230202D01*
G75*
G02*
X63780050Y-69230202I-53033J53033D01*
G01*
X62843134Y-68293286D01*
G75*
G02*
X62843134Y-68187220I53033J53033D01*
G01*
G37*
G36*
G01*
X63196688Y-67833666D02*
X63302754Y-67727600D01*
G75*
G02*
X63408820Y-67727600I53033J-53033D01*
G01*
X64345736Y-68664516D01*
G75*
G02*
X64345736Y-68770582I-53033J-53033D01*
G01*
X64239670Y-68876648D01*
G75*
G02*
X64133604Y-68876648I-53033J53033D01*
G01*
X63196688Y-67939732D01*
G75*
G02*
X63196688Y-67833666I53033J53033D01*
G01*
G37*
%TD*%
D13*
%TO.C,U2*%
X62750700Y-50326600D03*
X63385700Y-50326600D03*
X64020700Y-50326600D03*
X64655700Y-50326600D03*
X65290700Y-50326600D03*
X65925700Y-50326600D03*
X66560700Y-50326600D03*
X67195700Y-50326600D03*
X67195700Y-45126600D03*
X66560700Y-45126600D03*
X65925700Y-45126600D03*
X65290700Y-45126600D03*
X64655700Y-45126600D03*
X64020700Y-45126600D03*
X63385700Y-45126600D03*
X62750700Y-45126600D03*
%TD*%
M02*
