%TF.GenerationSoftware,KiCad,Pcbnew,(5.1.6)-1*%
%TF.CreationDate,2021-02-05T10:54:59+01:00*%
%TF.ProjectId,DIY_Blackpill,4449595f-426c-4616-936b-70696c6c2e6b,rev?*%
%TF.SameCoordinates,Original*%
%TF.FileFunction,Legend,Top*%
%TF.FilePolarity,Positive*%
%FSLAX46Y46*%
G04 Gerber Fmt 4.6, Leading zero omitted, Abs format (unit mm)*
G04 Created by KiCad (PCBNEW (5.1.6)-1) date 2021-02-05 10:54:59*
%MOMM*%
%LPD*%
G01*
G04 APERTURE LIST*
%ADD10C,0.200000*%
%ADD11C,0.120000*%
%ADD12C,0.100000*%
%ADD13C,0.150000*%
%ADD14C,0.254000*%
G04 APERTURE END LIST*
D10*
%TO.C,U3*%
X63730000Y-52989000D02*
X63730000Y-54239000D01*
X60780000Y-54589000D02*
X63680000Y-54589000D01*
X60780000Y-55139000D02*
X60780000Y-54589000D01*
X63680000Y-55139000D02*
X60780000Y-55139000D01*
X63680000Y-54589000D02*
X63680000Y-55139000D01*
D11*
%TO.C,J1*%
X52010000Y-97510000D02*
X54670000Y-97510000D01*
X52010000Y-49190000D02*
X52010000Y-97510000D01*
X54670000Y-49190000D02*
X54670000Y-97510000D01*
X52010000Y-49190000D02*
X54670000Y-49190000D01*
X52010000Y-47920000D02*
X52010000Y-46590000D01*
X52010000Y-46590000D02*
X53340000Y-46590000D01*
D12*
%TO.C,SW1*%
X61770000Y-84852000D02*
X61770000Y-84052000D01*
X61770000Y-84052000D02*
X67770000Y-84052000D01*
X67770000Y-84052000D02*
X67770000Y-84852000D01*
X61770000Y-86852000D02*
X61770000Y-87652000D01*
X61770000Y-87652000D02*
X67770000Y-87652000D01*
X67770000Y-87652000D02*
X67770000Y-86852000D01*
D11*
%TO.C,J4*%
X60900000Y-64322000D02*
X60900000Y-62992000D01*
X62230000Y-64322000D02*
X60900000Y-64322000D01*
X60900000Y-61722000D02*
X60900000Y-59122000D01*
X63500000Y-61722000D02*
X60900000Y-61722000D01*
X63500000Y-64322000D02*
X63500000Y-61722000D01*
X60900000Y-59122000D02*
X68640000Y-59122000D01*
X63500000Y-64322000D02*
X68640000Y-64322000D01*
X68640000Y-64322000D02*
X68640000Y-59122000D01*
%TO.C,C1*%
X58545252Y-49122400D02*
X58022748Y-49122400D01*
X58545252Y-47702400D02*
X58022748Y-47702400D01*
%TO.C,C2*%
X71718100Y-73416952D02*
X71718100Y-72894448D01*
X73138100Y-73416952D02*
X73138100Y-72894448D01*
%TO.C,C3*%
X71662548Y-45721200D02*
X72185052Y-45721200D01*
X71662548Y-47141200D02*
X72185052Y-47141200D01*
%TO.C,C4*%
X58563252Y-43638400D02*
X58040748Y-43638400D01*
X58563252Y-45058400D02*
X58040748Y-45058400D01*
%TO.C,C5*%
X71662548Y-51713200D02*
X72185052Y-51713200D01*
X71662548Y-50293200D02*
X72185052Y-50293200D01*
%TO.C,C6*%
X67409852Y-66546800D02*
X66887348Y-66546800D01*
X67409852Y-65126800D02*
X66887348Y-65126800D01*
%TO.C,C7*%
X58563252Y-47090400D02*
X58040748Y-47090400D01*
X58563252Y-45670400D02*
X58040748Y-45670400D01*
%TO.C,C8*%
X56313000Y-73531252D02*
X56313000Y-73008748D01*
X57733000Y-73531252D02*
X57733000Y-73008748D01*
%TO.C,C9*%
X58554252Y-49734400D02*
X58031748Y-49734400D01*
X58554252Y-51154400D02*
X58031748Y-51154400D01*
%TO.C,C10*%
X62010548Y-66597600D02*
X62533052Y-66597600D01*
X62010548Y-65177600D02*
X62533052Y-65177600D01*
%TO.C,C11*%
X65111152Y-82345600D02*
X64588648Y-82345600D01*
X65111152Y-80925600D02*
X64588648Y-80925600D01*
%TO.C,C12*%
X70930700Y-88495348D02*
X70930700Y-89017852D01*
X72350700Y-88495348D02*
X72350700Y-89017852D01*
%TO.C,C13*%
X67308252Y-52884000D02*
X66785748Y-52884000D01*
X67308252Y-54304000D02*
X66785748Y-54304000D01*
%TO.C,C14*%
X72299900Y-92996652D02*
X72299900Y-92474148D01*
X70879900Y-92996652D02*
X70879900Y-92474148D01*
%TO.C,C15*%
X56808300Y-92746352D02*
X56808300Y-92223848D01*
X58228300Y-92746352D02*
X58228300Y-92223848D01*
%TO.C,C16*%
X67308252Y-57098000D02*
X66785748Y-57098000D01*
X67308252Y-55678000D02*
X66785748Y-55678000D01*
%TO.C,D1*%
X56634500Y-56775900D02*
X56634500Y-59635900D01*
X58554500Y-56775900D02*
X56634500Y-56775900D01*
X58554500Y-59635900D02*
X58554500Y-56775900D01*
%TO.C,D2*%
X69931400Y-53495700D02*
X69931400Y-56355700D01*
X69931400Y-56355700D02*
X71851400Y-56355700D01*
X71851400Y-56355700D02*
X71851400Y-53495700D01*
%TO.C,J2*%
X74870000Y-97510000D02*
X77530000Y-97510000D01*
X74870000Y-49190000D02*
X74870000Y-97510000D01*
X77530000Y-49190000D02*
X77530000Y-97510000D01*
X74870000Y-49190000D02*
X77530000Y-49190000D01*
X74870000Y-47920000D02*
X74870000Y-46590000D01*
X74870000Y-46590000D02*
X76200000Y-46590000D01*
D13*
%TO.C,J3*%
X69682000Y-40020000D02*
X69682000Y-38620000D01*
X69682000Y-36220000D02*
X69682000Y-36070000D01*
X69682000Y-36070000D02*
X69382000Y-36070000D01*
X69382000Y-36070000D02*
X69382000Y-35620000D01*
X61682000Y-35620000D02*
X61682000Y-36070000D01*
X61682000Y-36070000D02*
X61382000Y-36070000D01*
X61382000Y-36070000D02*
X61382000Y-36220000D01*
X61382000Y-38620000D02*
X61382000Y-40020000D01*
X66607000Y-42195000D02*
X67332000Y-42195000D01*
X67332000Y-42195000D02*
X67332000Y-41770000D01*
X67332000Y-41770000D02*
X68332000Y-41770000D01*
X63732000Y-41770000D02*
X62732000Y-41770000D01*
D11*
%TO.C,J5*%
X59630000Y-94850000D02*
X59630000Y-97510000D01*
X67310000Y-94850000D02*
X59630000Y-94850000D01*
X67310000Y-97510000D02*
X59630000Y-97510000D01*
X67310000Y-94850000D02*
X67310000Y-97510000D01*
X68580000Y-94850000D02*
X69910000Y-94850000D01*
X69910000Y-94850000D02*
X69910000Y-96180000D01*
%TO.C,R1*%
X72185052Y-45109200D02*
X71662548Y-45109200D01*
X72185052Y-43689200D02*
X71662548Y-43689200D01*
%TO.C,R2*%
X72194052Y-48007200D02*
X71671548Y-48007200D01*
X72194052Y-49427200D02*
X71671548Y-49427200D01*
%TO.C,R3*%
X58329900Y-54018548D02*
X58329900Y-54541052D01*
X56909900Y-54018548D02*
X56909900Y-54541052D01*
%TO.C,R4*%
X72467400Y-54200048D02*
X72467400Y-54722552D01*
X73887400Y-54200048D02*
X73887400Y-54722552D01*
%TO.C,R5*%
X70943400Y-85151752D02*
X70943400Y-84629248D01*
X72363400Y-85151752D02*
X72363400Y-84629248D01*
%TO.C,R6*%
X60745848Y-82371000D02*
X61268352Y-82371000D01*
X60745848Y-80951000D02*
X61268352Y-80951000D01*
%TO.C,U1*%
X64451802Y-68402887D02*
X63539634Y-67490719D01*
X64770000Y-68084689D02*
X64451802Y-68402887D01*
X65088198Y-68402887D02*
X64770000Y-68084689D01*
X69875311Y-73190000D02*
X69557113Y-73508198D01*
X69557113Y-72871802D02*
X69875311Y-73190000D01*
X59664689Y-73190000D02*
X59982887Y-72871802D01*
X59982887Y-73508198D02*
X59664689Y-73190000D01*
X64770000Y-78295311D02*
X65088198Y-77977113D01*
X64451802Y-77977113D02*
X64770000Y-78295311D01*
D13*
%TO.C,U2*%
X67648200Y-49726600D02*
X67648200Y-45726600D01*
X62248200Y-51001600D02*
X62248200Y-45726600D01*
D11*
%TO.C,Y1*%
X67795000Y-93965000D02*
X61545000Y-93965000D01*
X67795000Y-88915000D02*
X61545000Y-88915000D01*
X67795000Y-88915000D02*
G75*
G02*
X67795000Y-93965000I0J-2525000D01*
G01*
X61545000Y-88915000D02*
G75*
G03*
X61545000Y-93965000I0J-2525000D01*
G01*
%TO.C,U3*%
D14*
X61534523Y-55831619D02*
X62562619Y-55831619D01*
X62683571Y-55771142D01*
X62744047Y-55710666D01*
X62804523Y-55589714D01*
X62804523Y-55347809D01*
X62744047Y-55226857D01*
X62683571Y-55166380D01*
X62562619Y-55105904D01*
X61534523Y-55105904D01*
X61534523Y-54622095D02*
X61534523Y-53835904D01*
X62018333Y-54259238D01*
X62018333Y-54077809D01*
X62078809Y-53956857D01*
X62139285Y-53896380D01*
X62260238Y-53835904D01*
X62562619Y-53835904D01*
X62683571Y-53896380D01*
X62744047Y-53956857D01*
X62804523Y-54077809D01*
X62804523Y-54440666D01*
X62744047Y-54561619D01*
X62683571Y-54622095D01*
%TO.C,J1*%
D13*
X53006666Y-45042380D02*
X53006666Y-45756666D01*
X52959047Y-45899523D01*
X52863809Y-45994761D01*
X52720952Y-46042380D01*
X52625714Y-46042380D01*
X54006666Y-46042380D02*
X53435238Y-46042380D01*
X53720952Y-46042380D02*
X53720952Y-45042380D01*
X53625714Y-45185238D01*
X53530476Y-45280476D01*
X53435238Y-45328095D01*
%TO.C,SW1*%
D14*
X63076666Y-86366047D02*
X63258095Y-86426523D01*
X63560476Y-86426523D01*
X63681428Y-86366047D01*
X63741904Y-86305571D01*
X63802380Y-86184619D01*
X63802380Y-86063666D01*
X63741904Y-85942714D01*
X63681428Y-85882238D01*
X63560476Y-85821761D01*
X63318571Y-85761285D01*
X63197619Y-85700809D01*
X63137142Y-85640333D01*
X63076666Y-85519380D01*
X63076666Y-85398428D01*
X63137142Y-85277476D01*
X63197619Y-85217000D01*
X63318571Y-85156523D01*
X63620952Y-85156523D01*
X63802380Y-85217000D01*
X64225714Y-85156523D02*
X64528095Y-86426523D01*
X64770000Y-85519380D01*
X65011904Y-86426523D01*
X65314285Y-85156523D01*
X66463333Y-86426523D02*
X65737619Y-86426523D01*
X66100476Y-86426523D02*
X66100476Y-85156523D01*
X65979523Y-85337952D01*
X65858571Y-85458904D01*
X65737619Y-85519380D01*
%TO.C,J4*%
D13*
X59352380Y-62055333D02*
X60066666Y-62055333D01*
X60209523Y-62102952D01*
X60304761Y-62198190D01*
X60352380Y-62341047D01*
X60352380Y-62436285D01*
X59685714Y-61150571D02*
X60352380Y-61150571D01*
X59304761Y-61388666D02*
X60019047Y-61626761D01*
X60019047Y-61007714D01*
%TO.C,C1*%
X58117333Y-50419542D02*
X58069714Y-50467161D01*
X57926857Y-50514780D01*
X57831619Y-50514780D01*
X57688761Y-50467161D01*
X57593523Y-50371923D01*
X57545904Y-50276685D01*
X57498285Y-50086209D01*
X57498285Y-49943352D01*
X57545904Y-49752876D01*
X57593523Y-49657638D01*
X57688761Y-49562400D01*
X57831619Y-49514780D01*
X57926857Y-49514780D01*
X58069714Y-49562400D01*
X58117333Y-49610019D01*
X59069714Y-50514780D02*
X58498285Y-50514780D01*
X58784000Y-50514780D02*
X58784000Y-49514780D01*
X58688761Y-49657638D01*
X58593523Y-49752876D01*
X58498285Y-49800495D01*
%TO.C,C2*%
X71135242Y-73322366D02*
X71182861Y-73369985D01*
X71230480Y-73512842D01*
X71230480Y-73608080D01*
X71182861Y-73750938D01*
X71087623Y-73846176D01*
X70992385Y-73893795D01*
X70801909Y-73941414D01*
X70659052Y-73941414D01*
X70468576Y-73893795D01*
X70373338Y-73846176D01*
X70278100Y-73750938D01*
X70230480Y-73608080D01*
X70230480Y-73512842D01*
X70278100Y-73369985D01*
X70325719Y-73322366D01*
X70325719Y-72941414D02*
X70278100Y-72893795D01*
X70230480Y-72798557D01*
X70230480Y-72560461D01*
X70278100Y-72465223D01*
X70325719Y-72417604D01*
X70420957Y-72369985D01*
X70516195Y-72369985D01*
X70659052Y-72417604D01*
X71230480Y-72989033D01*
X71230480Y-72369985D01*
%TO.C,C3*%
X71757133Y-45138342D02*
X71709514Y-45185961D01*
X71566657Y-45233580D01*
X71471419Y-45233580D01*
X71328561Y-45185961D01*
X71233323Y-45090723D01*
X71185704Y-44995485D01*
X71138085Y-44805009D01*
X71138085Y-44662152D01*
X71185704Y-44471676D01*
X71233323Y-44376438D01*
X71328561Y-44281200D01*
X71471419Y-44233580D01*
X71566657Y-44233580D01*
X71709514Y-44281200D01*
X71757133Y-44328819D01*
X72090466Y-44233580D02*
X72709514Y-44233580D01*
X72376180Y-44614533D01*
X72519038Y-44614533D01*
X72614276Y-44662152D01*
X72661895Y-44709771D01*
X72709514Y-44805009D01*
X72709514Y-45043104D01*
X72661895Y-45138342D01*
X72614276Y-45185961D01*
X72519038Y-45233580D01*
X72233323Y-45233580D01*
X72138085Y-45185961D01*
X72090466Y-45138342D01*
%TO.C,C4*%
X58135333Y-46355542D02*
X58087714Y-46403161D01*
X57944857Y-46450780D01*
X57849619Y-46450780D01*
X57706761Y-46403161D01*
X57611523Y-46307923D01*
X57563904Y-46212685D01*
X57516285Y-46022209D01*
X57516285Y-45879352D01*
X57563904Y-45688876D01*
X57611523Y-45593638D01*
X57706761Y-45498400D01*
X57849619Y-45450780D01*
X57944857Y-45450780D01*
X58087714Y-45498400D01*
X58135333Y-45546019D01*
X58992476Y-45784114D02*
X58992476Y-46450780D01*
X58754380Y-45403161D02*
X58516285Y-46117447D01*
X59135333Y-46117447D01*
%TO.C,C5*%
X71757133Y-49710342D02*
X71709514Y-49757961D01*
X71566657Y-49805580D01*
X71471419Y-49805580D01*
X71328561Y-49757961D01*
X71233323Y-49662723D01*
X71185704Y-49567485D01*
X71138085Y-49377009D01*
X71138085Y-49234152D01*
X71185704Y-49043676D01*
X71233323Y-48948438D01*
X71328561Y-48853200D01*
X71471419Y-48805580D01*
X71566657Y-48805580D01*
X71709514Y-48853200D01*
X71757133Y-48900819D01*
X72661895Y-48805580D02*
X72185704Y-48805580D01*
X72138085Y-49281771D01*
X72185704Y-49234152D01*
X72280942Y-49186533D01*
X72519038Y-49186533D01*
X72614276Y-49234152D01*
X72661895Y-49281771D01*
X72709514Y-49377009D01*
X72709514Y-49615104D01*
X72661895Y-49710342D01*
X72614276Y-49757961D01*
X72519038Y-49805580D01*
X72280942Y-49805580D01*
X72185704Y-49757961D01*
X72138085Y-49710342D01*
%TO.C,C6*%
X66981933Y-67843942D02*
X66934314Y-67891561D01*
X66791457Y-67939180D01*
X66696219Y-67939180D01*
X66553361Y-67891561D01*
X66458123Y-67796323D01*
X66410504Y-67701085D01*
X66362885Y-67510609D01*
X66362885Y-67367752D01*
X66410504Y-67177276D01*
X66458123Y-67082038D01*
X66553361Y-66986800D01*
X66696219Y-66939180D01*
X66791457Y-66939180D01*
X66934314Y-66986800D01*
X66981933Y-67034419D01*
X67839076Y-66939180D02*
X67648600Y-66939180D01*
X67553361Y-66986800D01*
X67505742Y-67034419D01*
X67410504Y-67177276D01*
X67362885Y-67367752D01*
X67362885Y-67748704D01*
X67410504Y-67843942D01*
X67458123Y-67891561D01*
X67553361Y-67939180D01*
X67743838Y-67939180D01*
X67839076Y-67891561D01*
X67886695Y-67843942D01*
X67934314Y-67748704D01*
X67934314Y-67510609D01*
X67886695Y-67415371D01*
X67839076Y-67367752D01*
X67743838Y-67320133D01*
X67553361Y-67320133D01*
X67458123Y-67367752D01*
X67410504Y-67415371D01*
X67362885Y-67510609D01*
%TO.C,C7*%
X58135333Y-48387542D02*
X58087714Y-48435161D01*
X57944857Y-48482780D01*
X57849619Y-48482780D01*
X57706761Y-48435161D01*
X57611523Y-48339923D01*
X57563904Y-48244685D01*
X57516285Y-48054209D01*
X57516285Y-47911352D01*
X57563904Y-47720876D01*
X57611523Y-47625638D01*
X57706761Y-47530400D01*
X57849619Y-47482780D01*
X57944857Y-47482780D01*
X58087714Y-47530400D01*
X58135333Y-47578019D01*
X58468666Y-47482780D02*
X59135333Y-47482780D01*
X58706761Y-48482780D01*
%TO.C,C8*%
X55730142Y-73436666D02*
X55777761Y-73484285D01*
X55825380Y-73627142D01*
X55825380Y-73722380D01*
X55777761Y-73865238D01*
X55682523Y-73960476D01*
X55587285Y-74008095D01*
X55396809Y-74055714D01*
X55253952Y-74055714D01*
X55063476Y-74008095D01*
X54968238Y-73960476D01*
X54873000Y-73865238D01*
X54825380Y-73722380D01*
X54825380Y-73627142D01*
X54873000Y-73484285D01*
X54920619Y-73436666D01*
X55253952Y-72865238D02*
X55206333Y-72960476D01*
X55158714Y-73008095D01*
X55063476Y-73055714D01*
X55015857Y-73055714D01*
X54920619Y-73008095D01*
X54873000Y-72960476D01*
X54825380Y-72865238D01*
X54825380Y-72674761D01*
X54873000Y-72579523D01*
X54920619Y-72531904D01*
X55015857Y-72484285D01*
X55063476Y-72484285D01*
X55158714Y-72531904D01*
X55206333Y-72579523D01*
X55253952Y-72674761D01*
X55253952Y-72865238D01*
X55301571Y-72960476D01*
X55349190Y-73008095D01*
X55444428Y-73055714D01*
X55634904Y-73055714D01*
X55730142Y-73008095D01*
X55777761Y-72960476D01*
X55825380Y-72865238D01*
X55825380Y-72674761D01*
X55777761Y-72579523D01*
X55730142Y-72531904D01*
X55634904Y-72484285D01*
X55444428Y-72484285D01*
X55349190Y-72531904D01*
X55301571Y-72579523D01*
X55253952Y-72674761D01*
%TO.C,C9*%
X58126333Y-52451542D02*
X58078714Y-52499161D01*
X57935857Y-52546780D01*
X57840619Y-52546780D01*
X57697761Y-52499161D01*
X57602523Y-52403923D01*
X57554904Y-52308685D01*
X57507285Y-52118209D01*
X57507285Y-51975352D01*
X57554904Y-51784876D01*
X57602523Y-51689638D01*
X57697761Y-51594400D01*
X57840619Y-51546780D01*
X57935857Y-51546780D01*
X58078714Y-51594400D01*
X58126333Y-51642019D01*
X58602523Y-52546780D02*
X58793000Y-52546780D01*
X58888238Y-52499161D01*
X58935857Y-52451542D01*
X59031095Y-52308685D01*
X59078714Y-52118209D01*
X59078714Y-51737257D01*
X59031095Y-51642019D01*
X58983476Y-51594400D01*
X58888238Y-51546780D01*
X58697761Y-51546780D01*
X58602523Y-51594400D01*
X58554904Y-51642019D01*
X58507285Y-51737257D01*
X58507285Y-51975352D01*
X58554904Y-52070590D01*
X58602523Y-52118209D01*
X58697761Y-52165828D01*
X58888238Y-52165828D01*
X58983476Y-52118209D01*
X59031095Y-52070590D01*
X59078714Y-51975352D01*
%TO.C,C10*%
X61628942Y-64594742D02*
X61581323Y-64642361D01*
X61438466Y-64689980D01*
X61343228Y-64689980D01*
X61200371Y-64642361D01*
X61105133Y-64547123D01*
X61057514Y-64451885D01*
X61009895Y-64261409D01*
X61009895Y-64118552D01*
X61057514Y-63928076D01*
X61105133Y-63832838D01*
X61200371Y-63737600D01*
X61343228Y-63689980D01*
X61438466Y-63689980D01*
X61581323Y-63737600D01*
X61628942Y-63785219D01*
X62581323Y-64689980D02*
X62009895Y-64689980D01*
X62295609Y-64689980D02*
X62295609Y-63689980D01*
X62200371Y-63832838D01*
X62105133Y-63928076D01*
X62009895Y-63975695D01*
X63200371Y-63689980D02*
X63295609Y-63689980D01*
X63390847Y-63737600D01*
X63438466Y-63785219D01*
X63486085Y-63880457D01*
X63533704Y-64070933D01*
X63533704Y-64309028D01*
X63486085Y-64499504D01*
X63438466Y-64594742D01*
X63390847Y-64642361D01*
X63295609Y-64689980D01*
X63200371Y-64689980D01*
X63105133Y-64642361D01*
X63057514Y-64594742D01*
X63009895Y-64499504D01*
X62962276Y-64309028D01*
X62962276Y-64070933D01*
X63009895Y-63880457D01*
X63057514Y-63785219D01*
X63105133Y-63737600D01*
X63200371Y-63689980D01*
%TO.C,C11*%
X64207042Y-83642742D02*
X64159423Y-83690361D01*
X64016566Y-83737980D01*
X63921328Y-83737980D01*
X63778471Y-83690361D01*
X63683233Y-83595123D01*
X63635614Y-83499885D01*
X63587995Y-83309409D01*
X63587995Y-83166552D01*
X63635614Y-82976076D01*
X63683233Y-82880838D01*
X63778471Y-82785600D01*
X63921328Y-82737980D01*
X64016566Y-82737980D01*
X64159423Y-82785600D01*
X64207042Y-82833219D01*
X65159423Y-83737980D02*
X64587995Y-83737980D01*
X64873709Y-83737980D02*
X64873709Y-82737980D01*
X64778471Y-82880838D01*
X64683233Y-82976076D01*
X64587995Y-83023695D01*
X66111804Y-83737980D02*
X65540376Y-83737980D01*
X65826090Y-83737980D02*
X65826090Y-82737980D01*
X65730852Y-82880838D01*
X65635614Y-82976076D01*
X65540376Y-83023695D01*
%TO.C,C12*%
X73647842Y-89399457D02*
X73695461Y-89447076D01*
X73743080Y-89589933D01*
X73743080Y-89685171D01*
X73695461Y-89828028D01*
X73600223Y-89923266D01*
X73504985Y-89970885D01*
X73314509Y-90018504D01*
X73171652Y-90018504D01*
X72981176Y-89970885D01*
X72885938Y-89923266D01*
X72790700Y-89828028D01*
X72743080Y-89685171D01*
X72743080Y-89589933D01*
X72790700Y-89447076D01*
X72838319Y-89399457D01*
X73743080Y-88447076D02*
X73743080Y-89018504D01*
X73743080Y-88732790D02*
X72743080Y-88732790D01*
X72885938Y-88828028D01*
X72981176Y-88923266D01*
X73028795Y-89018504D01*
X72838319Y-88066123D02*
X72790700Y-88018504D01*
X72743080Y-87923266D01*
X72743080Y-87685171D01*
X72790700Y-87589933D01*
X72838319Y-87542314D01*
X72933557Y-87494695D01*
X73028795Y-87494695D01*
X73171652Y-87542314D01*
X73743080Y-88113742D01*
X73743080Y-87494695D01*
%TO.C,C13*%
X66404142Y-55601142D02*
X66356523Y-55648761D01*
X66213666Y-55696380D01*
X66118428Y-55696380D01*
X65975571Y-55648761D01*
X65880333Y-55553523D01*
X65832714Y-55458285D01*
X65785095Y-55267809D01*
X65785095Y-55124952D01*
X65832714Y-54934476D01*
X65880333Y-54839238D01*
X65975571Y-54744000D01*
X66118428Y-54696380D01*
X66213666Y-54696380D01*
X66356523Y-54744000D01*
X66404142Y-54791619D01*
X67356523Y-55696380D02*
X66785095Y-55696380D01*
X67070809Y-55696380D02*
X67070809Y-54696380D01*
X66975571Y-54839238D01*
X66880333Y-54934476D01*
X66785095Y-54982095D01*
X67689857Y-54696380D02*
X68308904Y-54696380D01*
X67975571Y-55077333D01*
X68118428Y-55077333D01*
X68213666Y-55124952D01*
X68261285Y-55172571D01*
X68308904Y-55267809D01*
X68308904Y-55505904D01*
X68261285Y-55601142D01*
X68213666Y-55648761D01*
X68118428Y-55696380D01*
X67832714Y-55696380D01*
X67737476Y-55648761D01*
X67689857Y-55601142D01*
%TO.C,C14*%
X70297042Y-93378257D02*
X70344661Y-93425876D01*
X70392280Y-93568733D01*
X70392280Y-93663971D01*
X70344661Y-93806828D01*
X70249423Y-93902066D01*
X70154185Y-93949685D01*
X69963709Y-93997304D01*
X69820852Y-93997304D01*
X69630376Y-93949685D01*
X69535138Y-93902066D01*
X69439900Y-93806828D01*
X69392280Y-93663971D01*
X69392280Y-93568733D01*
X69439900Y-93425876D01*
X69487519Y-93378257D01*
X70392280Y-92425876D02*
X70392280Y-92997304D01*
X70392280Y-92711590D02*
X69392280Y-92711590D01*
X69535138Y-92806828D01*
X69630376Y-92902066D01*
X69677995Y-92997304D01*
X69725614Y-91568733D02*
X70392280Y-91568733D01*
X69344661Y-91806828D02*
X70058947Y-92044923D01*
X70058947Y-91425876D01*
%TO.C,C15*%
X56225442Y-93127957D02*
X56273061Y-93175576D01*
X56320680Y-93318433D01*
X56320680Y-93413671D01*
X56273061Y-93556528D01*
X56177823Y-93651766D01*
X56082585Y-93699385D01*
X55892109Y-93747004D01*
X55749252Y-93747004D01*
X55558776Y-93699385D01*
X55463538Y-93651766D01*
X55368300Y-93556528D01*
X55320680Y-93413671D01*
X55320680Y-93318433D01*
X55368300Y-93175576D01*
X55415919Y-93127957D01*
X56320680Y-92175576D02*
X56320680Y-92747004D01*
X56320680Y-92461290D02*
X55320680Y-92461290D01*
X55463538Y-92556528D01*
X55558776Y-92651766D01*
X55606395Y-92747004D01*
X55320680Y-91270814D02*
X55320680Y-91747004D01*
X55796871Y-91794623D01*
X55749252Y-91747004D01*
X55701633Y-91651766D01*
X55701633Y-91413671D01*
X55749252Y-91318433D01*
X55796871Y-91270814D01*
X55892109Y-91223195D01*
X56130204Y-91223195D01*
X56225442Y-91270814D01*
X56273061Y-91318433D01*
X56320680Y-91413671D01*
X56320680Y-91651766D01*
X56273061Y-91747004D01*
X56225442Y-91794623D01*
%TO.C,C16*%
X66404142Y-58395142D02*
X66356523Y-58442761D01*
X66213666Y-58490380D01*
X66118428Y-58490380D01*
X65975571Y-58442761D01*
X65880333Y-58347523D01*
X65832714Y-58252285D01*
X65785095Y-58061809D01*
X65785095Y-57918952D01*
X65832714Y-57728476D01*
X65880333Y-57633238D01*
X65975571Y-57538000D01*
X66118428Y-57490380D01*
X66213666Y-57490380D01*
X66356523Y-57538000D01*
X66404142Y-57585619D01*
X67356523Y-58490380D02*
X66785095Y-58490380D01*
X67070809Y-58490380D02*
X67070809Y-57490380D01*
X66975571Y-57633238D01*
X66880333Y-57728476D01*
X66785095Y-57776095D01*
X68213666Y-57490380D02*
X68023190Y-57490380D01*
X67927952Y-57538000D01*
X67880333Y-57585619D01*
X67785095Y-57728476D01*
X67737476Y-57918952D01*
X67737476Y-58299904D01*
X67785095Y-58395142D01*
X67832714Y-58442761D01*
X67927952Y-58490380D01*
X68118428Y-58490380D01*
X68213666Y-58442761D01*
X68261285Y-58395142D01*
X68308904Y-58299904D01*
X68308904Y-58061809D01*
X68261285Y-57966571D01*
X68213666Y-57918952D01*
X68118428Y-57871333D01*
X67927952Y-57871333D01*
X67832714Y-57918952D01*
X67785095Y-57966571D01*
X67737476Y-58061809D01*
%TO.C,D1*%
X59696880Y-59373995D02*
X58696880Y-59373995D01*
X58696880Y-59135900D01*
X58744500Y-58993042D01*
X58839738Y-58897804D01*
X58934976Y-58850185D01*
X59125452Y-58802566D01*
X59268309Y-58802566D01*
X59458785Y-58850185D01*
X59554023Y-58897804D01*
X59649261Y-58993042D01*
X59696880Y-59135900D01*
X59696880Y-59373995D01*
X59696880Y-57850185D02*
X59696880Y-58421614D01*
X59696880Y-58135900D02*
X58696880Y-58135900D01*
X58839738Y-58231138D01*
X58934976Y-58326376D01*
X58982595Y-58421614D01*
%TO.C,D2*%
X69693780Y-55233795D02*
X68693780Y-55233795D01*
X68693780Y-54995700D01*
X68741400Y-54852842D01*
X68836638Y-54757604D01*
X68931876Y-54709985D01*
X69122352Y-54662366D01*
X69265209Y-54662366D01*
X69455685Y-54709985D01*
X69550923Y-54757604D01*
X69646161Y-54852842D01*
X69693780Y-54995700D01*
X69693780Y-55233795D01*
X68789019Y-54281414D02*
X68741400Y-54233795D01*
X68693780Y-54138557D01*
X68693780Y-53900461D01*
X68741400Y-53805223D01*
X68789019Y-53757604D01*
X68884257Y-53709985D01*
X68979495Y-53709985D01*
X69122352Y-53757604D01*
X69693780Y-54329033D01*
X69693780Y-53709985D01*
%TO.C,J2*%
X75866666Y-45042380D02*
X75866666Y-45756666D01*
X75819047Y-45899523D01*
X75723809Y-45994761D01*
X75580952Y-46042380D01*
X75485714Y-46042380D01*
X76295238Y-45137619D02*
X76342857Y-45090000D01*
X76438095Y-45042380D01*
X76676190Y-45042380D01*
X76771428Y-45090000D01*
X76819047Y-45137619D01*
X76866666Y-45232857D01*
X76866666Y-45328095D01*
X76819047Y-45470952D01*
X76247619Y-46042380D01*
X76866666Y-46042380D01*
%TO.C,J3*%
X65198666Y-42322380D02*
X65198666Y-43036666D01*
X65151047Y-43179523D01*
X65055809Y-43274761D01*
X64912952Y-43322380D01*
X64817714Y-43322380D01*
X65579619Y-42322380D02*
X66198666Y-42322380D01*
X65865333Y-42703333D01*
X66008190Y-42703333D01*
X66103428Y-42750952D01*
X66151047Y-42798571D01*
X66198666Y-42893809D01*
X66198666Y-43131904D01*
X66151047Y-43227142D01*
X66103428Y-43274761D01*
X66008190Y-43322380D01*
X65722476Y-43322380D01*
X65627238Y-43274761D01*
X65579619Y-43227142D01*
%TO.C,J5*%
X70362380Y-96513333D02*
X71076666Y-96513333D01*
X71219523Y-96560952D01*
X71314761Y-96656190D01*
X71362380Y-96799047D01*
X71362380Y-96894285D01*
X70362380Y-95560952D02*
X70362380Y-96037142D01*
X70838571Y-96084761D01*
X70790952Y-96037142D01*
X70743333Y-95941904D01*
X70743333Y-95703809D01*
X70790952Y-95608571D01*
X70838571Y-95560952D01*
X70933809Y-95513333D01*
X71171904Y-95513333D01*
X71267142Y-95560952D01*
X71314761Y-95608571D01*
X71362380Y-95703809D01*
X71362380Y-95941904D01*
X71314761Y-96037142D01*
X71267142Y-96084761D01*
%TO.C,R1*%
X71757133Y-46501580D02*
X71423800Y-46025390D01*
X71185704Y-46501580D02*
X71185704Y-45501580D01*
X71566657Y-45501580D01*
X71661895Y-45549200D01*
X71709514Y-45596819D01*
X71757133Y-45692057D01*
X71757133Y-45834914D01*
X71709514Y-45930152D01*
X71661895Y-45977771D01*
X71566657Y-46025390D01*
X71185704Y-46025390D01*
X72709514Y-46501580D02*
X72138085Y-46501580D01*
X72423800Y-46501580D02*
X72423800Y-45501580D01*
X72328561Y-45644438D01*
X72233323Y-45739676D01*
X72138085Y-45787295D01*
%TO.C,R2*%
X71766133Y-50819580D02*
X71432800Y-50343390D01*
X71194704Y-50819580D02*
X71194704Y-49819580D01*
X71575657Y-49819580D01*
X71670895Y-49867200D01*
X71718514Y-49914819D01*
X71766133Y-50010057D01*
X71766133Y-50152914D01*
X71718514Y-50248152D01*
X71670895Y-50295771D01*
X71575657Y-50343390D01*
X71194704Y-50343390D01*
X72147085Y-49914819D02*
X72194704Y-49867200D01*
X72289942Y-49819580D01*
X72528038Y-49819580D01*
X72623276Y-49867200D01*
X72670895Y-49914819D01*
X72718514Y-50010057D01*
X72718514Y-50105295D01*
X72670895Y-50248152D01*
X72099466Y-50819580D01*
X72718514Y-50819580D01*
%TO.C,R3*%
X59722280Y-54446466D02*
X59246090Y-54779800D01*
X59722280Y-55017895D02*
X58722280Y-55017895D01*
X58722280Y-54636942D01*
X58769900Y-54541704D01*
X58817519Y-54494085D01*
X58912757Y-54446466D01*
X59055614Y-54446466D01*
X59150852Y-54494085D01*
X59198471Y-54541704D01*
X59246090Y-54636942D01*
X59246090Y-55017895D01*
X58722280Y-54113133D02*
X58722280Y-53494085D01*
X59103233Y-53827419D01*
X59103233Y-53684561D01*
X59150852Y-53589323D01*
X59198471Y-53541704D01*
X59293709Y-53494085D01*
X59531804Y-53494085D01*
X59627042Y-53541704D01*
X59674661Y-53589323D01*
X59722280Y-53684561D01*
X59722280Y-53970276D01*
X59674661Y-54065514D01*
X59627042Y-54113133D01*
%TO.C,R4*%
X75279780Y-54627966D02*
X74803590Y-54961300D01*
X75279780Y-55199395D02*
X74279780Y-55199395D01*
X74279780Y-54818442D01*
X74327400Y-54723204D01*
X74375019Y-54675585D01*
X74470257Y-54627966D01*
X74613114Y-54627966D01*
X74708352Y-54675585D01*
X74755971Y-54723204D01*
X74803590Y-54818442D01*
X74803590Y-55199395D01*
X74613114Y-53770823D02*
X75279780Y-53770823D01*
X74232161Y-54008919D02*
X74946447Y-54247014D01*
X74946447Y-53627966D01*
%TO.C,R5*%
X70455780Y-85057166D02*
X69979590Y-85390500D01*
X70455780Y-85628595D02*
X69455780Y-85628595D01*
X69455780Y-85247642D01*
X69503400Y-85152404D01*
X69551019Y-85104785D01*
X69646257Y-85057166D01*
X69789114Y-85057166D01*
X69884352Y-85104785D01*
X69931971Y-85152404D01*
X69979590Y-85247642D01*
X69979590Y-85628595D01*
X69455780Y-84152404D02*
X69455780Y-84628595D01*
X69931971Y-84676214D01*
X69884352Y-84628595D01*
X69836733Y-84533357D01*
X69836733Y-84295261D01*
X69884352Y-84200023D01*
X69931971Y-84152404D01*
X70027209Y-84104785D01*
X70265304Y-84104785D01*
X70360542Y-84152404D01*
X70408161Y-84200023D01*
X70455780Y-84295261D01*
X70455780Y-84533357D01*
X70408161Y-84628595D01*
X70360542Y-84676214D01*
%TO.C,R6*%
X60840433Y-80463380D02*
X60507100Y-79987190D01*
X60269004Y-80463380D02*
X60269004Y-79463380D01*
X60649957Y-79463380D01*
X60745195Y-79511000D01*
X60792814Y-79558619D01*
X60840433Y-79653857D01*
X60840433Y-79796714D01*
X60792814Y-79891952D01*
X60745195Y-79939571D01*
X60649957Y-79987190D01*
X60269004Y-79987190D01*
X61697576Y-79463380D02*
X61507100Y-79463380D01*
X61411861Y-79511000D01*
X61364242Y-79558619D01*
X61269004Y-79701476D01*
X61221385Y-79891952D01*
X61221385Y-80272904D01*
X61269004Y-80368142D01*
X61316623Y-80415761D01*
X61411861Y-80463380D01*
X61602338Y-80463380D01*
X61697576Y-80415761D01*
X61745195Y-80368142D01*
X61792814Y-80272904D01*
X61792814Y-80034809D01*
X61745195Y-79939571D01*
X61697576Y-79891952D01*
X61602338Y-79844333D01*
X61411861Y-79844333D01*
X61316623Y-79891952D01*
X61269004Y-79939571D01*
X61221385Y-80034809D01*
%TO.C,U1*%
X68755052Y-68127451D02*
X68182632Y-68699871D01*
X68148960Y-68800886D01*
X68148960Y-68868230D01*
X68182632Y-68969245D01*
X68317319Y-69103932D01*
X68418334Y-69137604D01*
X68485678Y-69137604D01*
X68586693Y-69103932D01*
X69159113Y-68531512D01*
X69159113Y-69945726D02*
X68755052Y-69541665D01*
X68957082Y-69743695D02*
X69664189Y-69036589D01*
X69495830Y-69070260D01*
X69361143Y-69070260D01*
X69260128Y-69036589D01*
%TO.C,U2*%
X60925580Y-48488504D02*
X61735104Y-48488504D01*
X61830342Y-48440885D01*
X61877961Y-48393266D01*
X61925580Y-48298028D01*
X61925580Y-48107552D01*
X61877961Y-48012314D01*
X61830342Y-47964695D01*
X61735104Y-47917076D01*
X60925580Y-47917076D01*
X61020819Y-47488504D02*
X60973200Y-47440885D01*
X60925580Y-47345647D01*
X60925580Y-47107552D01*
X60973200Y-47012314D01*
X61020819Y-46964695D01*
X61116057Y-46917076D01*
X61211295Y-46917076D01*
X61354152Y-46964695D01*
X61925580Y-47536123D01*
X61925580Y-46917076D01*
%TO.C,Y1*%
X64193809Y-94941190D02*
X64193809Y-95417380D01*
X63860476Y-94417380D02*
X64193809Y-94941190D01*
X64527142Y-94417380D01*
X65384285Y-95417380D02*
X64812857Y-95417380D01*
X65098571Y-95417380D02*
X65098571Y-94417380D01*
X65003333Y-94560238D01*
X64908095Y-94655476D01*
X64812857Y-94703095D01*
%TD*%
M02*
